<?xml version="1.0" encoding="UTF-8" standalone="no"?>
<!-- Created with Inkscape (http://www.inkscape.org/) -->

<svg
   xmlns:dc="http://purl.org/dc/elements/1.1/"
   xmlns:cc="http://creativecommons.org/ns#"
   xmlns:rdf="http://www.w3.org/1999/02/22-rdf-syntax-ns#"
   xmlns:svg="http://www.w3.org/2000/svg"
   xmlns="http://www.w3.org/2000/svg"
   xmlns:xlink="http://www.w3.org/1999/xlink"
   xmlns:sodipodi="http://sodipodi.sourceforge.net/DTD/sodipodi-0.dtd"
   xmlns:inkscape="http://www.inkscape.org/namespaces/inkscape"
   width="744.09448819"
   height="1052.3622047"
   id="svg2"
   version="1.1"
   inkscape:version="0.48.4 r9939"
   sodipodi:docname="pdf2htmlEX.svg">
  <sodipodi:namedview
     id="base"
     pagecolor="#ffffff"
     bordercolor="#666666"
     borderopacity="1.0"
     inkscape:pageopacity="0.0"
     inkscape:pageshadow="2"
     inkscape:zoom="0.85575991"
     inkscape:cx="183.36894"
     inkscape:cy="393.2274"
     inkscape:document-units="px"
     inkscape:current-layer="layer1"
     showgrid="false"
     inkscape:window-width="1920"
     inkscape:window-height="1057"
     inkscape:window-x="0"
     inkscape:window-y="1223"
     inkscape:window-maximized="0" />
  <defs
     id="defs4">
    <linearGradient
       id="linearGradient5065">
      <stop
         style="stop-color:#ff007c;stop-opacity:1;"
         offset="0"
         id="stop5067" />
      <stop
         style="stop-color:#ff870d;stop-opacity:1;"
         offset="1"
         id="stop5069" />
    </linearGradient>
    <linearGradient
       inkscape:collect="always"
       xlink:href="#linearGradient5065"
       id="linearGradient5071"
       x1="531.69116"
       y1="411.99567"
       x2="218.51924"
       y2="839.68573"
       gradientUnits="userSpaceOnUse" />
  </defs>
  <metadata
     id="metadata7">
    <rdf:RDF>
      <cc:Work
         rdf:about="">
        <dc:format>image/svg+xml</dc:format>
        <dc:type
           rdf:resource="http://purl.org/dc/dcmitype/StillImage" />
        <dc:title></dc:title>
      </cc:Work>
    </rdf:RDF>
  </metadata>
  <g
     inkscape:label="Layer 1"
     inkscape:groupmode="layer"
     id="layer1">
    <path
       style="fill:#000000;fill-opacity:1;stroke:none"
       d="m 164.61694,103.36326 0,-3.568112 c -5.71951,0 -19.69374,-12.34415 -23.50863,-19.15334 -3.75668,-6.70531 -9.17223,-21.07506 -19.15784,-21.07506 -9.98562,0 -15.40117,14.36975 -19.15785,21.07506 -3.814893,6.80919 -17.789123,19.15334 -23.508633,19.15334 l 0,3.568112 z"
       id="path2985-0-2"
       inkscape:connector-curvature="0"
       sodipodi:nodetypes="ccsssccc" />
    <path
       style="fill:none;stroke:#000000;stroke-width:7.20283508;stroke-miterlimit:4;stroke-opacity:1;stroke-dasharray:none;stroke-dashoffset:0"
       id="path2991"
       d="m 649.81651,126.86027 c 8.56225,29.87858 0.53406,62.05543 -21.06042,84.40985 -21.59448,22.35441 -53.47455,31.49022 -83.63128,23.96607 -30.15673,-7.52417 -54.00862,-30.56521 -62.57086,-60.44379 -8.56226,-29.87858 -0.53407,-62.05543 21.06042,-84.409835 21.59447,-22.35442 53.47454,-31.49023 83.63128,-23.96607 30.15672,7.52416 54.0086,30.5652 62.57086,60.443775 0,0 0,0 0,0"
       inkscape:connector-curvature="0" />
    <path
       inkscape:connector-curvature="0"
       style="fill:#000000;fill-opacity:1;stroke:none"
       d="m 513.4549,46.767325 c -0.28177,0.0883 -0.55826,0.20361 -0.82728,0.34703 -4.30437,2.29455 -3.50718,9.93373 -3.35958,13.65415 0.14499,3.65499 -1.26656,11.52947 -3.31603,13.64167 -0.003,0.003 -0.0117,0.001 -0.0145,0.004 -0.14176,0.11183 -0.27955,0.2278 -0.42076,0.34048 -0.0124,0.01 -0.027,0.0171 -0.0394,0.027 -2.52272,1.5657 -10.70916,1.27554 -14.22163,0.30575 -3.58905,-0.99095 -10.82952,-3.49798 -14.03922,0.17493 -3.2097,3.67291 0.34099,10.76318 1.91516,14.1374 1.54143,3.30407 3.1834,11.324445 2.05198,14.066755 -0.005,0.0127 -0.0153,0.0248 -0.0207,0.0374 -0.0848,0.15237 -0.1791,0.29959 -0.26305,0.45236 -0.004,0.006 -0.006,0.0126 -0.0103,0.0186 -1.73107,2.37288 -9.27246,5.09475 -12.90668,5.55209 -3.69422,0.46488 -11.35159,0.91575 -12.91084,5.53758 -1.55924,4.62183 4.45197,9.80593 7.19222,12.32671 2.69575,2.47985 7.25575,9.06397 7.28737,12.00102 2.5e-4,0.0216 0.002,0.041 0.002,0.0622 -0.0192,0.16314 -0.0455,0.32628 -0.0639,0.48953 -0.62422,2.87803 -6.64186,8.50838 -9.83123,10.30965 -3.24203,1.831 -10.25374,5.51907 -9.7814,10.3739 0.47233,4.85483 7.82613,7.03104 11.32059,8.31637 3.43771,1.26445 10.32394,5.83618 11.40999,8.57347 0.002,0.005 0.002,0.01 0.004,0.0145 0.01,0.0338 0.0194,0.0678 0.0291,0.1016 0.0332,0.11602 0.0662,0.23253 0.0998,0.34837 0.004,0.0202 0.0132,0.0374 0.0166,0.058 0.44778,2.90222 -2.97428,10.13182 -5.22051,13.02511 -2.28332,2.94105 -7.36836,8.68184 -5.19768,13.04998 2.17067,4.36814 10.07151,3.78275 13.79124,3.61873 3.65933,-0.16134 11.74568,1.42724 13.79948,3.53783 0.10208,0.12874 0.21078,0.25318 0.31349,0.38138 0.0114,0.0178 0.0199,0.0355 0.0311,0.0539 1.52875,2.50802 1.14809,10.50798 0.17493,14.03921 -0.98924,3.58954 -3.34235,11.1706 0.42814,14.26509 3.7705,3.0945 10.50445,-0.57874 13.88419,-2.14102 3.30948,-1.52981 11.0875,-3.22693 13.84683,-2.16174 0.0128,0.005 0.0247,0.0157 0.0374,0.0207 0.16148,0.0904 0.32348,0.17972 0.48554,0.26925 0.0124,0.007 0.0249,0.0138 0.0374,0.0207 2.41214,1.72685 5.26731,9.39956 5.70981,13.01855 0.45189,3.69583 1.19542,11.59054 5.86328,13.00599 4.66786,1.41545 9.48155,-4.54591 12.00102,-7.28737 2.46571,-2.68295 9.25594,-7.26495 12.22502,-7.27303 0.0155,8e-5 0.0324,0.002 0.0477,0.002 0.17942,0.0208 0.3578,0.0462 0.53724,0.0659 0.005,4.8e-4 0.01,-0.005 0.0145,-0.004 2.85713,0.70613 8.22508,6.63782 10.03793,9.81485 1.8453,3.23392 5.21514,10.13586 10.08147,9.80238 4.86635,-0.33349 7.34409,-7.86202 8.61915,-11.36024 1.25436,-3.44141 5.82164,-10.31911 8.55897,-11.40582 0.0432,-0.0123 0.0874,-0.025 0.13064,-0.0374 0.0432,-0.0144 0.0885,-0.0259 0.13063,-0.0375 2.69785,-0.72612 10.32109,2.81403 13.30089,5.14148 2.93435,2.29195 9.02344,7.36549 13.32781,5.07094 4.30436,-2.29455 3.49266,-9.92957 3.34506,-13.64999 -0.14499,-3.65499 1.26656,-11.52947 3.31604,-13.64168 0.004,-0.003 0.0108,-9.6e-4 0.0145,-0.004 0.14174,-0.11178 0.27958,-0.22785 0.42077,-0.34047 0.008,-0.005 0.0163,-0.0174 0.0249,-0.0228 2.50706,-1.57506 10.71744,-1.28142 14.23615,-0.3099 3.58905,0.99094 10.82951,3.49797 14.03921,-0.17494 3.2097,-3.67291 -0.34099,-10.76318 -1.91515,-14.13739 -1.54144,-3.30408 -3.18341,-11.32446 -2.05199,-14.06677 0.005,-0.0127 0.0154,-0.0248 0.0207,-0.0373 0.0901,-0.16178 0.18017,-0.32331 0.26925,-0.48555 0.008,-0.0109 0.0125,-0.0264 0.0207,-0.0374 1.77634,-2.365 9.2727,-5.045 12.89013,-5.50022 3.69421,-0.46488 11.35159,-0.91575 12.91084,-5.53758 1.55924,-4.62183 -4.45197,-9.80593 -7.19222,-12.32672 -2.74228,-2.52264 -7.39547,-9.29114 -7.26675,-12.14829 0.0157,-0.13425 0.026,-0.27014 0.0412,-0.40447 0.62422,-2.87803 6.65637,-8.51253 9.84574,-10.31381 3.24203,-1.83101 10.25374,-5.51907 9.7814,-10.3739 -0.47233,-4.85483 -7.84065,-7.02688 -11.33511,-8.3122 -3.4377,-1.26446 -10.32393,-5.83619 -11.40998,-8.57348 -0.0157,-0.0391 -0.0202,-0.0777 -0.0333,-0.11612 -0.0111,-0.0387 -0.0221,-0.0775 -0.0333,-0.11613 -0.52857,-2.89704 2.8911,-10.42212 5.13732,-13.31541 2.28332,-2.94104 7.38287,-8.686 5.2122,-13.054125 -2.17068,-4.36815 -10.07151,-3.78275 -13.79125,-3.61873 -3.65932,0.16134 -11.76019,-1.42309 -13.81399,-3.53368 -0.084,-0.10592 -0.16473,-0.21572 -0.24914,-0.32128 -1.62245,-2.35532 -1.26039,-10.56103 -0.27043,-14.15321 0.98923,-3.58954 3.34234,-11.17059 -0.42815,-14.26509 -3.7705,-3.0945 -10.50445,0.57874 -13.88418,2.14102 -3.32485,1.53691 -11.16323,3.22241 -13.88834,2.12652 -0.007,-0.003 -0.0114,-0.007 -0.0186,-0.0103 -0.15213,-0.0851 -0.31008,-0.16005 -0.46271,-0.24438 -0.0112,-0.008 -0.0261,-0.0127 -0.0374,-0.0207 -2.41214,-1.72684 -5.26731,-9.39955 -5.70981,-13.01855 -0.45189,-3.69582 -1.19542,-11.59053 -5.86328,-13.00599 -4.66787,-1.41545 -9.48155,4.54592 -12.00102,7.28737 -2.47008,2.68772 -9.27878,7.28535 -12.23953,7.27719 -0.0102,-1e-4 -0.0231,-0.006 -0.0332,-0.006 -0.1794,-0.0208 -0.35782,-0.0461 -0.53723,-0.0659 -0.005,-4.8e-4 -0.01,0.005 -0.0145,0.004 -2.85712,-0.70613 -8.22508,-6.63782 -10.03793,-9.81485 -1.8453,-3.23392 -5.20062,-10.14002 -10.06696,-9.80654 -4.86635,0.33349 -7.34409,7.86202 -8.61915,11.36024 -1.24219,3.40803 -5.74498,10.18391 -8.49054,11.37051 -0.068,0.0193 -0.13528,0.0387 -0.20322,0.0582 -0.11646,0.0334 -0.23202,0.066 -0.34836,0.0998 -0.0203,0.004 -0.0374,0.0132 -0.0581,0.0166 -2.90245,0.44954 -10.13427,-2.95128 -13.02095,-5.206 -2.75094,-2.1487 -8.27416,-6.74321 -12.50052,-5.41797 z m 27.30056,15.29751 c 15.32391,-4.39135 31.77424,-4.8213 47.7796,-0.82793 32.01073,7.98673 57.32795,32.43688 66.4166,64.152355 9.08864,31.71547 0.56385,65.86366 -22.35824,89.5924 -22.92207,23.72874 -56.74959,33.42263 -88.76031,25.43588 -32.01073,-7.98673 -57.32795,-32.43688 -66.4166,-64.15236 -9.08865,-31.71547 -0.56385,-65.86366 22.35823,-89.592395 11.46104,-11.86437 25.6568,-20.21661 40.98072,-24.60795 z"
       id="path9823" />
    <text
       xml:space="preserve"
       style="font-size:24.47576332px;font-style:normal;font-weight:normal;line-height:125%;letter-spacing:0px;word-spacing:0px;fill:#000000;fill-opacity:1;stroke:none;font-family:Sans"
       x="544.61725"
       y="254.53629"
       id="text3812"
       sodipodi:linespacing="125%"
       transform="matrix(0.75909493,-0.21753248,0.34886385,1.217385,0,0)"><tspan
         sodipodi:role="line"
         id="tspan3814"
         x="544.61725"
         y="254.53629"
         style="font-size:61.18940735px;font-style:normal;font-variant:normal;font-weight:bold;font-stretch:normal;font-family:DejaVu Sans Mono;-inkscape-font-specification:DejaVu Sans Mono Bold">&lt;pdf&gt;</tspan></text>
    <path
       style="font-size:medium;font-style:normal;font-variant:normal;font-weight:normal;font-stretch:normal;text-indent:0;text-align:start;text-decoration:none;line-height:normal;letter-spacing:normal;word-spacing:normal;text-transform:none;direction:ltr;block-progression:tb;writing-mode:lr-tb;text-anchor:start;baseline-shift:baseline;color:#000000;fill:url(#linearGradient5071);fill-opacity:1;stroke:none;stroke-width:16.02945137000000031;marker:none;visibility:visible;display:inline;overflow:visible;enable-background:accumulate;font-family:Sans;-inkscape-font-specification:Sans"
       d="M 335.28125 366.9375 C 324.4515 367.67966 318.93131 384.43368 316.09375 392.21875 C 313.32934 399.8031 303.29757 414.89055 297.1875 417.53125 C 297.03617 417.57415 296.9012 417.61283 296.75 417.65625 C 296.49083 417.73055 296.22765 417.79978 295.96875 417.875 C 295.92355 417.884 295.88985 417.93 295.84375 417.9375 C 289.38453 418.93793 273.29913 411.36149 266.875 406.34375 C 260.75296 401.56196 248.43675 391.33201 239.03125 394.28125 C 238.41374 394.4766 237.80864 394.74802 237.21875 395.0625 C 227.63965 400.16887 229.39028 417.15794 229.71875 425.4375 C 230.04142 433.57145 226.90471 451.11193 222.34375 455.8125 C 222.33675 455.8195 222.3188 455.8055 222.3125 455.8125 C 221.99702 456.06137 221.68926 456.31173 221.375 456.5625 C 221.3474 456.5847 221.30885 456.6029 221.28125 456.625 C 215.6671 460.10937 197.47303 459.47071 189.65625 457.3125 C 181.66905 455.1072 165.54923 449.51367 158.40625 457.6875 C 151.26327 465.86132 159.15303 481.64714 162.65625 489.15625 C 166.0866 496.50925 169.73665 514.36591 167.21875 520.46875 C 167.20765 520.49705 167.1995 520.5345 167.1875 520.5625 C 166.99878 520.90159 166.78057 521.22252 166.59375 521.5625 C 166.58475 521.5759 166.572 521.58035 166.5625 521.59375 C 162.71011 526.87445 145.93148 532.91972 137.84375 533.9375 C 129.6225 534.97207 112.59501 535.99566 109.125 546.28125 C 105.65501 556.56683 119.02675 568.10892 125.125 573.71875 C 131.12422 579.2375 141.27338 593.87003 141.34375 600.40625 C 141.3443 600.45435 141.34375 600.51528 141.34375 600.5625 C 141.30105 600.92556 141.2597 601.29295 141.21875 601.65625 C 139.82959 608.06112 126.41024 620.58514 119.3125 624.59375 C 112.09757 628.66852 96.511337 636.88339 97.5625 647.6875 C 98.61364 658.49162 114.97331 663.32708 122.75 666.1875 C 130.40041 669.00145 145.73932 679.15833 148.15625 685.25 C 148.16025 685.2611 148.15125 685.27115 148.15625 685.28125 C 148.17855 685.35645 148.19715 685.45603 148.21875 685.53125 C 148.29265 685.78945 148.36273 686.02345 148.4375 686.28125 C 148.4465 686.32625 148.46125 686.39163 148.46875 686.4375 C 149.46526 692.89621 141.84259 708.96741 136.84375 715.40625 C 131.76237 721.95136 120.45054 734.71649 125.28125 744.4375 C 130.11194 754.15852 147.69073 752.86501 155.96875 752.5 C 164.11236 752.14095 182.11689 755.67802 186.6875 760.375 C 186.91467 760.66151 187.14642 760.93345 187.375 761.21875 C 187.4004 761.25835 187.44385 761.3028 187.46875 761.34375 C 190.87088 766.92519 190.00946 784.73522 187.84375 792.59375 C 185.64226 800.58204 180.42152 817.45716 188.8125 824.34375 C 197.20351 831.23036 212.16611 823.03925 219.6875 819.5625 C 227.05254 816.158 244.35929 812.37949 250.5 814.75 C 250.5285 814.7611 250.56555 814.8013 250.59375 814.8125 C 250.95312 815.01368 251.32685 815.207 251.6875 815.40625 C 251.7151 815.42185 251.7222 815.4221 251.75 815.4375 C 257.11807 819.2805 263.484 836.38367 264.46875 844.4375 C 265.4744 852.66233 267.14322 870.22501 277.53125 873.375 C 287.91927 876.52499 298.61183 863.2572 304.21875 857.15625 C 309.70603 851.18552 324.83 840.98673 331.4375 840.96875 C 331.472 840.96892 331.4972 840.96875 331.53125 840.96875 C 331.93054 841.01505 332.31942 841.08116 332.71875 841.125 C 332.72985 841.126 332.74 841.09165 332.75 841.09375 C 339.10836 842.6652 351.05936 855.86722 355.09375 862.9375 C 359.20034 870.13438 366.70154 885.49214 377.53125 884.75 C 388.361 884.00784 393.88118 867.25381 396.71875 859.46875 C 399.51024 851.81011 409.68949 836.51216 415.78125 834.09375 C 415.87735 834.06635 415.96627 834.0276 416.0625 834 C 416.1586 833.968 416.24999 833.9633 416.34375 833.9375 C 422.34764 832.32156 439.30615 840.19541 445.9375 845.375 C 452.46771 850.47559 466.0459 861.76262 475.625 856.65625 C 485.20408 851.54987 483.39098 834.56081 483.0625 826.28125 C 482.73984 818.14731 485.87651 800.63809 490.4375 795.9375 C 490.4465 795.9305 490.46045 795.91325 490.46875 795.90625 C 490.78418 795.65749 491.09204 795.40688 491.40625 795.15625 C 491.42405 795.14515 491.44965 795.10575 491.46875 795.09375 C 497.04805 791.58855 515.29434 792.2442 523.125 794.40625 C 531.11221 796.61153 547.23202 802.20507 554.375 794.03125 C 561.51798 785.85742 553.62819 770.07159 550.125 762.5625 C 546.69462 755.20948 543.0446 737.35284 545.5625 731.25 C 545.5736 731.2217 545.58195 731.2153 545.59375 731.1875 C 545.79426 730.82747 545.98926 730.45481 546.1875 730.09375 C 546.2053 730.06955 546.2317 730.0244 546.25 730 C 550.20313 724.73685 566.88714 718.79432 574.9375 717.78125 C 583.15873 716.74669 600.18624 715.72309 603.65625 705.4375 C 607.12624 695.15191 593.75451 683.64111 587.65625 678.03125 C 581.55348 672.41728 571.21355 657.32716 571.5 650.96875 C 571.5349 650.66999 571.55995 650.3927 571.59375 650.09375 C 572.98291 643.68888 586.40226 631.13364 593.5 627.125 C 600.71493 623.05021 616.30117 614.83537 615.25 604.03125 C 614.19886 593.22714 597.80795 588.39165 590.03125 585.53125 C 582.38086 582.71727 567.04194 572.56042 564.625 566.46875 C 564.5901 566.38175 564.5917 566.30425 564.5625 566.21875 C 564.5378 566.13265 564.5249 566.02347 564.5 565.9375 C 563.3237 559.49032 570.93868 542.75133 575.9375 536.3125 C 581.01888 529.7674 592.36193 516.971 587.53125 507.25 C 582.70054 497.52896 565.12179 498.85374 556.84375 499.21875 C 548.70016 499.5778 530.66435 496.04073 526.09375 491.34375 C 525.90682 491.10803 525.7191 490.85992 525.53125 490.625 C 521.92059 485.38339 522.73441 467.11916 524.9375 459.125 C 527.13897 451.1367 532.35974 434.26161 523.96875 427.375 C 515.57774 420.48838 500.61513 428.67949 493.09375 432.15625 C 485.69451 435.57654 468.25206 439.31384 462.1875 436.875 C 462.1719 436.868 462.141 436.8823 462.125 436.875 C 461.78645 436.68562 461.43342 436.50017 461.09375 436.3125 C 461.06885 436.2947 461.05635 436.29905 461.03125 436.28125 C 455.66319 432.43828 449.29726 415.36635 448.3125 407.3125 C 447.30685 399.08769 445.63802 381.49376 435.25 378.34375 C 424.86195 375.19375 414.16942 388.46158 408.5625 394.5625 C 403.06549 400.54385 387.90147 410.79941 381.3125 410.78125 C 381.2898 410.78102 381.2725 410.75 381.25 410.75 C 380.85076 410.7037 380.46176 410.66906 380.0625 410.625 C 380.0514 410.624 380.04125 410.6271 380.03125 410.625 C 373.67291 409.05355 361.72188 395.85152 357.6875 388.78125 C 353.5809 381.58436 346.11098 366.19536 335.28125 366.9375 z M 355.75 420.375 C 372.52135 420.32076 389.42864 422.33422 406.125 426.5 C 477.36284 444.27396 533.71129 498.66922 553.9375 569.25 C 574.16369 639.83076 555.19915 715.8182 504.1875 768.625 C 453.17589 821.4318 377.89405 843.02401 306.65625 825.25 C 235.41841 807.47604 179.06996 753.04953 158.84375 682.46875 C 138.61754 611.88799 157.58212 535.90055 208.59375 483.09375 C 234.09956 456.69035 265.71009 438.08515 299.8125 428.3125 C 317.92938 423.12077 336.74247 420.43647 355.75 420.375 z M 355.75 424.25 C 354.65244 424.25348 353.56481 424.2598 352.46875 424.28125 C 299.8577 425.31066 248.9032 446.93236 211.375 485.78125 C 161.33735 537.57974 142.72247 612.17313 162.5625 681.40625 C 182.40249 750.63937 237.71612 804.06538 307.59375 821.5 C 377.47136 838.93457 451.36862 817.736 501.40625 765.9375 C 551.44387 714.13899 570.05876 639.54561 550.21875 570.3125 C 530.37872 501.07938 475.09636 447.6846 405.21875 430.25 C 388.84118 426.16377 372.2134 424.19781 355.75 424.25 z M 358.84375 440.25 C 372.99827 440.43903 387.23678 442.26933 401.3125 445.78125 C 465.65861 461.83573 516.54301 510.96611 534.8125 574.71875 C 553.08197 638.47138 535.95166 707.11435 489.875 754.8125 C 443.79835 802.51064 375.81486 821.99195 311.46875 805.9375 C 247.12262 789.883 196.2382 740.75264 177.96875 677 C 159.69926 613.24736 176.82958 544.60438 222.90625 496.90625 C 257.46373 461.13263 304.35356 441.22382 352.78125 440.28125 C 354.79907 440.24198 356.82168 440.223 358.84375 440.25 z M 419.15625 521.0625 L 407 524.5625 C 399.32814 526.76116 394.65152 530.35602 393.03125 535.375 C 391.41098 540.39424 392.18875 548.38079 395.3125 559.28125 L 397.125 565.59375 L 383.375 569.5 L 388.59375 587.71875 L 402.34375 583.78125 L 423.09375 656.25 L 437.875 652 L 417.125 579.5625 L 434.46875 574.59375 L 429.25 556.375 L 411.90625 561.34375 L 409.625 553.40625 C 408.68712 549.87946 408.40972 547.36076 408.8125 545.84375 C 409.24892 544.31732 410.59169 543.23028 412.8125 542.59375 L 424.375 539.28125 L 419.15625 521.0625 z M 356.96875 538.90625 L 342.21875 543.125 L 356.03125 591.28125 C 352.77604 586.78346 349.57154 583.63189 346.4375 581.84375 C 343.32164 579.99221 340.24712 579.50727 337.21875 580.375 C 330.5227 582.29398 326.5335 587.88128 325.25 597.125 C 324.00017 606.35925 325.57695 618.64324 329.96875 633.96875 C 334.29873 649.07849 339.45802 660.2743 345.40625 667.5625 C 351.35446 674.85073 357.53945 677.57012 364 675.71875 C 367.39847 674.74484 369.95521 672.57651 371.6875 669.21875 C 373.45336 665.85137 374.38725 661.31266 374.46875 655.625 L 378.3125 669.0625 L 393.0625 664.84375 L 356.96875 538.90625 z M 439.9375 548.40625 L 445.71875 568.65625 L 492.46875 580.21875 L 458.90625 614.625 L 464.6875 634.78125 L 508.40625 585.90625 L 502.9375 566.78125 L 439.9375 548.40625 z M 290.5 594.25 C 289.30666 594.27581 288.1176 594.43414 286.90625 594.78125 C 283.50774 595.75526 280.92215 597.9452 279.15625 601.3125 C 277.39036 604.67999 276.4853 609.1971 276.4375 614.875 L 272.53125 601.28125 L 257.8125 605.5 L 293.65625 730.65625 L 308.40625 726.40625 L 294.84375 679.15625 C 298.11438 683.7081 301.3216 686.89835 304.4375 688.75 C 307.57151 690.53805 310.65909 690.99283 313.6875 690.125 C 320.38351 688.20612 324.34386 682.64043 325.59375 673.40625 C 326.8772 664.16246 325.32927 651.88811 320.9375 636.5625 C 316.60749 621.45287 311.47943 610.22582 305.53125 602.9375 C 300.6983 597.0159 295.67112 594.13817 290.5 594.25 z M 348.21875 598.71875 C 351.02417 598.50245 353.85453 600.33882 356.71875 604.21875 C 359.9921 608.6531 362.90104 615.22677 365.40625 623.96875 C 367.91142 632.71084 368.95919 639.84884 368.53125 645.34375 C 368.10326 650.83875 366.29034 654.02147 363.09375 654.9375 C 359.89712 655.85356 356.67721 654.1002 353.4375 649.65625 C 350.19778 645.21237 347.31769 638.61708 344.8125 629.875 C 342.30731 621.13301 341.26193 614.01663 341.65625 608.53125 C 342.05057 603.046 343.83463 599.85363 347.03125 598.9375 C 347.43082 598.823 347.81798 598.74965 348.21875 598.71875 z M 244.53125 604.40625 L 200.84375 653.34375 L 206.3125 672.46875 L 269.28125 690.75 L 263.53125 670.59375 L 216.84375 659.1875 L 250.34375 624.625 L 244.53125 604.40625 z M 289.625 615.3125 C 292.22881 615.38481 294.86771 617.23314 297.5 620.84375 C 300.7397 625.28774 303.58853 631.88302 306.09375 640.625 C 308.59891 649.36711 309.67554 656.48347 309.28125 661.96875 C 308.8869 667.45411 307.07158 670.64649 303.875 671.5625 C 300.67836 672.47858 297.46085 670.71556 294.1875 666.28125 C 290.91411 661.84701 288.00519 655.27335 285.5 646.53125 C 282.9948 637.78927 281.97828 630.65128 282.40625 625.15625 C 282.83421 619.66137 284.64714 616.47862 287.84375 615.5625 C 288.44311 615.39076 289.02412 615.29581 289.625 615.3125 z "
       id="path2991-0" />
    <path
       sodipodi:type="arc"
       style="fill:none;stroke:none;stroke-width:1.20000005000000010;stroke-miterlimit:4;stroke-opacity:0.50196078000000000;stroke-dasharray:2.39999999999999991, 1.19999999999999996;stroke-dashoffset:0"
       id="path2996"
       sodipodi:cx="85.888573"
       sodipodi:cy="197.56636"
       sodipodi:rx="18.112556"
       sodipodi:ry="18.112556"
       d="m 104.00113,197.56636 a 18.112556,18.112556 0 1 1 -36.225114,0 18.112556,18.112556 0 1 1 36.225114,0 z" />
  </g>
</svg>
