<?xml version="1.0" encoding="UTF-8" standalone="no"?>
<!-- Created with Inkscape (http://www.inkscape.org/) -->

<svg
   xmlns:dc="http://purl.org/dc/elements/1.1/"
   xmlns:cc="http://creativecommons.org/ns#"
   xmlns:rdf="http://www.w3.org/1999/02/22-rdf-syntax-ns#"
   xmlns:svg="http://www.w3.org/2000/svg"
   xmlns="http://www.w3.org/2000/svg"
   xmlns:xlink="http://www.w3.org/1999/xlink"
   xmlns:sodipodi="http://sodipodi.sourceforge.net/DTD/sodipodi-0.dtd"
   xmlns:inkscape="http://www.inkscape.org/namespaces/inkscape"
   width="744.09448819"
   height="1052.3622047"
   id="svg2"
   version="1.1"
   inkscape:version="0.48.4 r9939"
   sodipodi:docname="design.svg">
  <title
     id="title3050">pdf2htmlEX logo design</title>
  <sodipodi:namedview
     id="base"
     pagecolor="#ffffff"
     bordercolor="#666666"
     borderopacity="1.0"
     inkscape:pageopacity="0.0"
     inkscape:pageshadow="2"
     inkscape:zoom="0.85575991"
     inkscape:cx="-226.20855"
     inkscape:cy="575.04503"
     inkscape:document-units="px"
     inkscape:current-layer="layer1"
     showgrid="false"
     inkscape:window-width="1845"
     inkscape:window-height="1177"
     inkscape:window-x="8"
     inkscape:window-y="31"
     inkscape:window-maximized="0" />
  <defs
     id="defs4">
    <linearGradient
       id="linearGradient5065">
      <stop
         style="stop-color:#ff00aa;stop-opacity:1;"
         offset="0"
         id="stop5067" />
      <stop
         style="stop-color:#ff870d;stop-opacity:1;"
         offset="1"
         id="stop5069" />
    </linearGradient>
    <linearGradient
       inkscape:collect="always"
       xlink:href="#linearGradient5065"
       id="linearGradient5071"
       x1="531.69116"
       y1="411.99567"
       x2="218.51924"
       y2="839.68573"
       gradientUnits="userSpaceOnUse"
       gradientTransform="translate(-2,-2)" />
    <linearGradient
       inkscape:collect="always"
       xlink:href="#linearGradient5065-9"
       id="linearGradient5071-4"
       x1="531.69116"
       y1="411.99567"
       x2="218.51924"
       y2="839.68573"
       gradientUnits="userSpaceOnUse" />
    <linearGradient
       id="linearGradient5065-9">
      <stop
         style="stop-color:#ff007c;stop-opacity:1;"
         offset="0"
         id="stop5067-1" />
      <stop
         style="stop-color:#ff870d;stop-opacity:1;"
         offset="1"
         id="stop5069-0" />
    </linearGradient>
    <linearGradient
       gradientTransform="translate(-97.511872,-366.91159)"
       y2="839.68573"
       x2="218.51924"
       y1="411.99567"
       x1="531.69116"
       gradientUnits="userSpaceOnUse"
       id="linearGradient3868"
       xlink:href="#linearGradient5065-9"
       inkscape:collect="always" />
    <filter
       inkscape:collect="always"
       id="filter3930">
      <feGaussianBlur
         inkscape:collect="always"
         stdDeviation="2.5891312"
         id="feGaussianBlur3932" />
    </filter>
  </defs>
  <metadata
     id="metadata7">
    <rdf:RDF>
      <cc:Work
         rdf:about="">
        <dc:format>image/svg+xml</dc:format>
        <dc:type
           rdf:resource="http://purl.org/dc/dcmitype/StillImage" />
        <dc:title>pdf2htmlEX logo design</dc:title>
        <cc:license
           rdf:resource="http://creativecommons.org/licenses/by/3.0/" />
        <dc:date>2013-09-27</dc:date>
        <dc:creator>
          <cc:Agent>
            <dc:title>Lu Wang &lt;coolwanglu@gmail.com&gt;</dc:title>
          </cc:Agent>
        </dc:creator>
      </cc:Work>
      <cc:License
         rdf:about="http://creativecommons.org/licenses/by/3.0/">
        <cc:permits
           rdf:resource="http://creativecommons.org/ns#Reproduction" />
        <cc:permits
           rdf:resource="http://creativecommons.org/ns#Distribution" />
        <cc:requires
           rdf:resource="http://creativecommons.org/ns#Notice" />
        <cc:requires
           rdf:resource="http://creativecommons.org/ns#Attribution" />
        <cc:permits
           rdf:resource="http://creativecommons.org/ns#DerivativeWorks" />
      </cc:License>
    </rdf:RDF>
  </metadata>
  <g
     inkscape:label="Layer 1"
     inkscape:groupmode="layer"
     id="layer1">
    <path
       inkscape:connector-curvature="0"
       style="font-size:medium;font-style:normal;font-variant:normal;font-weight:normal;font-stretch:normal;text-indent:0;text-align:start;text-decoration:none;line-height:normal;letter-spacing:normal;word-spacing:normal;text-transform:none;direction:ltr;block-progression:tb;writing-mode:lr-tb;text-anchor:start;baseline-shift:baseline;color:#000000;fill:#000000;fill-opacity:0.50196081000000004;stroke:none;stroke-width:16.02945137000000031;marker:none;visibility:visible;display:inline;overflow:visible;enable-background:accumulate;font-family:Sans;-inkscape-font-specification:Sans;filter:url(#filter3930)"
       d="m 335.28105,366.9374 c -10.82975,0.74216 -16.34994,17.49618 -19.1875,25.28125 -2.76441,7.58435 -12.79618,22.6718 -18.90625,25.3125 -0.15133,0.0429 -0.2863,0.0816 -0.4375,0.125 -0.25917,0.0743 -0.52235,0.14353 -0.78125,0.21875 -0.0452,0.009 -0.0789,0.055 -0.125,0.0625 -6.45922,1.00043 -22.54462,-6.57601 -28.96875,-11.59375 -6.12204,-4.78179 -18.43825,-15.01174 -27.84375,-12.0625 -0.61751,0.19535 -1.22261,0.46677 -1.8125,0.78125 -9.5791,5.10637 -7.82847,22.09544 -7.5,30.375 0.32267,8.13395 -2.81404,25.67443 -7.375,30.375 -0.007,0.007 -0.0249,-0.007 -0.0312,0 -0.31548,0.24887 -0.62324,0.49923 -0.9375,0.75 -0.0276,0.0222 -0.0661,0.0404 -0.0937,0.0625 -5.61415,3.48437 -23.80822,2.84571 -31.625,0.6875 -7.9872,-2.2053 -24.10702,-7.79883 -31.25,0.375 -7.14298,8.17382 0.74678,23.95964 4.25,31.46875 3.43035,7.353 7.0804,25.20966 4.5625,31.3125 -0.0111,0.0283 -0.0192,0.0657 -0.0312,0.0937 -0.18872,0.33909 -0.40693,0.66002 -0.59375,1 -0.009,0.0134 -0.0217,0.0178 -0.0312,0.0312 -3.85239,5.2807 -20.63102,11.32597 -28.71875,12.34375 -8.22125,1.03457 -25.24874,2.05816 -28.71875,12.34375 -3.46999,10.28558 9.90175,21.82767 16,27.4375 5.99922,5.51875 16.14838,20.15128 16.21875,26.6875 5.5e-4,0.0481 0,0.10903 0,0.15625 -0.0427,0.36306 -0.084,0.73045 -0.125,1.09375 -1.38916,6.40487 -14.80851,18.92889 -21.90625,22.9375 -7.21493,4.07477 -22.801163,12.28964 -21.75,23.09375 1.05114,10.80412 17.41081,15.63958 25.1875,18.5 7.65041,2.81395 22.98932,12.97083 25.40625,19.0625 0.004,0.0111 -0.005,0.0212 0,0.0312 0.0223,0.0752 0.0409,0.17478 0.0625,0.25 0.0739,0.2582 0.14398,0.4922 0.21875,0.75 0.009,0.045 0.0238,0.11038 0.0312,0.15625 0.99651,6.45871 -6.62616,22.52991 -11.625,28.96875 -5.08138,6.54511 -16.39321,19.31024 -11.5625,29.03125 4.83069,9.72102 22.40948,8.42751 30.6875,8.0625 8.14361,-0.35905 26.14814,3.17802 30.71875,7.875 0.22717,0.28651 0.45892,0.55845 0.6875,0.84375 0.0254,0.0396 0.0688,0.0841 0.0937,0.125 3.40213,5.58144 2.54071,23.39147 0.375,31.25 -2.20149,7.98829 -7.42223,24.86341 0.96875,31.75 8.39101,6.88661 23.35361,-1.3045 30.875,-4.78125 7.36504,-3.4045 24.67179,-7.18301 30.8125,-4.8125 0.0285,0.0111 0.0656,0.0513 0.0937,0.0625 0.35937,0.20118 0.7331,0.3945 1.09375,0.59375 0.0276,0.0156 0.0347,0.0159 0.0625,0.0312 5.36807,3.843 11.734,20.94617 12.71875,29 1.00565,8.22483 2.67447,25.78751 13.0625,28.9375 10.38802,3.14999 21.08058,-10.1178 26.6875,-16.21875 5.48728,-5.97073 20.61125,-16.16952 27.21875,-16.1875 0.0345,1.7e-4 0.0597,0 0.0937,0 0.39929,0.0463 0.78817,0.11241 1.1875,0.15625 0.0111,0.001 0.0213,-0.0334 0.0312,-0.0312 6.35836,1.57145 18.30936,14.77347 22.34375,21.84375 4.10659,7.19688 11.60779,22.55464 22.4375,21.8125 10.82975,-0.74216 16.34993,-17.49619 19.1875,-25.28125 2.79149,-7.65864 12.97074,-22.95659 19.0625,-25.375 0.0961,-0.0274 0.18502,-0.0661 0.28125,-0.0937 0.0961,-0.032 0.18749,-0.0367 0.28125,-0.0625 6.00389,-1.61594 22.9624,6.25791 29.59375,11.4375 6.53021,5.10059 20.1084,16.38762 29.6875,11.28125 9.57908,-5.10638 7.76598,-22.09544 7.4375,-30.375 -0.32266,-8.13394 2.81401,-25.64316 7.375,-30.34375 0.009,-0.007 0.0229,-0.0243 0.0312,-0.0312 0.31543,-0.24876 0.62329,-0.49937 0.9375,-0.75 0.0178,-0.0111 0.0434,-0.0505 0.0625,-0.0625 5.5793,-3.5052 23.82559,-2.84955 31.65625,-0.6875 7.98721,2.20528 24.10702,7.79882 31.25,-0.375 7.14298,-8.17383 -0.74681,-23.95966 -4.25,-31.46875 -3.43038,-7.35302 -7.0804,-25.20966 -4.5625,-31.3125 0.0111,-0.0283 0.0195,-0.0347 0.0312,-0.0625 0.20051,-0.36003 0.39551,-0.73269 0.59375,-1.09375 0.0178,-0.0242 0.0442,-0.0693 0.0625,-0.0937 3.95313,-5.26315 20.63714,-11.20568 28.6875,-12.21875 8.22123,-1.03456 25.24874,-2.05816 28.71875,-12.34375 3.46999,-10.28559 -9.90174,-21.79639 -16,-27.40625 -6.10277,-5.61397 -16.4427,-20.70409 -16.15625,-27.0625 0.0349,-0.29876 0.0599,-0.57605 0.0937,-0.875 1.38916,-6.40487 14.80851,-18.96011 21.90625,-22.96875 7.21493,-4.07479 22.80117,-12.28963 21.75,-23.09375 -1.05114,-10.80411 -17.44205,-15.6396 -25.21875,-18.5 -7.65039,-2.81398 -22.98931,-12.97083 -25.40625,-19.0625 -0.0349,-0.087 -0.0333,-0.1645 -0.0625,-0.25 -0.0247,-0.0861 -0.0376,-0.19528 -0.0625,-0.28125 -1.1763,-6.44718 6.43868,-23.18617 11.4375,-29.625 5.08138,-6.5451 16.42443,-19.3415 11.59375,-29.0625 -4.83071,-9.72104 -22.40946,-8.39626 -30.6875,-8.03125 -8.14359,0.35905 -26.1794,-3.17802 -30.75,-7.875 -0.18693,-0.23572 -0.37465,-0.48383 -0.5625,-0.71875 -3.61066,-5.24161 -2.79684,-23.50584 -0.59375,-31.5 2.20147,-7.9883 7.42224,-24.86339 -0.96875,-31.75 -8.39101,-6.88662 -23.35362,1.30449 -30.875,4.78125 -7.39924,3.42029 -24.84169,7.15759 -30.90625,4.71875 -0.0156,-0.007 -0.0465,0.007 -0.0625,0 -0.33855,-0.18938 -0.69158,-0.37483 -1.03125,-0.5625 -0.0249,-0.0178 -0.0374,-0.0134 -0.0625,-0.0312 -5.36806,-3.84297 -11.73399,-20.9149 -12.71875,-28.96875 -1.00565,-8.22481 -2.67448,-25.81874 -13.0625,-28.96875 -10.38805,-3.15 -21.08058,10.11783 -26.6875,16.21875 -5.49701,5.98135 -20.66103,16.23691 -27.25,16.21875 -0.0227,-2.3e-4 -0.04,-0.0312 -0.0625,-0.0312 -0.39924,-0.0463 -0.78824,-0.0809 -1.1875,-0.125 -0.0111,-10e-4 -0.0213,0.002 -0.0312,0 -6.35834,-1.57145 -18.30937,-14.77348 -22.34375,-21.84375 -4.1066,-7.19689 -11.57652,-22.58589 -22.40625,-21.84375 z m 20.46875,53.4375 c 16.77135,-0.0542 33.67864,1.95922 50.375,6.125 71.23784,17.77396 127.58629,72.16922 147.8125,142.75 20.22619,70.58076 1.26165,146.5682 -49.75,199.375 -51.01161,52.8068 -126.29345,74.39901 -197.53125,56.625 -71.23784,-17.77396 -127.58629,-72.20047 -147.8125,-142.78125 -20.22621,-70.58076 -1.26163,-146.5682 49.75,-199.375 25.50581,-26.4034 57.11634,-45.0086 91.21875,-54.78125 18.11688,-5.19173 36.92997,-7.87603 55.9375,-7.9375 z m 0,3.875 c -1.09756,0.003 -2.18519,0.01 -3.28125,0.0312 -52.61105,1.02941 -103.56555,22.65111 -141.09375,61.5 -50.03765,51.79849 -68.65253,126.39188 -48.8125,195.625 19.83999,69.23312 75.15362,122.65913 145.03125,140.09375 69.87761,17.43457 143.77487,-3.764 193.8125,-55.5625 50.03762,-51.79851 68.65251,-126.39189 48.8125,-195.625 -19.84003,-69.23312 -75.12239,-122.6279 -145,-140.0625 -16.37757,-4.08623 -33.00535,-6.05219 -49.46875,-6 z m 3.09375,16 c 14.15452,0.18903 28.39303,2.01933 42.46875,5.53125 64.34611,16.05448 115.23051,65.18486 133.5,128.9375 18.26947,63.75263 1.13916,132.3956 -44.9375,180.09375 -46.07665,47.69814 -114.06014,67.17945 -178.40625,51.125 -64.34613,-16.0545 -115.23055,-65.18486 -133.5,-128.9375 -18.26949,-63.75264 -1.13917,-132.39562 44.9375,-180.09375 34.55748,-35.77362 81.44731,-55.68243 129.875,-56.625 2.01782,-0.0393 4.04043,-0.0582 6.0625,-0.0312 z m 60.3125,80.8125 -12.15625,3.5 c -7.67186,2.19866 -12.34848,5.79352 -13.96875,10.8125 -1.62027,5.01924 -0.8425,13.00579 2.28125,23.90625 l 1.8125,6.3125 -13.75,3.90625 5.21875,18.21875 13.75,-3.9375 20.75,72.46875 14.78125,-4.25 -20.75,-72.4375 17.34375,-4.96875 -5.21875,-18.21875 -17.34375,4.96875 -2.28125,-7.9375 c -0.93788,-3.52679 -1.21528,-6.04549 -0.8125,-7.5625 0.43642,-1.52643 1.77919,-2.61347 4,-3.25 l 11.5625,-3.3125 -5.21875,-18.21875 z m -62.1875,17.84375 -14.75,4.21875 13.8125,48.15625 c -3.25521,-4.49779 -6.45971,-7.64936 -9.59375,-9.4375 -3.11586,-1.85154 -6.19038,-2.33648 -9.21875,-1.46875 -6.69605,1.91898 -10.68525,7.50628 -11.96875,16.75 -1.24983,9.23425 0.32695,21.51824 4.71875,36.84375 4.32998,15.10974 9.48927,26.30555 15.4375,33.59375 5.94821,7.28823 12.1332,10.00762 18.59375,8.15625 3.39847,-0.97391 5.95521,-3.14224 7.6875,-6.5 1.76586,-3.36738 2.69975,-7.90609 2.78125,-13.59375 l 3.84375,13.4375 14.75,-4.21875 -36.09375,-125.9375 z m 82.96875,9.5 5.78125,20.25 46.75,11.5625 -33.5625,34.40625 5.78125,20.15625 43.71875,-48.875 -5.46875,-19.125 -63,-18.375 z M 290.4998,594.2499 c -1.19334,0.0258 -2.3824,0.18414 -3.59375,0.53125 -3.39851,0.97401 -5.9841,3.16395 -7.75,6.53125 -1.76589,3.36749 -2.67095,7.8846 -2.71875,13.5625 l -3.90625,-13.59375 -14.71875,4.21875 35.84375,125.15625 14.75,-4.25 -13.5625,-47.25 c 3.27063,4.55185 6.47785,7.7421 9.59375,9.59375 3.13401,1.78805 6.22159,2.24283 9.25,1.375 6.69601,-1.91888 10.65636,-7.48457 11.90625,-16.71875 1.28345,-9.24379 -0.26448,-21.51814 -4.65625,-36.84375 -4.33001,-15.10963 -9.45807,-26.33668 -15.40625,-33.625 -4.83295,-5.9216 -9.86013,-8.79933 -15.03125,-8.6875 z m 57.71875,4.46875 c 2.80542,-0.2163 5.63578,1.62007 8.5,5.5 3.27335,4.43435 6.18229,11.00802 8.6875,19.75 2.50517,8.74209 3.55294,15.88009 3.125,21.375 -0.42799,5.495 -2.24091,8.67772 -5.4375,9.59375 -3.19663,0.91606 -6.41654,-0.8373 -9.65625,-5.28125 -3.23972,-4.44388 -6.11981,-11.03917 -8.625,-19.78125 -2.50519,-8.74199 -3.55057,-15.85837 -3.15625,-21.34375 0.39432,-5.48525 2.17838,-8.67762 5.375,-9.59375 0.39957,-0.1145 0.78673,-0.18785 1.1875,-0.21875 z m -103.6875,5.6875 -43.6875,48.9375 5.46875,19.125 62.96875,18.28125 -5.75,-20.15625 -46.6875,-11.40625 33.5,-34.5625 -5.8125,-20.21875 z m 45.09375,10.90625 c 2.60381,0.0723 5.24271,1.92064 7.875,5.53125 3.2397,4.44399 6.08853,11.03927 8.59375,19.78125 2.50516,8.74211 3.58179,15.85847 3.1875,21.34375 -0.39435,5.48536 -2.20967,8.67774 -5.40625,9.59375 -3.19664,0.91608 -6.41415,-0.84694 -9.6875,-5.28125 -3.27339,-4.43424 -6.18231,-11.0079 -8.6875,-19.75 -2.5052,-8.74198 -3.52172,-15.87997 -3.09375,-21.375 0.42796,-5.49488 2.24089,-8.67763 5.4375,-9.59375 0.59936,-0.17174 1.18037,-0.26669 1.78125,-0.25 z"
       id="path2991-0-5" />
    <path
       style="fill:#000000;fill-opacity:1;stroke:none"
       d="m 164.61694,103.36326 0,-3.568112 c -5.71951,0 -19.69374,-12.34415 -23.50863,-19.15334 -3.75668,-6.70531 -9.17223,-21.07506 -19.15784,-21.07506 -9.98562,0 -15.40117,14.36975 -19.15785,21.07506 -3.814893,6.80919 -17.789123,19.15334 -23.508633,19.15334 l 0,3.568112 z"
       id="path2985-0-2"
       inkscape:connector-curvature="0"
       sodipodi:nodetypes="ccsssccc" />
    <path
       style="fill:none;stroke:#000000;stroke-width:7.20283508;stroke-miterlimit:4;stroke-opacity:1;stroke-dasharray:none;stroke-dashoffset:0"
       id="path2991"
       d="m 649.81651,126.86027 c 8.56225,29.87858 0.53406,62.05543 -21.06042,84.40985 -21.59448,22.35441 -53.47455,31.49022 -83.63128,23.96607 -30.15673,-7.52417 -54.00862,-30.56521 -62.57086,-60.44379 -8.56226,-29.87858 -0.53407,-62.05543 21.06042,-84.409835 21.59447,-22.35442 53.47454,-31.49023 83.63128,-23.96607 30.15672,7.52416 54.0086,30.5652 62.57086,60.443775 0,0 0,0 0,0"
       inkscape:connector-curvature="0" />
    <path
       inkscape:connector-curvature="0"
       style="fill:#000000;fill-opacity:1;stroke:none"
       d="m 513.4549,46.767325 c -0.28177,0.0883 -0.55826,0.20361 -0.82728,0.34703 -4.30437,2.29455 -3.50718,9.93373 -3.35958,13.65415 0.14499,3.65499 -1.26656,11.52947 -3.31603,13.64167 -0.003,0.003 -0.0117,0.001 -0.0145,0.004 -0.14176,0.11183 -0.27955,0.2278 -0.42076,0.34048 -0.0124,0.01 -0.027,0.0171 -0.0394,0.027 -2.52272,1.5657 -10.70916,1.27554 -14.22163,0.30575 -3.58905,-0.99095 -10.82952,-3.49798 -14.03922,0.17493 -3.2097,3.67291 0.34099,10.76318 1.91516,14.1374 1.54143,3.30407 3.1834,11.324445 2.05198,14.066755 -0.005,0.0127 -0.0153,0.0248 -0.0207,0.0374 -0.0848,0.15237 -0.1791,0.29959 -0.26305,0.45236 -0.004,0.006 -0.006,0.0126 -0.0103,0.0186 -1.73107,2.37288 -9.27246,5.09475 -12.90668,5.55209 -3.69422,0.46488 -11.35159,0.91575 -12.91084,5.53758 -1.55924,4.62183 4.45197,9.80593 7.19222,12.32671 2.69575,2.47985 7.25575,9.06397 7.28737,12.00102 2.5e-4,0.0216 0.002,0.041 0.002,0.0622 -0.0192,0.16314 -0.0455,0.32628 -0.0639,0.48953 -0.62422,2.87803 -6.64186,8.50838 -9.83123,10.30965 -3.24203,1.831 -10.25374,5.51907 -9.7814,10.3739 0.47233,4.85483 7.82613,7.03104 11.32059,8.31637 3.43771,1.26445 10.32394,5.83618 11.40999,8.57347 0.002,0.005 0.002,0.01 0.004,0.0145 0.01,0.0338 0.0194,0.0678 0.0291,0.1016 0.0332,0.11602 0.0662,0.23253 0.0998,0.34837 0.004,0.0202 0.0132,0.0374 0.0166,0.058 0.44778,2.90222 -2.97428,10.13182 -5.22051,13.02511 -2.28332,2.94105 -7.36836,8.68184 -5.19768,13.04998 2.17067,4.36814 10.07151,3.78275 13.79124,3.61873 3.65933,-0.16134 11.74568,1.42724 13.79948,3.53783 0.10208,0.12874 0.21078,0.25318 0.31349,0.38138 0.0114,0.0178 0.0199,0.0355 0.0311,0.0539 1.52875,2.50802 1.14809,10.50798 0.17493,14.03921 -0.98924,3.58954 -3.34235,11.1706 0.42814,14.26509 3.7705,3.0945 10.50445,-0.57874 13.88419,-2.14102 3.30948,-1.52981 11.0875,-3.22693 13.84683,-2.16174 0.0128,0.005 0.0247,0.0157 0.0374,0.0207 0.16148,0.0904 0.32348,0.17972 0.48554,0.26925 0.0124,0.007 0.0249,0.0138 0.0374,0.0207 2.41214,1.72685 5.26731,9.39956 5.70981,13.01855 0.45189,3.69583 1.19542,11.59054 5.86328,13.00599 4.66786,1.41545 9.48155,-4.54591 12.00102,-7.28737 2.46571,-2.68295 9.25594,-7.26495 12.22502,-7.27303 0.0155,8e-5 0.0324,0.002 0.0477,0.002 0.17942,0.0208 0.3578,0.0462 0.53724,0.0659 0.005,4.8e-4 0.01,-0.005 0.0145,-0.004 2.85713,0.70613 8.22508,6.63782 10.03793,9.81485 1.8453,3.23392 5.21514,10.13586 10.08147,9.80238 4.86635,-0.33349 7.34409,-7.86202 8.61915,-11.36024 1.25436,-3.44141 5.82164,-10.31911 8.55897,-11.40582 0.0432,-0.0123 0.0874,-0.025 0.13064,-0.0374 0.0432,-0.0144 0.0885,-0.0259 0.13063,-0.0375 2.69785,-0.72612 10.32109,2.81403 13.30089,5.14148 2.93435,2.29195 9.02344,7.36549 13.32781,5.07094 4.30436,-2.29455 3.49266,-9.92957 3.34506,-13.64999 -0.14499,-3.65499 1.26656,-11.52947 3.31604,-13.64168 0.004,-0.003 0.0108,-9.6e-4 0.0145,-0.004 0.14174,-0.11178 0.27958,-0.22785 0.42077,-0.34047 0.008,-0.005 0.0163,-0.0174 0.0249,-0.0228 2.50706,-1.57506 10.71744,-1.28142 14.23615,-0.3099 3.58905,0.99094 10.82951,3.49797 14.03921,-0.17494 3.2097,-3.67291 -0.34099,-10.76318 -1.91515,-14.13739 -1.54144,-3.30408 -3.18341,-11.32446 -2.05199,-14.06677 0.005,-0.0127 0.0154,-0.0248 0.0207,-0.0373 0.0901,-0.16178 0.18017,-0.32331 0.26925,-0.48555 0.008,-0.0109 0.0125,-0.0264 0.0207,-0.0374 1.77634,-2.365 9.2727,-5.045 12.89013,-5.50022 3.69421,-0.46488 11.35159,-0.91575 12.91084,-5.53758 1.55924,-4.62183 -4.45197,-9.80593 -7.19222,-12.32672 -2.74228,-2.52264 -7.39547,-9.29114 -7.26675,-12.14829 0.0157,-0.13425 0.026,-0.27014 0.0412,-0.40447 0.62422,-2.87803 6.65637,-8.51253 9.84574,-10.31381 3.24203,-1.83101 10.25374,-5.51907 9.7814,-10.3739 -0.47233,-4.85483 -7.84065,-7.02688 -11.33511,-8.3122 -3.4377,-1.26446 -10.32393,-5.83619 -11.40998,-8.57348 -0.0157,-0.0391 -0.0202,-0.0777 -0.0333,-0.11612 -0.0111,-0.0387 -0.0221,-0.0775 -0.0333,-0.11613 -0.52857,-2.89704 2.8911,-10.42212 5.13732,-13.31541 2.28332,-2.94104 7.38287,-8.686 5.2122,-13.054125 -2.17068,-4.36815 -10.07151,-3.78275 -13.79125,-3.61873 -3.65932,0.16134 -11.76019,-1.42309 -13.81399,-3.53368 -0.084,-0.10592 -0.16473,-0.21572 -0.24914,-0.32128 -1.62245,-2.35532 -1.26039,-10.56103 -0.27043,-14.15321 0.98923,-3.58954 3.34234,-11.17059 -0.42815,-14.26509 -3.7705,-3.0945 -10.50445,0.57874 -13.88418,2.14102 -3.32485,1.53691 -11.16323,3.22241 -13.88834,2.12652 -0.007,-0.003 -0.0114,-0.007 -0.0186,-0.0103 -0.15213,-0.0851 -0.31008,-0.16005 -0.46271,-0.24438 -0.0112,-0.008 -0.0261,-0.0127 -0.0374,-0.0207 -2.41214,-1.72684 -5.26731,-9.39955 -5.70981,-13.01855 -0.45189,-3.69582 -1.19542,-11.59053 -5.86328,-13.00599 -4.66787,-1.41545 -9.48155,4.54592 -12.00102,7.28737 -2.47008,2.68772 -9.27878,7.28535 -12.23953,7.27719 -0.0102,-1e-4 -0.0231,-0.006 -0.0332,-0.006 -0.1794,-0.0208 -0.35782,-0.0461 -0.53723,-0.0659 -0.005,-4.8e-4 -0.01,0.005 -0.0145,0.004 -2.85712,-0.70613 -8.22508,-6.63782 -10.03793,-9.81485 -1.8453,-3.23392 -5.20062,-10.14002 -10.06696,-9.80654 -4.86635,0.33349 -7.34409,7.86202 -8.61915,11.36024 -1.24219,3.40803 -5.74498,10.18391 -8.49054,11.37051 -0.068,0.0193 -0.13528,0.0387 -0.20322,0.0582 -0.11646,0.0334 -0.23202,0.066 -0.34836,0.0998 -0.0203,0.004 -0.0374,0.0132 -0.0581,0.0166 -2.90245,0.44954 -10.13427,-2.95128 -13.02095,-5.206 -2.75094,-2.1487 -8.27416,-6.74321 -12.50052,-5.41797 z m 27.30056,15.29751 c 15.32391,-4.39135 31.77424,-4.8213 47.7796,-0.82793 32.01073,7.98673 57.32795,32.43688 66.4166,64.152355 9.08864,31.71547 0.56385,65.86366 -22.35824,89.5924 -22.92207,23.72874 -56.74959,33.42263 -88.76031,25.43588 -32.01073,-7.98673 -57.32795,-32.43688 -66.4166,-64.15236 -9.08865,-31.71547 -0.56385,-65.86366 22.35823,-89.592395 11.46104,-11.86437 25.6568,-20.21661 40.98072,-24.60795 z"
       id="path9823" />
    <text
       xml:space="preserve"
       style="font-size:24.47576332px;font-style:normal;font-weight:normal;line-height:125%;letter-spacing:0px;word-spacing:0px;fill:#000000;fill-opacity:1;stroke:none;font-family:Sans"
       x="544.61725"
       y="254.53629"
       id="text3812"
       sodipodi:linespacing="125%"
       transform="matrix(0.75909493,-0.21753248,0.34886385,1.217385,0,0)"><tspan
         sodipodi:role="line"
         id="tspan3814"
         x="544.61725"
         y="254.53629"
         style="font-size:61.18940735px;font-style:normal;font-variant:normal;font-weight:bold;font-stretch:normal;font-family:DejaVu Sans Mono;-inkscape-font-specification:DejaVu Sans Mono Bold">&lt;pdf&gt;</tspan></text>
    <path
       style="font-size:medium;font-style:normal;font-variant:normal;font-weight:normal;font-stretch:normal;text-indent:0;text-align:start;text-decoration:none;line-height:normal;letter-spacing:normal;word-spacing:normal;text-transform:none;direction:ltr;block-progression:tb;writing-mode:lr-tb;text-anchor:start;baseline-shift:baseline;color:#000000;fill:url(#linearGradient5071);fill-opacity:1;stroke:none;stroke-width:16.02945137;marker:none;visibility:visible;display:inline;overflow:visible;enable-background:accumulate;font-family:Sans;-inkscape-font-specification:Sans"
       d="m 333.28125,364.9375 c -10.82975,0.74216 -16.34994,17.49618 -19.1875,25.28125 -2.76441,7.58435 -12.79618,22.6718 -18.90625,25.3125 -0.15133,0.0429 -0.2863,0.0816 -0.4375,0.125 -0.25917,0.0743 -0.52235,0.14353 -0.78125,0.21875 -0.0452,0.009 -0.0789,0.055 -0.125,0.0625 -6.45922,1.00043 -22.54462,-6.57601 -28.96875,-11.59375 -6.12204,-4.78179 -18.43825,-15.01174 -27.84375,-12.0625 -0.61751,0.19535 -1.22261,0.46677 -1.8125,0.78125 -9.5791,5.10637 -7.82847,22.09544 -7.5,30.375 0.32267,8.13395 -2.81404,25.67443 -7.375,30.375 -0.007,0.007 -0.0249,-0.007 -0.0312,0 -0.31548,0.24887 -0.62324,0.49923 -0.9375,0.75 -0.0276,0.0222 -0.0661,0.0404 -0.0937,0.0625 -5.61415,3.48437 -23.80822,2.84571 -31.625,0.6875 -7.9872,-2.2053 -24.10702,-7.79883 -31.25,0.375 -7.14298,8.17382 0.74678,23.95964 4.25,31.46875 3.43035,7.353 7.0804,25.20966 4.5625,31.3125 -0.0111,0.0283 -0.0192,0.0657 -0.0312,0.0937 -0.18872,0.33909 -0.40693,0.66002 -0.59375,1 -0.009,0.0134 -0.0217,0.0178 -0.0312,0.0312 -3.85239,5.2807 -20.63102,11.32597 -28.71875,12.34375 -8.22125,1.03457 -25.24874,2.05816 -28.71875,12.34375 -3.46999,10.28558 9.90175,21.82767 16,27.4375 5.99922,5.51875 16.14838,20.15128 16.21875,26.6875 5.5e-4,0.0481 0,0.10903 0,0.15625 -0.0427,0.36306 -0.084,0.73045 -0.125,1.09375 -1.38916,6.40487 -14.80851,18.92889 -21.90625,22.9375 -7.21493,4.07477 -22.801163,12.28964 -21.75,23.09375 1.05114,10.80412 17.41081,15.63958 25.1875,18.5 7.65041,2.81395 22.98932,12.97083 25.40625,19.0625 0.004,0.0111 -0.005,0.0212 0,0.0312 0.0223,0.0752 0.0409,0.17478 0.0625,0.25 0.0739,0.2582 0.14398,0.4922 0.21875,0.75 0.009,0.045 0.0238,0.11038 0.0312,0.15625 0.99651,6.45871 -6.62616,22.52991 -11.625,28.96875 -5.08138,6.54511 -16.39321,19.31024 -11.5625,29.03125 4.83069,9.72102 22.40948,8.42751 30.6875,8.0625 8.14361,-0.35905 26.14814,3.17802 30.71875,7.875 0.22717,0.28651 0.45892,0.55845 0.6875,0.84375 0.0254,0.0396 0.0688,0.0841 0.0937,0.125 3.40213,5.58144 2.54071,23.39147 0.375,31.25 -2.20149,7.98829 -7.42223,24.86341 0.96875,31.75 8.39101,6.88661 23.35361,-1.3045 30.875,-4.78125 7.36504,-3.4045 24.67179,-7.18301 30.8125,-4.8125 0.0285,0.0111 0.0656,0.0513 0.0937,0.0625 0.35937,0.20118 0.7331,0.3945 1.09375,0.59375 0.0276,0.0156 0.0347,0.0159 0.0625,0.0312 5.36807,3.843 11.734,20.94617 12.71875,29 1.00565,8.22483 2.67447,25.78751 13.0625,28.9375 10.38802,3.14999 21.08058,-10.1178 26.6875,-16.21875 5.48728,-5.97073 20.61125,-16.16952 27.21875,-16.1875 0.0345,1.7e-4 0.0597,0 0.0937,0 0.39929,0.0463 0.78817,0.11241 1.1875,0.15625 0.0111,10e-4 0.0213,-0.0334 0.0312,-0.0312 6.35836,1.57145 18.30936,14.77347 22.34375,21.84375 4.10659,7.19688 11.60779,22.55464 22.4375,21.8125 10.82975,-0.74216 16.34993,-17.49619 19.1875,-25.28125 2.79149,-7.65864 12.97074,-22.95659 19.0625,-25.375 0.0961,-0.0274 0.18502,-0.0661 0.28125,-0.0937 0.0961,-0.032 0.18749,-0.0367 0.28125,-0.0625 6.00389,-1.61594 22.9624,6.25791 29.59375,11.4375 6.53021,5.10059 20.1084,16.38762 29.6875,11.28125 9.57908,-5.10638 7.76598,-22.09544 7.4375,-30.375 -0.32266,-8.13394 2.81401,-25.64316 7.375,-30.34375 0.009,-0.007 0.0229,-0.0243 0.0312,-0.0312 0.31543,-0.24876 0.62329,-0.49937 0.9375,-0.75 0.0178,-0.0111 0.0434,-0.0505 0.0625,-0.0625 5.5793,-3.5052 23.82559,-2.84955 31.65625,-0.6875 7.98721,2.20528 24.10702,7.79882 31.25,-0.375 7.14298,-8.17383 -0.74681,-23.95966 -4.25,-31.46875 -3.43038,-7.35302 -7.0804,-25.20966 -4.5625,-31.3125 0.0111,-0.0283 0.0195,-0.0347 0.0312,-0.0625 0.20051,-0.36003 0.39551,-0.73269 0.59375,-1.09375 0.0178,-0.0242 0.0442,-0.0693 0.0625,-0.0937 3.95313,-5.26315 20.63714,-11.20568 28.6875,-12.21875 8.22123,-1.03456 25.24874,-2.05816 28.71875,-12.34375 3.46999,-10.28559 -9.90174,-21.79639 -16,-27.40625 -6.10277,-5.61397 -16.4427,-20.70409 -16.15625,-27.0625 0.0349,-0.29876 0.0599,-0.57605 0.0937,-0.875 1.38916,-6.40487 14.80851,-18.96011 21.90625,-22.96875 7.21493,-4.07479 22.80117,-12.28963 21.75,-23.09375 -1.05114,-10.80411 -17.44205,-15.6396 -25.21875,-18.5 -7.65039,-2.81398 -22.98931,-12.97083 -25.40625,-19.0625 -0.0349,-0.087 -0.0333,-0.1645 -0.0625,-0.25 -0.0247,-0.0861 -0.0376,-0.19528 -0.0625,-0.28125 -1.1763,-6.44718 6.43868,-23.18617 11.4375,-29.625 5.08138,-6.5451 16.42443,-19.3415 11.59375,-29.0625 -4.83071,-9.72104 -22.40946,-8.39626 -30.6875,-8.03125 -8.14359,0.35905 -26.1794,-3.17802 -30.75,-7.875 -0.18693,-0.23572 -0.37465,-0.48383 -0.5625,-0.71875 -3.61066,-5.24161 -2.79684,-23.50584 -0.59375,-31.5 2.20147,-7.9883 7.42224,-24.86339 -0.96875,-31.75 -8.39101,-6.88662 -23.35362,1.30449 -30.875,4.78125 -7.39924,3.42029 -24.84169,7.15759 -30.90625,4.71875 -0.0156,-0.007 -0.0465,0.007 -0.0625,0 -0.33855,-0.18938 -0.69158,-0.37483 -1.03125,-0.5625 -0.0249,-0.0178 -0.0374,-0.0134 -0.0625,-0.0312 -5.36806,-3.84297 -11.73399,-20.9149 -12.71875,-28.96875 -1.00565,-8.22481 -2.67448,-25.81874 -13.0625,-28.96875 -10.38805,-3.15 -21.08058,10.11783 -26.6875,16.21875 -5.49701,5.98135 -20.66103,16.23691 -27.25,16.21875 -0.0227,-2.3e-4 -0.04,-0.0312 -0.0625,-0.0312 -0.39924,-0.0463 -0.78824,-0.0809 -1.1875,-0.125 -0.0111,-10e-4 -0.0213,0.002 -0.0312,0 -6.35834,-1.57145 -18.30937,-14.77348 -22.34375,-21.84375 -4.1066,-7.19689 -11.57652,-22.58589 -22.40625,-21.84375 z M 353.75,418.375 c 16.77135,-0.0542 33.67864,1.95922 50.375,6.125 71.23784,17.77396 127.58629,72.16922 147.8125,142.75 20.22619,70.58076 1.26165,146.5682 -49.75,199.375 -51.01161,52.8068 -126.29345,74.39901 -197.53125,56.625 -71.23784,-17.77396 -127.58629,-72.20047 -147.8125,-142.78125 -20.22621,-70.58076 -1.26163,-146.5682 49.75,-199.375 25.50581,-26.4034 57.11634,-45.0086 91.21875,-54.78125 18.11688,-5.19173 36.92997,-7.87603 55.9375,-7.9375 z m 0,3.875 c -1.09756,0.003 -2.18519,0.01 -3.28125,0.0312 -52.61105,1.02941 -103.56555,22.65111 -141.09375,61.5 -50.03765,51.79849 -68.65253,126.39188 -48.8125,195.625 19.83999,69.23312 75.15362,122.65913 145.03125,140.09375 69.87761,17.43457 143.77487,-3.764 193.8125,-55.5625 50.03762,-51.79851 68.65251,-126.39189 48.8125,-195.625 -19.84003,-69.23312 -75.12239,-122.6279 -145,-140.0625 -16.37757,-4.08623 -33.00535,-6.05219 -49.46875,-6 z m 3.09375,16 c 14.15452,0.18903 28.39303,2.01933 42.46875,5.53125 64.34611,16.05448 115.23051,65.18486 133.5,128.9375 18.26947,63.75263 1.13916,132.3956 -44.9375,180.09375 -46.07665,47.69814 -114.06014,67.17945 -178.40625,51.125 C 245.12262,787.883 194.2382,738.75264 175.96875,675 c -18.26949,-63.75264 -1.13917,-132.39562 44.9375,-180.09375 34.55748,-35.77362 81.44731,-55.68243 129.875,-56.625 2.01782,-0.0393 4.04043,-0.0582 6.0625,-0.0312 z m 60.3125,80.8125 -12.15625,3.5 c -7.67186,2.19866 -12.34848,5.79352 -13.96875,10.8125 -1.62027,5.01924 -0.8425,13.00579 2.28125,23.90625 l 1.8125,6.3125 -13.75,3.90625 5.21875,18.21875 13.75,-3.9375 20.75,72.46875 14.78125,-4.25 -20.75,-72.4375 17.34375,-4.96875 -5.21875,-18.21875 -17.34375,4.96875 -2.28125,-7.9375 c -0.93788,-3.52679 -1.21528,-6.04549 -0.8125,-7.5625 0.43642,-1.52643 1.77919,-2.61347 4,-3.25 l 11.5625,-3.3125 -5.21875,-18.21875 z m -62.1875,17.84375 -14.75,4.21875 13.8125,48.15625 c -3.25521,-4.49779 -6.45971,-7.64936 -9.59375,-9.4375 -3.11586,-1.85154 -6.19038,-2.33648 -9.21875,-1.46875 -6.69605,1.91898 -10.68525,7.50628 -11.96875,16.75 -1.24983,9.23425 0.32695,21.51824 4.71875,36.84375 4.32998,15.10974 9.48927,26.30555 15.4375,33.59375 5.94821,7.28823 12.1332,10.00762 18.59375,8.15625 3.39847,-0.97391 5.95521,-3.14224 7.6875,-6.5 1.76586,-3.36738 2.69975,-7.90609 2.78125,-13.59375 l 3.84375,13.4375 14.75,-4.21875 -36.09375,-125.9375 z m 82.96875,9.5 5.78125,20.25 46.75,11.5625 -33.5625,34.40625 5.78125,20.15625 43.71875,-48.875 -5.46875,-19.125 -63,-18.375 z M 288.5,592.25 c -1.19334,0.0258 -2.3824,0.18414 -3.59375,0.53125 -3.39851,0.97401 -5.9841,3.16395 -7.75,6.53125 -1.76589,3.36749 -2.67095,7.8846 -2.71875,13.5625 l -3.90625,-13.59375 -14.71875,4.21875 35.84375,125.15625 14.75,-4.25 -13.5625,-47.25 c 3.27063,4.55185 6.47785,7.7421 9.59375,9.59375 3.13401,1.78805 6.22159,2.24283 9.25,1.375 6.69601,-1.91888 10.65636,-7.48457 11.90625,-16.71875 1.28345,-9.24379 -0.26448,-21.51814 -4.65625,-36.84375 -4.33001,-15.10963 -9.45807,-26.33668 -15.40625,-33.625 -4.83295,-5.9216 -9.86013,-8.79933 -15.03125,-8.6875 z m 57.71875,4.46875 c 2.80542,-0.2163 5.63578,1.62007 8.5,5.5 3.27335,4.43435 6.18229,11.00802 8.6875,19.75 2.50517,8.74209 3.55294,15.88009 3.125,21.375 -0.42799,5.495 -2.24091,8.67772 -5.4375,9.59375 -3.19663,0.91606 -6.41654,-0.8373 -9.65625,-5.28125 -3.23972,-4.44388 -6.11981,-11.03917 -8.625,-19.78125 -2.50519,-8.74199 -3.55057,-15.85837 -3.15625,-21.34375 0.39432,-5.48525 2.17838,-8.67762 5.375,-9.59375 0.39957,-0.1145 0.78673,-0.18785 1.1875,-0.21875 z m -103.6875,5.6875 -43.6875,48.9375 5.46875,19.125 62.96875,18.28125 -5.75,-20.15625 -46.6875,-11.40625 33.5,-34.5625 -5.8125,-20.21875 z M 287.625,613.3125 c 2.60381,0.0723 5.24271,1.92064 7.875,5.53125 3.2397,4.44399 6.08853,11.03927 8.59375,19.78125 2.50516,8.74211 3.58179,15.85847 3.1875,21.34375 -0.39435,5.48536 -2.20967,8.67774 -5.40625,9.59375 -3.19664,0.91608 -6.41415,-0.84694 -9.6875,-5.28125 -3.27339,-4.43424 -6.18231,-11.0079 -8.6875,-19.75 -2.5052,-8.74198 -3.52172,-15.87997 -3.09375,-21.375 0.42796,-5.49488 2.24089,-8.67763 5.4375,-9.59375 0.59936,-0.17174 1.18037,-0.26669 1.78125,-0.25 z"
       id="path2991-0"
       inkscape:connector-curvature="0" />
    <path
       sodipodi:type="arc"
       style="fill:none;stroke:none;stroke-width:1.20000005000000010;stroke-miterlimit:4;stroke-opacity:0.50196078000000000;stroke-dasharray:2.39999999999999991, 1.19999999999999996;stroke-dashoffset:0"
       id="path2996"
       sodipodi:cx="85.888573"
       sodipodi:cy="197.56636"
       sodipodi:rx="18.112556"
       sodipodi:ry="18.112556"
       d="m 104.00113,197.56636 a 18.112556,18.112556 0 1 1 -36.225114,0 18.112556,18.112556 0 1 1 36.225114,0 z" />
  </g>
</svg>
