<?xml version="1.0" encoding="UTF-8" standalone="no"?>
<!-- Created with Inkscape (http://www.inkscape.org/) -->

<svg
   xmlns:dc="http://purl.org/dc/elements/1.1/"
   xmlns:cc="http://creativecommons.org/ns#"
   xmlns:rdf="http://www.w3.org/1999/02/22-rdf-syntax-ns#"
   xmlns:svg="http://www.w3.org/2000/svg"
   xmlns="http://www.w3.org/2000/svg"
   xmlns:xlink="http://www.w3.org/1999/xlink"
   xmlns:sodipodi="http://sodipodi.sourceforge.net/DTD/sodipodi-0.dtd"
   xmlns:inkscape="http://www.inkscape.org/namespaces/inkscape"
   width="744.09448819"
   height="1052.3622047"
   id="svg2"
   version="1.1"
   inkscape:version="0.48.4 r9939"
   sodipodi:docname="design.svg">
  <title
     id="title3050">pdf2htmlEX logo design</title>
  <sodipodi:namedview
     id="base"
     pagecolor="#ffffff"
     bordercolor="#666666"
     borderopacity="1.0"
     inkscape:pageopacity="0.0"
     inkscape:pageshadow="2"
     inkscape:zoom="0.85575991"
     inkscape:cx="316.32945"
     inkscape:cy="563.24097"
     inkscape:document-units="px"
     inkscape:current-layer="layer1"
     showgrid="false"
     inkscape:window-width="1845"
     inkscape:window-height="1177"
     inkscape:window-x="8"
     inkscape:window-y="31"
     inkscape:window-maximized="0" />
  <defs
     id="defs4">
    <linearGradient
       id="linearGradient3862">
      <stop
         id="stop3864"
         offset="0"
         style="stop-color:#ff81bf;stop-opacity:1;" />
      <stop
         id="stop3866"
         offset="1"
         style="stop-color:#ffc181;stop-opacity:1;" />
    </linearGradient>
    <linearGradient
       id="linearGradient5065">
      <stop
         style="stop-color:#ff00aa;stop-opacity:1;"
         offset="0"
         id="stop5067" />
      <stop
         style="stop-color:#ff870d;stop-opacity:1;"
         offset="1"
         id="stop5069" />
    </linearGradient>
    <linearGradient
       inkscape:collect="always"
       xlink:href="#linearGradient5065"
       id="linearGradient5071"
       x1="531.69116"
       y1="411.99567"
       x2="218.51924"
       y2="839.68573"
       gradientUnits="userSpaceOnUse"
       gradientTransform="translate(-2,-2)" />
    <linearGradient
       inkscape:collect="always"
       xlink:href="#linearGradient5065-9"
       id="linearGradient5071-4"
       x1="531.69116"
       y1="411.99567"
       x2="218.51924"
       y2="839.68573"
       gradientUnits="userSpaceOnUse" />
    <linearGradient
       id="linearGradient5065-9">
      <stop
         style="stop-color:#ff007e;stop-opacity:1;"
         offset="0"
         id="stop5067-1" />
      <stop
         style="stop-color:#ff870d;stop-opacity:1;"
         offset="1"
         id="stop5069-0" />
    </linearGradient>
    <linearGradient
       gradientTransform="translate(-97.511872,-366.91159)"
       y2="839.68573"
       x2="218.51924"
       y1="411.99567"
       x1="531.69116"
       gradientUnits="userSpaceOnUse"
       id="linearGradient3868"
       xlink:href="#linearGradient5065-9"
       inkscape:collect="always" />
    <linearGradient
       inkscape:collect="always"
       xlink:href="#linearGradient5065-9"
       id="linearGradient3826"
       x1="563.24213"
       y1="445.88364"
       x2="216.18213"
       y2="856.04541"
       gradientUnits="userSpaceOnUse"
       gradientTransform="matrix(0.65258781,0,0,0.65258781,-48.394269,62.938515)" />
    <filter
       inkscape:collect="always"
       id="filter3852">
      <feGaussianBlur
         inkscape:collect="always"
         stdDeviation="2.513027"
         id="feGaussianBlur3854" />
    </filter>
    <linearGradient
       inkscape:collect="always"
       xlink:href="#linearGradient3862"
       id="linearGradient3860"
       gradientUnits="userSpaceOnUse"
       gradientTransform="matrix(0.65258781,0,0,0.65258781,282.30596,391.30164)"
       x1="563.24213"
       y1="445.88364"
       x2="216.18213"
       y2="856.04541" />
  </defs>
  <metadata
     id="metadata7">
    <rdf:RDF>
      <cc:Work
         rdf:about="">
        <dc:format>image/svg+xml</dc:format>
        <dc:type
           rdf:resource="http://purl.org/dc/dcmitype/StillImage" />
        <dc:title>pdf2htmlEX logo design</dc:title>
        <cc:license
           rdf:resource="http://creativecommons.org/licenses/by/3.0/" />
        <dc:date>2013-09-27</dc:date>
        <dc:creator>
          <cc:Agent>
            <dc:title>Lu Wang &lt;coolwanglu@gmail.com&gt;</dc:title>
          </cc:Agent>
        </dc:creator>
      </cc:Work>
      <cc:License
         rdf:about="http://creativecommons.org/licenses/by/3.0/">
        <cc:permits
           rdf:resource="http://creativecommons.org/ns#Reproduction" />
        <cc:permits
           rdf:resource="http://creativecommons.org/ns#Distribution" />
        <cc:requires
           rdf:resource="http://creativecommons.org/ns#Notice" />
        <cc:requires
           rdf:resource="http://creativecommons.org/ns#Attribution" />
        <cc:permits
           rdf:resource="http://creativecommons.org/ns#DerivativeWorks" />
      </cc:License>
    </rdf:RDF>
  </metadata>
  <g
     inkscape:label="Layer 1"
     inkscape:groupmode="layer"
     id="layer1">
    <path
       id="path3828"
       d="m 372.34375,398.15625 c -10.51135,0.72034 -15.83962,17.00632 -18.59375,24.5625 -2.68314,7.36137 -12.41332,21.96818 -18.34375,24.53125 -0.14688,0.0417 -0.29075,0.0829 -0.4375,0.125 -0.25155,0.0721 -0.4987,0.14574 -0.75,0.21875 -0.0438,0.009 -0.0803,0.0552 -0.125,0.0625 -6.26932,0.97101 -21.88975,-6.37979 -28.125,-11.25 -5.94205,-4.64121 -17.87103,-14.58128 -27,-11.71875 -0.60863,0.19073 -1.23142,0.44021 -1.8125,0.75 -9.29747,4.95624 -7.56882,21.46387 -7.25,29.5 0.31318,7.89481 -2.72938,24.90638 -7.15625,29.46875 -0.006,0.006 -0.0253,-0.007 -0.0312,0 -0.3062,0.24155 -0.60124,0.50662 -0.90625,0.75 -0.0268,0.0216 -0.067,0.0411 -0.0937,0.0625 -5.44909,3.38192 -23.13179,2.751 -30.71875,0.65625 -7.75237,-2.14046 -23.37953,-7.55851 -30.3125,0.375 -6.93298,7.93351 0.72478,23.24291 4.125,30.53125 3.3295,7.13682 6.88137,24.45159 4.4375,30.375 -0.0108,0.0274 -0.0509,0.0666 -0.0625,0.0937 -0.18316,0.32912 -0.38116,0.63876 -0.5625,0.96875 -0.009,0.013 0.009,0.0182 0,0.0312 -3.73913,5.12544 -20.05631,11.01214 -27.90625,12 -7.97955,1.00414 -24.50701,1.98557 -27.875,11.96875 -3.36797,9.98319 9.61229,21.1801 15.53125,26.625 5.82283,5.3565 15.6817,19.5622 15.75,25.90625 5.4e-4,0.0467 0,0.1105 0,0.15625 -0.0415,0.35239 -0.0853,0.70988 -0.125,1.0625 -1.34832,6.21657 -14.36094,18.35924 -21.25,22.25 -7.00281,3.95497 -22.14526,11.91978 -21.125,22.40625 1.02024,10.48647 16.88944,15.19243 24.4375,17.96875 7.42547,2.73122 22.31037,12.61869 24.65625,18.53125 0.004,0.0108 -0.005,0.0216 0,0.0312 0.0216,0.073 0.0416,0.14574 0.0625,0.21875 0.0717,0.2506 0.14618,0.49979 0.21875,0.75 0.009,0.0436 0.0239,0.0805 0.0312,0.125 0.96721,6.26882 -6.39813,21.87548 -11.25,28.125 -4.93199,6.35269 -15.93868,18.75229 -11.25,28.1875 4.68867,9.43522 21.77786,8.16678 29.8125,7.8125 7.90418,-0.3485 25.34502,3.09737 29.78125,7.65625 0.22049,0.27808 0.46564,0.53559 0.6875,0.8125 0.0246,0.0384 0.0383,0.0853 0.0625,0.125 3.30211,5.41734 2.47703,22.68501 0.375,30.3125 -2.13676,7.75343 -7.20679,24.12838 0.9375,30.8125 8.1443,6.68415 22.69973,-1.25046 30,-4.625 7.1485,-3.3044 23.94608,-6.95707 29.90625,-4.65625 0.0276,0.0108 0.0351,0.0204 0.0625,0.0312 0.3488,0.19527 0.71245,0.40036 1.0625,0.59375 0.0268,0.0151 0.0355,0.0163 0.0625,0.0312 5.21024,3.73001 11.38795,20.30795 12.34375,28.125 0.97608,7.98302 2.57363,25.03637 12.65625,28.09375 10.08261,3.05738 20.49543,-9.82843 25.9375,-15.75 5.32596,-5.79519 19.99302,-15.67005 26.40625,-15.6875 0.0335,1.7e-4 0.0607,0 0.0937,0 0.38754,0.0449 0.76866,0.0824 1.15625,0.125 0.0108,0.001 0.0215,-0.002 0.0312,0 6.17142,1.52524 17.77173,14.35634 21.6875,21.21875 3.98586,6.98529 11.26994,21.87657 21.78125,21.15625 10.51135,-0.72034 15.87086,-16.97507 18.625,-24.53125 2.70943,-7.43347 12.5561,-22.30895 18.46875,-24.65625 0.0933,-0.0266 0.18785,-0.0357 0.28125,-0.0625 0.0933,-0.0311 0.19025,-0.0687 0.28125,-0.0937 5.82738,-1.56843 22.31361,6.09769 28.75,11.125 6.33822,4.95063 19.48378,15.89374 28.78125,10.9375 9.29744,-4.95625 7.53757,-21.43262 7.21875,-29.46875 -0.31318,-7.8948 2.72936,-24.90636 7.15625,-29.46875 0.009,-0.006 0.0232,-0.0243 0.0312,-0.0312 0.30616,-0.24144 0.60127,-0.47549 0.90625,-0.71875 0.0173,-0.0108 0.0439,-0.0508 0.0625,-0.0625 5.41527,-3.40214 23.14956,-2.75474 30.75,-0.65625 7.75237,2.14044 23.41077,7.55851 30.34375,-0.375 6.93297,-7.93351 -0.75605,-23.24294 -4.15625,-30.53125 -3.32952,-7.13684 -6.88138,-24.48284 -4.4375,-30.40625 0.0108,-0.0274 0.0511,-0.0355 0.0625,-0.0625 0.19462,-0.34944 0.37009,-0.71206 0.5625,-1.0625 0.0173,-0.0235 0.0448,-0.0387 0.0625,-0.0625 3.8369,-5.10842 20.03007,-10.92297 27.84375,-11.90625 7.97952,-1.00414 24.507,-1.95431 27.875,-11.9375 3.36796,-9.98318 -9.61229,-21.18008 -15.53125,-26.625 -5.92335,-5.44892 -15.96554,-20.07854 -15.6875,-26.25 0.0339,-0.28999 0.061,-0.58485 0.0937,-0.875 1.34832,-6.21657 14.36094,-18.39047 21.25,-22.28125 7.00281,-3.95499 22.14526,-11.91979 21.125,-22.40625 -1.02023,-10.48647 -16.92069,-15.1612 -24.46875,-17.9375 -7.42545,-2.73124 -22.31037,-12.61869 -24.65625,-18.53125 -0.0339,-0.0845 -0.0342,-0.16702 -0.0625,-0.25 -0.024,-0.0836 -0.0383,-0.16655 -0.0625,-0.25 -1.14172,-6.25762 6.24189,-22.50047 11.09375,-28.75 4.93198,-6.35266 15.93866,-18.78358 11.25,-28.21875 -4.68869,-9.43523 -21.74659,-8.16679 -29.78125,-7.8125 -7.90416,0.34849 -25.40753,-3.06611 -29.84375,-7.625 -0.18144,-0.22878 -0.34893,-0.45949 -0.53125,-0.6875 -3.50451,-5.08751 -2.73207,-22.83461 -0.59375,-30.59375 2.13675,-7.75343 7.20678,-24.12836 -0.9375,-30.8125 -8.14431,-6.68415 -22.66851,1.25047 -29.96875,4.625 -7.1817,3.31974 -24.11375,6.96088 -30,4.59375 -0.0151,-0.006 -0.0469,0.007 -0.0625,0 -0.3286,-0.18381 -0.67032,-0.3491 -1,-0.53125 -0.0242,-0.0173 -0.0381,-0.0452 -0.0625,-0.0625 -5.21024,-3.72999 -11.38795,-20.30794 -12.34375,-28.125 -0.97609,-7.983 -2.57364,-25.03635 -12.65625,-28.09375 -10.08263,-3.05739 -20.49543,9.82845 -25.9375,15.75 -5.33539,5.80549 -20.04226,15.73638 -26.4375,15.71875 -0.022,-2.2e-4 -0.0407,0 -0.0625,0 -0.38751,-0.0449 -0.76873,-0.11351 -1.15625,-0.15625 -0.0108,-10e-4 -0.0215,0.0331 -0.0312,0.0312 -6.1714,-1.52525 -17.77174,-14.35634 -21.6875,-21.21875 -3.98587,-6.98529 -11.23867,-21.90782 -21.75,-21.1875 z M 392.21875,450 c 16.27826,-0.0527 32.70077,1.8942 48.90625,5.9375 69.14341,17.25139 123.8372,70.08811 143.46875,138.59375 19.63153,68.50565 1.19938,142.24575 -48.3125,193.5 C 486.76942,839.2855 413.70586,860.22019 344.5625,842.96875 275.41909,825.71736 220.75655,772.91192 201.125,704.40625 181.49345,635.90061 199.89439,562.12923 249.40625,510.875 c 24.75592,-25.62712 55.43148,-43.63967 88.53125,-53.125 17.58424,-5.03909 35.83255,-7.69033 54.28125,-7.75 z m 0.0625,12.4375 c -1.01787,0.003 -2.04586,0.0113 -3.0625,0.0312 -48.79863,0.95528 -96.06751,21.03005 -130.875,57.0625 -46.41005,48.04321 -63.68294,117.22361 -45.28125,181.4375 18.40164,64.21387 69.71957,113.76686 134.53125,129.9375 64.81167,16.17064 133.33999,-3.45675 179.75,-51.5 C 573.75378,731.36302 591.02668,662.15139 572.625,597.9375 554.22333,533.72364 502.93666,484.17064 438.125,468 c -15.19024,-3.78999 -30.57563,-5.61155 -45.84375,-5.5625 z m 2.8125,17.78125 c 12.90657,0.16943 25.8818,1.82841 38.71875,5.03125 58.68316,14.64156 105.08837,59.45185 121.75,117.59375 16.66164,58.14193 1.05282,120.71842 -40.96875,164.21875 C 472.5722,810.56285 410.55817,828.32906 351.875,813.6875 293.19182,799.04594 246.81785,754.23564 230.15625,696.09375 213.4946,637.95184 229.10341,575.37531 271.125,531.875 c 31.51615,-32.62527 74.27373,-50.76593 118.4375,-51.625 1.84016,-0.0358 3.68745,-0.0555 5.53125,-0.0312 z M 453.75,547.75 l -11.78125,3.375 c -7.44631,2.13401 -11.9586,5.65984 -13.53125,10.53125 -1.57263,4.87167 -0.84441,12.57627 2.1875,23.15625 l 1.75,6.125 -13.34375,3.84375 5.09375,17.65625 13.3125,-3.8125 20.15625,70.3125 14.34375,-4.09375 -20.15625,-70.3125 16.875,-4.84375 L 463.5625,582 l -16.84375,4.84375 -2.1875,-7.71875 c -0.91031,-3.42309 -1.17219,-5.8401 -0.78125,-7.3125 0.42359,-1.48154 1.68823,-2.53843 3.84375,-3.15625 L 458.8125,565.4375 453.75,547.75 z m -60.34375,17.3125 -14.3125,4.09375 13.40625,46.75 c -3.15949,-4.36555 -6.27061,-7.42069 -9.3125,-9.15625 -3.02426,-1.79711 -5.99817,-2.27971 -8.9375,-1.4375 -6.49918,1.86257 -10.37923,7.27804 -11.625,16.25 -1.21308,8.96276 0.33106,20.87508 4.59375,35.75 4.20266,14.66551 9.16416,25.55108 14.9375,32.625 5.77333,7.07396 11.82315,9.7032 18.09375,7.90625 3.29855,-0.94526 5.7874,-3.05346 7.46875,-6.3125 1.71395,-3.26837 2.6084,-7.66707 2.6875,-13.1875 l 3.71875,13.0625 14.3125,-4.09375 -35.03125,-122.25 z m 80.53125,9.21875 5.625,19.65625 45.34375,11.21875 -32.5625,33.40625 5.59375,19.5625 42.4375,-47.46875 -5.3125,-18.53125 -61.125,-17.84375 z m -145.03125,44.5 c -1.15825,0.025 -2.32427,0.19434 -3.5,0.53125 -3.29859,0.94538 -5.81728,3.04421 -7.53125,6.3125 -1.71398,3.26848 -2.5786,7.67652 -2.625,13.1875 l -3.78125,-13.21875 -14.3125,4.09375 34.8125,121.46875 14.3125,-4.09375 -13.15625,-45.875 c 3.17447,4.41804 6.28823,7.51531 9.3125,9.3125 3.04187,1.73548 6.02938,2.18608 8.96875,1.34375 6.49915,-1.86245 10.34935,-7.2873 11.5625,-16.25 1.2457,-8.972 -0.26861,-20.87496 -4.53125,-35.75 -4.2027,-14.66539 -9.19544,-25.55096 -14.96875,-32.625 -4.69086,-5.74749 -9.54342,-8.54604 -14.5625,-8.4375 z m 56.59375,4.3125 c 2.53223,0.0688 5.10607,1.87814 7.6875,5.375 3.1771,4.30398 5.97469,10.67129 8.40625,19.15625 2.43151,8.48507 3.4466,15.41663 3.03125,20.75 -0.41542,5.33342 -2.17865,8.4234 -5.28125,9.3125 -3.10265,0.88913 -6.23055,-0.81172 -9.375,-5.125 -3.14449,-4.31323 -5.94348,-10.70243 -8.375,-19.1875 -2.43155,-8.48496 -3.44523,-15.39464 -3.0625,-20.71875 0.38272,-5.32397 2.11611,-8.42331 5.21875,-9.3125 0.58174,-0.1667 1.16564,-0.26587 1.75,-0.25 z m -101.21875,5.53125 -42.40625,47.53125 5.3125,18.53125 61.125,17.78125 -5.59375,-19.5625 -45.34375,-11.09375 32.53125,-33.53125 -5.625,-19.65625 z m 43.78125,10.59375 c 2.52725,0.0702 5.07009,1.87054 7.625,5.375 3.14444,4.31334 5.91219,10.70253 8.34375,19.1875 2.43151,8.48507 3.47643,15.39474 3.09375,20.71875 -0.38277,5.32408 -2.1474,8.42341 -5.25,9.3125 -3.10265,0.88914 -6.22914,-0.82107 -9.40625,-5.125 -3.17715,-4.30388 -5.97473,-10.67118 -8.40625,-19.15625 -2.43155,-8.48497 -3.44664,-15.41652 -3.03125,-20.75 0.41538,-5.33333 2.17861,-8.4233 5.28125,-9.3125 0.58174,-0.16669 1.16679,-0.2662 1.75,-0.25 z"
       style="font-size:medium;font-style:normal;font-variant:normal;font-weight:normal;font-stretch:normal;text-indent:0;text-align:start;text-decoration:none;line-height:normal;letter-spacing:normal;word-spacing:normal;text-transform:none;direction:ltr;block-progression:tb;writing-mode:lr-tb;text-anchor:start;baseline-shift:baseline;color:#000000;fill:#000000;fill-opacity:0.49803922;stroke:none;stroke-width:17.75944328;marker:none;visibility:visible;display:inline;overflow:visible;filter:url(#filter3852);enable-background:accumulate;font-family:Sans;-inkscape-font-specification:Sans"
       inkscape:connector-curvature="0"
       transform="matrix(0.65258781,0,0,0.65258781,-46.394269,64.938515)" />
    <path
       style="fill:#000000;fill-opacity:1;stroke:none"
       d="m 164.61694,103.36326 0,-3.568112 c -5.71951,0 -19.69374,-12.34415 -23.50863,-19.15334 -3.75668,-6.70531 -9.17223,-21.07506 -19.15784,-21.07506 -9.98562,0 -15.40117,14.36975 -19.15785,21.07506 -3.814893,6.80919 -17.789123,19.15334 -23.508633,19.15334 l 0,3.568112 z"
       id="path2985-0-2"
       inkscape:connector-curvature="0"
       sodipodi:nodetypes="ccsssccc" />
    <path
       style="fill:none;stroke:#000000;stroke-width:8.22193718;stroke-miterlimit:4;stroke-opacity:1;stroke-dasharray:none;stroke-dashoffset:0"
       id="path2991"
       d="m 645.4624,128.10802 c 8.11648,28.32301 0.50626,58.82463 -19.96395,80.0152 -20.4702,21.19058 -50.69049,29.85075 -79.27717,22.71832 -28.58668,-7.13243 -51.19676,-28.97389 -59.31322,-57.29689 -8.11649,-28.32301 -0.50627,-58.82463 19.96395,-80.015192 20.47019,-21.190579 50.69048,-29.850749 79.27717,-22.718321 28.58667,7.132428 51.19674,28.973879 59.31322,57.296883 0,0 0,0 0,0"
       inkscape:connector-curvature="0" />
    <path
       inkscape:connector-curvature="0"
       style="fill:#000000;fill-opacity:1;stroke:none"
       d="m 513.4549,46.767325 c -0.28177,0.0883 -0.55826,0.20361 -0.82728,0.34703 -4.30437,2.29455 -3.50718,9.93373 -3.35958,13.65415 0.14499,3.65499 -1.26656,11.52947 -3.31603,13.64167 -0.003,0.003 -0.0117,0.001 -0.0145,0.004 -0.14176,0.11183 -0.27955,0.2278 -0.42076,0.34048 -0.0124,0.01 -0.027,0.0171 -0.0394,0.027 -2.52272,1.5657 -10.70916,1.27554 -14.22163,0.30575 -3.58905,-0.99095 -10.82952,-3.49798 -14.03922,0.17493 -3.2097,3.67291 0.34099,10.76318 1.91516,14.1374 1.54143,3.30407 3.1834,11.324445 2.05198,14.066755 -0.005,0.0127 -0.0153,0.0248 -0.0207,0.0374 -0.0848,0.15237 -0.1791,0.29959 -0.26305,0.45236 -0.004,0.006 -0.006,0.0126 -0.0103,0.0186 -1.73107,2.37288 -9.27246,5.09475 -12.90668,5.55209 -3.69422,0.46488 -11.35159,0.91575 -12.91084,5.53758 -1.55924,4.62183 4.45197,9.80593 7.19222,12.32671 2.69575,2.47985 7.25575,9.06397 7.28737,12.00102 2.5e-4,0.0216 0.002,0.041 0.002,0.0622 -0.0192,0.16314 -0.0455,0.32628 -0.0639,0.48953 -0.62422,2.87803 -6.64186,8.50838 -9.83123,10.30965 -3.24203,1.831 -10.25374,5.51907 -9.7814,10.3739 0.47233,4.85483 7.82613,7.03104 11.32059,8.31637 3.43771,1.26445 10.32394,5.83618 11.40999,8.57347 0.002,0.005 0.002,0.01 0.004,0.0145 0.01,0.0338 0.0194,0.0678 0.0291,0.1016 0.0332,0.11602 0.0662,0.23253 0.0998,0.34837 0.004,0.0202 0.0132,0.0374 0.0166,0.058 0.44778,2.90222 -2.97428,10.13182 -5.22051,13.02511 -2.28332,2.94105 -7.36836,8.68184 -5.19768,13.04998 2.17067,4.36814 10.07151,3.78275 13.79124,3.61873 3.65933,-0.16134 11.74568,1.42724 13.79948,3.53783 0.10208,0.12874 0.21078,0.25318 0.31349,0.38138 0.0114,0.0178 0.0199,0.0355 0.0311,0.0539 1.52875,2.50802 1.14809,10.50798 0.17493,14.03921 -0.98924,3.58954 -3.34235,11.1706 0.42814,14.26509 3.7705,3.0945 10.50445,-0.57874 13.88419,-2.14102 3.30948,-1.52981 11.0875,-3.22693 13.84683,-2.16174 0.0128,0.005 0.0247,0.0157 0.0374,0.0207 0.16148,0.0904 0.32348,0.17972 0.48554,0.26925 0.0124,0.007 0.0249,0.0138 0.0374,0.0207 2.41214,1.72685 5.26731,9.39956 5.70981,13.01855 0.45189,3.69583 1.19542,11.59054 5.86328,13.00599 4.66786,1.41545 9.48155,-4.54591 12.00102,-7.28737 2.46571,-2.68295 9.25594,-7.26495 12.22502,-7.27303 0.0155,8e-5 0.0324,0.002 0.0477,0.002 0.17942,0.0208 0.3578,0.0462 0.53724,0.0659 0.005,4.8e-4 0.01,-0.005 0.0145,-0.004 2.85713,0.70613 8.22508,6.63782 10.03793,9.81485 1.8453,3.23392 5.21514,10.13586 10.08147,9.80238 4.86635,-0.33349 7.34409,-7.86202 8.61915,-11.36024 1.25436,-3.44141 5.82164,-10.31911 8.55897,-11.40582 0.0432,-0.0123 0.0874,-0.025 0.13064,-0.0374 0.0432,-0.0144 0.0885,-0.0259 0.13063,-0.0375 2.69785,-0.72612 10.32109,2.81403 13.30089,5.14148 2.93435,2.29195 9.02344,7.36549 13.32781,5.07094 4.30436,-2.29455 3.49266,-9.92957 3.34506,-13.64999 -0.14499,-3.65499 1.26656,-11.52947 3.31604,-13.64168 0.004,-0.003 0.0108,-9.6e-4 0.0145,-0.004 0.14174,-0.11178 0.27958,-0.22785 0.42077,-0.34047 0.008,-0.005 0.0163,-0.0174 0.0249,-0.0228 2.50706,-1.57506 10.71744,-1.28142 14.23615,-0.3099 3.58905,0.99094 10.82951,3.49797 14.03921,-0.17494 3.2097,-3.67291 -0.34099,-10.76318 -1.91515,-14.13739 -1.54144,-3.30408 -3.18341,-11.32446 -2.05199,-14.06677 0.005,-0.0127 0.0154,-0.0248 0.0207,-0.0373 0.0901,-0.16178 0.18017,-0.32331 0.26925,-0.48555 0.008,-0.0109 0.0125,-0.0264 0.0207,-0.0374 1.77634,-2.365 9.2727,-5.045 12.89013,-5.50022 3.69421,-0.46488 11.35159,-0.91575 12.91084,-5.53758 1.55924,-4.62183 -4.45197,-9.80593 -7.19222,-12.32672 -2.74228,-2.52264 -7.39547,-9.29114 -7.26675,-12.14829 0.0157,-0.13425 0.026,-0.27014 0.0412,-0.40447 0.62422,-2.87803 6.65637,-8.51253 9.84574,-10.31381 3.24203,-1.83101 10.25374,-5.51907 9.7814,-10.3739 -0.47233,-4.85483 -7.84065,-7.02688 -11.33511,-8.3122 -3.4377,-1.26446 -10.32393,-5.83619 -11.40998,-8.57348 -0.0157,-0.0391 -0.0202,-0.0777 -0.0333,-0.11612 -0.0111,-0.0387 -0.0221,-0.0775 -0.0333,-0.11613 -0.52857,-2.89704 2.8911,-10.42212 5.13732,-13.31541 2.28332,-2.94104 7.38287,-8.686 5.2122,-13.054125 -2.17068,-4.36815 -10.07151,-3.78275 -13.79125,-3.61873 -3.65932,0.16134 -11.76019,-1.42309 -13.81399,-3.53368 -0.084,-0.10592 -0.16473,-0.21572 -0.24914,-0.32128 -1.62245,-2.35532 -1.26039,-10.56103 -0.27043,-14.15321 0.98923,-3.58954 3.34234,-11.17059 -0.42815,-14.26509 -3.7705,-3.0945 -10.50445,0.57874 -13.88418,2.14102 -3.32485,1.53691 -11.16323,3.22241 -13.88834,2.12652 -0.007,-0.003 -0.0114,-0.007 -0.0186,-0.0103 -0.15213,-0.0851 -0.31008,-0.16005 -0.46271,-0.24438 -0.0112,-0.008 -0.0261,-0.0127 -0.0374,-0.0207 -2.41214,-1.72684 -5.26731,-9.39955 -5.70981,-13.01855 -0.45189,-3.69582 -1.19542,-11.59053 -5.86328,-13.00599 -4.66787,-1.41545 -9.48155,4.54592 -12.00102,7.28737 -2.47008,2.68772 -9.27878,7.28535 -12.23953,7.27719 -0.0102,-1e-4 -0.0231,-0.006 -0.0332,-0.006 -0.1794,-0.0208 -0.35782,-0.0461 -0.53723,-0.0659 -0.005,-4.8e-4 -0.01,0.005 -0.0145,0.004 -2.85712,-0.70613 -8.22508,-6.63782 -10.03793,-9.81485 -1.8453,-3.23392 -5.20062,-10.14002 -10.06696,-9.80654 -4.86635,0.33349 -7.34409,7.86202 -8.61915,11.36024 -1.24219,3.40803 -5.74498,10.18391 -8.49054,11.37051 -0.068,0.0193 -0.13528,0.0387 -0.20322,0.0582 -0.11646,0.0334 -0.23202,0.066 -0.34836,0.0998 -0.0203,0.004 -0.0374,0.0132 -0.0581,0.0166 -2.90245,0.44954 -10.13427,-2.95128 -13.02095,-5.206 -2.75094,-2.1487 -8.27416,-6.74321 -12.50052,-5.41797 z m 27.30056,15.29751 c 15.32391,-4.39135 31.77424,-4.8213 47.7796,-0.82793 32.01073,7.98673 57.32795,32.43688 66.4166,64.152355 9.08864,31.71547 0.56385,65.86366 -22.35824,89.5924 -22.92207,23.72874 -56.74959,33.42263 -88.76031,25.43588 -32.01073,-7.98673 -57.32795,-32.43688 -66.4166,-64.15236 -9.08865,-31.71547 -0.56385,-65.86366 22.35823,-89.592395 11.46104,-11.86437 25.6568,-20.21661 40.98072,-24.60795 z"
       id="path9823" />
    <text
       xml:space="preserve"
       style="font-size:24.47576332px;font-style:normal;font-weight:normal;line-height:125%;letter-spacing:0px;word-spacing:0px;fill:#000000;fill-opacity:1;stroke:none;font-family:Sans"
       x="544.61725"
       y="254.53629"
       id="text3812"
       sodipodi:linespacing="125%"
       transform="matrix(0.75909493,-0.21753248,0.34886385,1.217385,0,0)"><tspan
         sodipodi:role="line"
         id="tspan3814"
         x="544.61725"
         y="254.53629"
         style="font-size:61.18940735px;font-style:normal;font-variant:normal;font-weight:bold;font-stretch:normal;font-family:DejaVu Sans Mono;-inkscape-font-specification:DejaVu Sans Mono Bold">&lt;pdf&gt;</tspan></text>
    <path
       style="font-size:medium;font-style:normal;font-variant:normal;font-weight:normal;font-stretch:normal;text-indent:0;text-align:start;text-decoration:none;line-height:normal;letter-spacing:normal;word-spacing:normal;text-transform:none;direction:ltr;block-progression:tb;writing-mode:lr-tb;text-anchor:start;baseline-shift:baseline;color:#000000;fill:url(#linearGradient3826);fill-opacity:1;stroke:none;stroke-width:17.75944328;marker:none;visibility:visible;display:inline;overflow:visible;enable-background:accumulate;font-family:Sans;-inkscape-font-specification:Sans"
       d="m 193.28755,321.46525 c -6.85958,0.47009 -10.33674,11.09812 -12.13405,16.02919 -1.75099,4.80394 -8.10078,14.33617 -11.97091,16.0088 -0.0958,0.0272 -0.18974,0.0541 -0.28551,0.0816 -0.16416,0.047 -0.32544,0.0951 -0.48944,0.14275 -0.0286,0.006 -0.0524,0.036 -0.0816,0.0408 -4.09128,0.63367 -14.28499,-4.16337 -18.35403,-7.34161 -3.87771,-3.0288 -11.66242,-9.51557 -17.61987,-7.64751 -0.39719,0.12446 -0.80361,0.28727 -1.18282,0.48944 -6.06742,3.23438 -4.93932,14.00706 -4.73126,19.25134 0.20438,5.15205 -1.78116,16.2536 -4.67008,19.23094 -0.004,0.004 -0.0165,-0.005 -0.0204,0 -0.19982,0.15764 -0.39236,0.33062 -0.5914,0.48944 -0.0175,0.0141 -0.0437,0.0268 -0.0612,0.0408 -3.55601,2.207 -15.09553,1.79527 -20.04669,0.42826 -5.059103,-1.39684 -15.257193,-4.93259 -19.781563,0.24472 -4.52438,5.17731 0.47298,15.16804 2.69192,19.92432 2.17279,4.65741 4.4907,15.95681 2.89586,19.82236 -0.007,0.0179 -0.0332,0.0434 -0.0408,0.0612 -0.11953,0.21478 -0.24874,0.41685 -0.36708,0.63219 -0.006,0.008 0.006,0.0119 0,0.0204 -2.44011,3.3448 -13.088501,7.18638 -18.211281,7.83105 -5.20735,0.65529 -15.99297,1.29576 -18.19088,7.81066 -2.1979,6.51491 6.27286,13.82188 10.1355,17.37515 3.79991,3.49559 10.23369,12.76605 10.27826,16.9061 3.5e-4,0.0305 0,0.0721 0,0.10197 -0.0271,0.22997 -0.0557,0.46326 -0.0816,0.69338 -0.8799,4.05685 -9.37178,11.98101 -13.86749,14.52007 -4.56995,2.58097 -14.45173,7.77871 -13.78592,14.62205 0.66579,6.84334 11.02184,9.91439 15.94761,11.72619 4.84577,1.78236 14.55948,8.2348 16.090371,12.09326 0.003,0.007 -0.003,0.0141 0,0.0204 0.0141,0.0476 0.0272,0.0951 0.0408,0.14275 0.0468,0.16354 0.0954,0.32616 0.14275,0.48944 0.006,0.0285 0.0156,0.0526 0.0204,0.0816 0.63119,4.09095 -4.175341,14.27567 -7.341611,18.35403 -3.21855,4.14569 -10.40139,12.23751 -7.34161,18.39482 3.05977,6.15731 14.211961,5.32954 19.455271,5.09834 5.15817,-0.22743 16.53985,2.02131 19.434883,4.99637 0.14389,0.18148 0.30387,0.34952 0.44866,0.53023 0.016,0.0251 0.025,0.0557 0.0408,0.0816 2.15492,3.53529 1.61648,14.80396 0.24472,19.78156 -1.39442,5.0598 -4.703063,15.74589 0.61181,20.10787 5.31487,4.36199 14.81356,-0.81604 19.57763,-3.01822 4.66502,-2.15641 15.62692,-4.5401 19.51645,-3.03861 0.018,0.007 0.0229,0.0133 0.0408,0.0204 0.22762,0.12743 0.46494,0.26127 0.69338,0.38747 0.0175,0.01 0.0232,0.0107 0.0408,0.0204 3.40014,2.43415 7.43164,13.25272 8.05538,18.35403 0.63698,5.20962 1.67952,16.33843 8.25932,18.33364 6.57979,1.99521 13.37507,-6.41392 16.92649,-10.27826 3.47566,-3.78187 13.04721,-10.22608 17.2324,-10.23747 0.0219,1.1e-4 0.0396,0 0.0612,0 0.2529,0.0293 0.50162,0.0538 0.75456,0.0816 0.007,6.5e-4 0.0141,-10e-4 0.0204,0 4.02739,0.99535 11.59761,9.36877 14.153,13.8471 2.60112,4.55851 7.35462,14.27638 14.21418,13.80631 6.85957,-0.47009 10.35713,-11.07772 12.15444,-16.0088 1.76814,-4.85099 8.19396,-14.55854 12.05248,-16.09036 0.0609,-0.0174 0.12259,-0.0233 0.18354,-0.0408 0.0609,-0.0203 0.12416,-0.0448 0.18355,-0.0612 3.80287,-1.02354 14.56159,3.97928 18.76189,7.26004 4.13625,3.23072 12.71488,10.37206 18.7823,7.13768 6.06739,-3.23439 4.91892,-13.98667 4.71087,-19.23095 -0.20438,-5.15205 1.78114,-16.25359 4.67008,-19.23095 0.006,-0.004 0.0152,-0.0158 0.0204,-0.0204 0.1998,-0.15756 0.39238,-0.3103 0.59141,-0.46905 0.0113,-0.007 0.0287,-0.0332 0.0408,-0.0408 3.53393,-2.2202 15.10712,-1.79771 20.06707,-0.42826 5.0591,1.39682 15.27758,4.93259 19.80196,-0.24472 4.52437,-5.17732 -0.49339,-15.16806 -2.71232,-19.92433 -2.1728,-4.65741 -4.4907,-15.9772 -2.89585,-19.84274 0.007,-0.0179 0.0333,-0.0232 0.0408,-0.0408 0.12701,-0.22804 0.24152,-0.46468 0.36708,-0.69338 0.0113,-0.0153 0.0292,-0.0253 0.0408,-0.0408 2.50391,-3.33369 13.07138,-7.1282 18.17049,-7.76988 5.20734,-0.65529 15.99297,-1.27535 18.19089,-7.79026 2.19789,-6.5149 -6.27287,-13.82186 -10.13551,-17.37515 -3.8655,-3.5559 -10.41891,-13.10301 -10.23747,-17.13043 0.0221,-0.18925 0.0398,-0.38167 0.0612,-0.57102 0.8799,-4.05686 9.37178,-12.00139 13.86749,-14.54047 4.56995,-2.58098 14.45173,-7.77871 13.78592,-14.62205 -0.66579,-6.84334 -11.04224,-9.89401 -15.96801,-11.70579 -4.84576,-1.78237 -14.55947,-8.2348 -16.09037,-12.09327 -0.0221,-0.0551 -0.0223,-0.10899 -0.0408,-0.16314 -0.0157,-0.0546 -0.025,-0.10869 -0.0408,-0.16315 -0.74507,-4.08365 4.07338,-14.68353 7.23965,-18.7619 3.21855,-4.14567 10.40137,-12.25794 7.34161,-18.41521 -3.05978,-6.15732 -14.19156,-5.32955 -19.43488,-5.09835 -5.15816,0.22743 -16.58065,-2.0009 -19.47567,-4.97598 -0.11841,-0.1493 -0.22771,-0.29985 -0.34669,-0.44865 -2.287,-3.32005 -1.78291,-14.90159 -0.38747,-19.96511 1.39442,-5.05979 4.70306,-15.74587 -0.6118,-20.10786 -5.31488,-4.362 -14.7932,0.81604 -19.55724,3.01822 -4.68669,2.16642 -15.73634,4.54258 -19.57764,2.99782 -0.01,-0.004 -0.0306,0.005 -0.0408,0 -0.21444,-0.11995 -0.43745,-0.22782 -0.65259,-0.34668 -0.0158,-0.0113 -0.0249,-0.0295 -0.0408,-0.0408 -3.40014,-2.43415 -7.43164,-13.25272 -8.05538,-18.35403 -0.63698,-5.20961 -1.67953,-16.33842 -8.25931,-18.33364 -6.57981,-1.99522 -13.37507,6.41392 -16.9265,10.27826 -3.48181,3.78859 -13.07933,10.26937 -17.25279,10.25786 -0.0144,-1.4e-4 -0.0266,0 -0.0408,0 -0.25288,-0.0293 -0.50166,-0.0741 -0.75455,-0.10197 -0.007,-6.5e-4 -0.0141,0.0216 -0.0204,0.0204 -4.02738,-0.99536 -11.59762,-9.36878 -14.15299,-13.8471 -2.60113,-4.55852 -7.33422,-14.29678 -14.19379,-13.82671 z m 12.97018,33.8326 c 10.623,-0.0344 21.34013,1.23614 31.91563,3.87474 45.12214,11.25805 80.81464,45.73865 93.62595,90.4446 12.8113,44.70595 0.78271,92.82784 -31.52814,126.27574 -32.31082,33.4479 -79.99121,47.10962 -125.11332,35.85154 -45.12215,-11.25805 -80.794263,-45.71823 -93.605573,-90.4242 -12.811311,-44.70594 -0.80308,-92.84825 31.507763,-126.29613 16.15541,-16.72395 36.17391,-28.47872 57.77441,-34.66873 11.47526,-3.28845 23.38389,-5.01862 35.42328,-5.05756 z m 0.0408,8.11656 c -0.66425,0.002 -1.3351,0.007 -1.99855,0.0204 -31.84539,0.6234 -62.69248,13.72395 -85.40743,37.23829 -30.286633,31.35241 -41.558713,76.4987 -29.549993,118.4039 12.008693,41.90519 45.498143,74.24287 87.793453,84.79563 42.29531,10.55276 87.01606,-2.25583 117.30266,-33.60827 30.28662,-31.35243 41.55871,-76.51909 29.54999,-118.4243 -12.0087,-41.90518 -45.47776,-74.24286 -87.77306,-84.79563 -9.91296,-2.4733 -19.95328,-3.66202 -29.91707,-3.63002 z m 1.8354,11.60383 c 8.42267,0.11057 16.89015,1.1932 25.26739,3.28333 38.29591,9.55491 68.57939,38.79756 79.45256,76.74025 10.87319,37.94272 0.68706,78.77937 -26.7357,107.16716 -27.42275,28.38779 -67.89235,39.98181 -106.18827,30.4269 -38.29593,-9.5549 -68.55902,-38.79756 -79.43218,-76.74024 -10.873193,-37.94271 -0.68707,-78.77939 26.73571,-107.16716 20.56705,-21.29085 48.47013,-33.12923 77.29087,-33.68984 1.20086,-0.0234 2.40638,-0.0362 3.60962,-0.0204 z m 38.27836,44.07007 -7.6883,2.20249 c -4.85937,1.39263 -7.80404,3.69354 -8.83033,6.87256 -1.02628,3.17919 -0.55105,8.20712 1.42754,15.11149 l 1.14202,3.9971 -8.70796,2.50838 3.32411,11.52226 8.68758,-2.48799 13.15372,45.88508 9.36056,-2.67154 -13.15372,-45.88508 11.01242,-3.16097 -3.32412,-11.54264 -10.99203,3.16097 -1.42754,-5.03716 c -0.59405,-2.23387 -0.76495,-3.81118 -0.50983,-4.77205 0.27643,-0.96684 1.10172,-1.65655 2.50838,-2.05973 l 7.32122,-2.10052 -3.30372,-11.54265 z m -39.3796,11.29793 -9.34016,2.67153 8.74875,30.50848 c -2.06184,-2.8489 -4.09212,-4.84265 -6.07722,-5.97526 -1.97359,-1.17277 -3.91433,-1.48771 -5.8325,-0.93809 -4.24129,1.21549 -6.77336,4.74956 -7.58634,10.60455 -0.79164,5.84899 0.21605,13.62282 2.99783,23.33001 2.7426,9.57054 5.98042,16.67433 9.74803,21.29068 3.7676,4.61638 7.71564,6.33219 11.80776,5.15952 2.15259,-0.61686 3.77679,-1.99265 4.87402,-4.11946 1.1185,-2.13289 1.70221,-5.00343 1.75383,-8.606 l 2.42681,8.52443 9.34016,-2.67153 -22.86097,-79.77886 z m 52.55371,6.01604 3.67081,12.82743 29.59078,7.32122 -21.24989,21.80051 3.65041,12.76625 27.6942,-30.97753 -3.46688,-12.09326 -39.88943,-11.64462 z m -94.64562,29.04016 c -0.75586,0.0163 -1.51679,0.12682 -2.28406,0.34669 -2.15262,0.61694 -3.79628,1.98661 -4.9148,4.11946 -1.11852,2.13297 -1.68276,5.0096 -1.71304,8.606 l -2.4676,-8.6264 -9.34016,2.67154 22.71821,79.26902 9.34016,-2.67153 -8.58561,-29.93747 c 2.07162,2.88316 4.10363,4.9044 6.07723,6.07723 1.98508,1.13255 3.9347,1.42661 5.85289,0.87691 4.24127,-1.21541 6.75386,-4.7556 7.54555,-10.60455 0.81293,-5.85502 -0.17529,-13.62274 -2.95704,-23.33001 -2.74263,-9.57046 -6.00083,-16.67425 -9.76842,-21.29068 -3.0612,-3.75074 -6.22792,-5.57704 -9.50331,-5.50621 z m 36.93239,2.81429 c 1.6525,0.0449 3.33216,1.22565 5.01677,3.50765 2.07334,2.80873 3.89901,6.96396 5.48582,12.50114 1.58677,5.53725 2.2492,10.0607 1.97815,13.5412 -0.2711,3.48052 -1.42176,5.49701 -3.44648,6.07722 -2.02475,0.58024 -4.06598,-0.52972 -6.11801,-3.34451 -2.05205,-2.81476 -3.87864,-6.98428 -5.46542,-12.52153 -1.5868,-5.53718 -2.24832,-10.04635 -1.99855,-13.5208 0.24976,-3.47436 1.38095,-5.49695 3.40569,-6.07723 0.37964,-0.10878 0.76068,-0.1735 1.14203,-0.16314 z m -66.05412,3.60962 -27.6738,31.01832 3.46687,12.09326 39.88943,11.60383 -3.65041,-12.76625 -29.59078,-7.23964 21.22949,-21.88209 -3.6708,-12.82743 z m 28.57111,6.91335 c 1.64925,0.0458 3.30868,1.2207 4.97598,3.50766 2.05202,2.81484 3.85822,6.98434 5.44503,12.52153 1.58677,5.53726 2.26868,10.04642 2.01894,13.52081 -0.24979,3.47443 -1.40136,5.49701 -3.42608,6.07722 -2.02475,0.58024 -4.06506,-0.53582 -6.13841,-3.34451 -2.07337,-2.80866 -3.89903,-6.96388 -5.48581,-12.50114 -1.5868,-5.53719 -2.24924,-10.06063 -1.97816,-13.5412 0.27107,-3.48046 1.42173,-5.49694 3.44648,-6.07722 0.37964,-0.10878 0.76143,-0.17372 1.14203,-0.16315 z"
       id="path2991-6"
       inkscape:connector-curvature="0" />
    <path
       transform="matrix(0.65258781,0,0,0.65258781,284.30596,393.30164)"
       inkscape:connector-curvature="0"
       style="font-size:medium;font-style:normal;font-variant:normal;font-weight:normal;font-stretch:normal;text-indent:0;text-align:start;text-decoration:none;line-height:normal;letter-spacing:normal;word-spacing:normal;text-transform:none;direction:ltr;block-progression:tb;writing-mode:lr-tb;text-anchor:start;baseline-shift:baseline;color:#000000;fill:#000000;fill-opacity:0.49803922;stroke:none;stroke-width:17.75944328;marker:none;visibility:visible;display:inline;overflow:visible;filter:url(#filter3852);enable-background:accumulate;font-family:Sans;-inkscape-font-specification:Sans"
       d="m 372.34375,398.15625 c -10.51135,0.72034 -15.83962,17.00632 -18.59375,24.5625 -2.68314,7.36137 -12.41332,21.96818 -18.34375,24.53125 -0.14688,0.0417 -0.29075,0.0829 -0.4375,0.125 -0.25155,0.0721 -0.4987,0.14574 -0.75,0.21875 -0.0438,0.009 -0.0803,0.0552 -0.125,0.0625 -6.26932,0.97101 -21.88975,-6.37979 -28.125,-11.25 -5.94205,-4.64121 -17.87103,-14.58128 -27,-11.71875 -0.60863,0.19073 -1.23142,0.44021 -1.8125,0.75 -9.29747,4.95624 -7.56882,21.46387 -7.25,29.5 0.31318,7.89481 -2.72938,24.90638 -7.15625,29.46875 -0.006,0.006 -0.0253,-0.007 -0.0312,0 -0.3062,0.24155 -0.60124,0.50662 -0.90625,0.75 -0.0268,0.0216 -0.067,0.0411 -0.0937,0.0625 -5.44909,3.38192 -23.13179,2.751 -30.71875,0.65625 -7.75237,-2.14046 -23.37953,-7.55851 -30.3125,0.375 -6.93298,7.93351 0.72478,23.24291 4.125,30.53125 3.3295,7.13682 6.88137,24.45159 4.4375,30.375 -0.0108,0.0274 -0.0509,0.0666 -0.0625,0.0937 -0.18316,0.32912 -0.38116,0.63876 -0.5625,0.96875 -0.009,0.013 0.009,0.0182 0,0.0312 -3.73913,5.12544 -20.05631,11.01214 -27.90625,12 -7.97955,1.00414 -24.50701,1.98557 -27.875,11.96875 -3.36797,9.98319 9.61229,21.1801 15.53125,26.625 5.82283,5.3565 15.6817,19.5622 15.75,25.90625 5.4e-4,0.0467 0,0.1105 0,0.15625 -0.0415,0.35239 -0.0853,0.70988 -0.125,1.0625 -1.34832,6.21657 -14.36094,18.35924 -21.25,22.25 -7.00281,3.95497 -22.14526,11.91978 -21.125,22.40625 1.02024,10.48647 16.88944,15.19243 24.4375,17.96875 7.42547,2.73122 22.31037,12.61869 24.65625,18.53125 0.004,0.0108 -0.005,0.0216 0,0.0312 0.0216,0.073 0.0416,0.14574 0.0625,0.21875 0.0717,0.2506 0.14618,0.49979 0.21875,0.75 0.009,0.0436 0.0239,0.0805 0.0312,0.125 0.96721,6.26882 -6.39813,21.87548 -11.25,28.125 -4.93199,6.35269 -15.93868,18.75229 -11.25,28.1875 4.68867,9.43522 21.77786,8.16678 29.8125,7.8125 7.90418,-0.3485 25.34502,3.09737 29.78125,7.65625 0.22049,0.27808 0.46564,0.53559 0.6875,0.8125 0.0246,0.0384 0.0383,0.0853 0.0625,0.125 3.30211,5.41734 2.47703,22.68501 0.375,30.3125 -2.13676,7.75343 -7.20679,24.12838 0.9375,30.8125 8.1443,6.68415 22.69973,-1.25046 30,-4.625 7.1485,-3.3044 23.94608,-6.95707 29.90625,-4.65625 0.0276,0.0108 0.0351,0.0204 0.0625,0.0312 0.3488,0.19527 0.71245,0.40036 1.0625,0.59375 0.0268,0.0151 0.0355,0.0163 0.0625,0.0312 5.21024,3.73001 11.38795,20.30795 12.34375,28.125 0.97608,7.98302 2.57363,25.03637 12.65625,28.09375 10.08261,3.05738 20.49543,-9.82843 25.9375,-15.75 5.32596,-5.79519 19.99302,-15.67005 26.40625,-15.6875 0.0335,1.7e-4 0.0607,0 0.0937,0 0.38754,0.0449 0.76866,0.0824 1.15625,0.125 0.0108,0.001 0.0215,-0.002 0.0312,0 6.17142,1.52524 17.77173,14.35634 21.6875,21.21875 3.98586,6.98529 11.26994,21.87657 21.78125,21.15625 10.51135,-0.72034 15.87086,-16.97507 18.625,-24.53125 2.70943,-7.43347 12.5561,-22.30895 18.46875,-24.65625 0.0933,-0.0266 0.18785,-0.0357 0.28125,-0.0625 0.0933,-0.0311 0.19025,-0.0687 0.28125,-0.0937 5.82738,-1.56843 22.31361,6.09769 28.75,11.125 6.33822,4.95063 19.48378,15.89374 28.78125,10.9375 9.29744,-4.95625 7.53757,-21.43262 7.21875,-29.46875 -0.31318,-7.8948 2.72936,-24.90636 7.15625,-29.46875 0.009,-0.006 0.0232,-0.0243 0.0312,-0.0312 0.30616,-0.24144 0.60127,-0.47549 0.90625,-0.71875 0.0173,-0.0108 0.0439,-0.0508 0.0625,-0.0625 5.41527,-3.40214 23.14956,-2.75474 30.75,-0.65625 7.75237,2.14044 23.41077,7.55851 30.34375,-0.375 6.93297,-7.93351 -0.75605,-23.24294 -4.15625,-30.53125 -3.32952,-7.13684 -6.88138,-24.48284 -4.4375,-30.40625 0.0108,-0.0274 0.0511,-0.0355 0.0625,-0.0625 0.19462,-0.34944 0.37009,-0.71206 0.5625,-1.0625 0.0173,-0.0235 0.0448,-0.0387 0.0625,-0.0625 3.8369,-5.10842 20.03007,-10.92297 27.84375,-11.90625 7.97952,-1.00414 24.507,-1.95431 27.875,-11.9375 3.36796,-9.98318 -9.61229,-21.18008 -15.53125,-26.625 -5.92335,-5.44892 -15.96554,-20.07854 -15.6875,-26.25 0.0339,-0.28999 0.061,-0.58485 0.0937,-0.875 1.34832,-6.21657 14.36094,-18.39047 21.25,-22.28125 7.00281,-3.95499 22.14526,-11.91979 21.125,-22.40625 -1.02023,-10.48647 -16.92069,-15.1612 -24.46875,-17.9375 -7.42545,-2.73124 -22.31037,-12.61869 -24.65625,-18.53125 -0.0339,-0.0845 -0.0342,-0.16702 -0.0625,-0.25 -0.024,-0.0836 -0.0383,-0.16655 -0.0625,-0.25 -1.14172,-6.25762 6.24189,-22.50047 11.09375,-28.75 4.93198,-6.35266 15.93866,-18.78358 11.25,-28.21875 -4.68869,-9.43523 -21.74659,-8.16679 -29.78125,-7.8125 -7.90416,0.34849 -25.40753,-3.06611 -29.84375,-7.625 -0.18144,-0.22878 -0.34893,-0.45949 -0.53125,-0.6875 -3.50451,-5.08751 -2.73207,-22.83461 -0.59375,-30.59375 2.13675,-7.75343 7.20678,-24.12836 -0.9375,-30.8125 -8.14431,-6.68415 -22.66851,1.25047 -29.96875,4.625 -7.1817,3.31974 -24.11375,6.96088 -30,4.59375 -0.0151,-0.006 -0.0469,0.007 -0.0625,0 -0.3286,-0.18381 -0.67032,-0.3491 -1,-0.53125 -0.0242,-0.0173 -0.0381,-0.0452 -0.0625,-0.0625 -5.21024,-3.72999 -11.38795,-20.30794 -12.34375,-28.125 -0.97609,-7.983 -2.57364,-25.03635 -12.65625,-28.09375 -10.08263,-3.05739 -20.49543,9.82845 -25.9375,15.75 -5.33539,5.80549 -20.04226,15.73638 -26.4375,15.71875 -0.022,-2.2e-4 -0.0407,0 -0.0625,0 -0.38751,-0.0449 -0.76873,-0.11351 -1.15625,-0.15625 -0.0108,-10e-4 -0.0215,0.0331 -0.0312,0.0312 -6.1714,-1.52525 -17.77174,-14.35634 -21.6875,-21.21875 -3.98587,-6.98529 -11.23867,-21.90782 -21.75,-21.1875 z M 392.21875,450 c 16.27826,-0.0527 32.70077,1.8942 48.90625,5.9375 69.14341,17.25139 123.8372,70.08811 143.46875,138.59375 19.63153,68.50565 1.19938,142.24575 -48.3125,193.5 C 486.76942,839.2855 413.70586,860.22019 344.5625,842.96875 275.41909,825.71736 220.75655,772.91192 201.125,704.40625 181.49345,635.90061 199.89439,562.12923 249.40625,510.875 c 24.75592,-25.62712 55.43148,-43.63967 88.53125,-53.125 17.58424,-5.03909 35.83255,-7.69033 54.28125,-7.75 z m 0.0625,12.4375 c -1.01787,0.003 -2.04586,0.0113 -3.0625,0.0312 -48.79863,0.95528 -96.06751,21.03005 -130.875,57.0625 -46.41005,48.04321 -63.68294,117.22361 -45.28125,181.4375 18.40164,64.21387 69.71957,113.76686 134.53125,129.9375 64.81167,16.17064 133.33999,-3.45675 179.75,-51.5 C 573.75378,731.36302 591.02668,662.15139 572.625,597.9375 554.22333,533.72364 502.93666,484.17064 438.125,468 c -15.19024,-3.78999 -30.57563,-5.61155 -45.84375,-5.5625 z m 2.8125,17.78125 c 12.90657,0.16943 25.8818,1.82841 38.71875,5.03125 58.68316,14.64156 105.08837,59.45185 121.75,117.59375 16.66164,58.14193 1.05282,120.71842 -40.96875,164.21875 C 472.5722,810.56285 410.55817,828.32906 351.875,813.6875 293.19182,799.04594 246.81785,754.23564 230.15625,696.09375 213.4946,637.95184 229.10341,575.37531 271.125,531.875 c 31.51615,-32.62527 74.27373,-50.76593 118.4375,-51.625 1.84016,-0.0358 3.68745,-0.0555 5.53125,-0.0312 z M 453.75,547.75 l -11.78125,3.375 c -7.44631,2.13401 -11.9586,5.65984 -13.53125,10.53125 -1.57263,4.87167 -0.84441,12.57627 2.1875,23.15625 l 1.75,6.125 -13.34375,3.84375 5.09375,17.65625 13.3125,-3.8125 20.15625,70.3125 14.34375,-4.09375 -20.15625,-70.3125 16.875,-4.84375 L 463.5625,582 l -16.84375,4.84375 -2.1875,-7.71875 c -0.91031,-3.42309 -1.17219,-5.8401 -0.78125,-7.3125 0.42359,-1.48154 1.68823,-2.53843 3.84375,-3.15625 L 458.8125,565.4375 453.75,547.75 z m -60.34375,17.3125 -14.3125,4.09375 13.40625,46.75 c -3.15949,-4.36555 -6.27061,-7.42069 -9.3125,-9.15625 -3.02426,-1.79711 -5.99817,-2.27971 -8.9375,-1.4375 -6.49918,1.86257 -10.37923,7.27804 -11.625,16.25 -1.21308,8.96276 0.33106,20.87508 4.59375,35.75 4.20266,14.66551 9.16416,25.55108 14.9375,32.625 5.77333,7.07396 11.82315,9.7032 18.09375,7.90625 3.29855,-0.94526 5.7874,-3.05346 7.46875,-6.3125 1.71395,-3.26837 2.6084,-7.66707 2.6875,-13.1875 l 3.71875,13.0625 14.3125,-4.09375 -35.03125,-122.25 z m 80.53125,9.21875 5.625,19.65625 45.34375,11.21875 -32.5625,33.40625 5.59375,19.5625 42.4375,-47.46875 -5.3125,-18.53125 -61.125,-17.84375 z m -145.03125,44.5 c -1.15825,0.025 -2.32427,0.19434 -3.5,0.53125 -3.29859,0.94538 -5.81728,3.04421 -7.53125,6.3125 -1.71398,3.26848 -2.5786,7.67652 -2.625,13.1875 l -3.78125,-13.21875 -14.3125,4.09375 34.8125,121.46875 14.3125,-4.09375 -13.15625,-45.875 c 3.17447,4.41804 6.28823,7.51531 9.3125,9.3125 3.04187,1.73548 6.02938,2.18608 8.96875,1.34375 6.49915,-1.86245 10.34935,-7.2873 11.5625,-16.25 1.2457,-8.972 -0.26861,-20.87496 -4.53125,-35.75 -4.2027,-14.66539 -9.19544,-25.55096 -14.96875,-32.625 -4.69086,-5.74749 -9.54342,-8.54604 -14.5625,-8.4375 z m 56.59375,4.3125 c 2.53223,0.0688 5.10607,1.87814 7.6875,5.375 3.1771,4.30398 5.97469,10.67129 8.40625,19.15625 2.43151,8.48507 3.4466,15.41663 3.03125,20.75 -0.41542,5.33342 -2.17865,8.4234 -5.28125,9.3125 -3.10265,0.88913 -6.23055,-0.81172 -9.375,-5.125 -3.14449,-4.31323 -5.94348,-10.70243 -8.375,-19.1875 -2.43155,-8.48496 -3.44523,-15.39464 -3.0625,-20.71875 0.38272,-5.32397 2.11611,-8.42331 5.21875,-9.3125 0.58174,-0.1667 1.16564,-0.26587 1.75,-0.25 z m -101.21875,5.53125 -42.40625,47.53125 5.3125,18.53125 61.125,17.78125 -5.59375,-19.5625 -45.34375,-11.09375 32.53125,-33.53125 -5.625,-19.65625 z m 43.78125,10.59375 c 2.52725,0.0702 5.07009,1.87054 7.625,5.375 3.14444,4.31334 5.91219,10.70253 8.34375,19.1875 2.43151,8.48507 3.47643,15.39474 3.09375,20.71875 -0.38277,5.32408 -2.1474,8.42341 -5.25,9.3125 -3.10265,0.88914 -6.22914,-0.82107 -9.40625,-5.125 -3.17715,-4.30388 -5.97473,-10.67118 -8.40625,-19.15625 -2.43155,-8.48497 -3.44664,-15.41652 -3.03125,-20.75 0.41538,-5.33333 2.17861,-8.4233 5.28125,-9.3125 0.58174,-0.16669 1.16679,-0.2662 1.75,-0.25 z"
       id="path3856" />
    <path
       inkscape:connector-curvature="0"
       id="path3858"
       d="m 523.98778,649.82838 c -6.85958,0.47009 -10.33674,11.09812 -12.13405,16.02919 -1.75099,4.80394 -8.10078,14.33617 -11.97091,16.0088 -0.0958,0.0272 -0.18974,0.0541 -0.28551,0.0816 -0.16416,0.047 -0.32544,0.0951 -0.48944,0.14275 -0.0286,0.006 -0.0524,0.036 -0.0816,0.0408 -4.09128,0.63367 -14.28499,-4.16337 -18.35403,-7.34161 -3.87771,-3.0288 -11.66242,-9.51557 -17.61987,-7.64751 -0.39719,0.12446 -0.80361,0.28727 -1.18282,0.48944 -6.06742,3.23438 -4.93932,14.00706 -4.73126,19.25134 0.20438,5.15205 -1.78116,16.2536 -4.67008,19.23094 -0.004,0.004 -0.0165,-0.005 -0.0204,0 -0.19982,0.15764 -0.39236,0.33062 -0.5914,0.48944 -0.0175,0.0141 -0.0437,0.0268 -0.0612,0.0408 -3.55601,2.207 -15.09553,1.79527 -20.04669,0.42826 -5.0591,-1.39684 -15.25719,-4.93259 -19.78156,0.24472 -4.52438,5.17731 0.47298,15.16804 2.69192,19.92432 2.17279,4.65741 4.4907,15.95681 2.89586,19.82236 -0.007,0.0179 -0.0332,0.0434 -0.0408,0.0612 -0.11953,0.21478 -0.24874,0.41685 -0.36708,0.63219 -0.006,0.008 0.006,0.0119 0,0.0204 -2.44011,3.3448 -13.0885,7.18638 -18.21128,7.83105 -5.20735,0.65529 -15.99297,1.29576 -18.19088,7.81066 -2.1979,6.51491 6.27286,13.82188 10.1355,17.37515 3.79991,3.49559 10.23369,12.76605 10.27826,16.9061 3.5e-4,0.0305 0,0.0721 0,0.10197 -0.0271,0.22997 -0.0557,0.46326 -0.0816,0.69338 -0.8799,4.05685 -9.37178,11.98101 -13.86749,14.52007 -4.56995,2.58097 -14.45173,7.77871 -13.78592,14.62205 0.66579,6.84334 11.02184,9.91439 15.94761,11.72619 4.84577,1.78236 14.55948,8.2348 16.09037,12.09326 0.003,0.007 -0.003,0.0141 0,0.0204 0.0141,0.0476 0.0272,0.0951 0.0408,0.14275 0.0468,0.16354 0.0954,0.32616 0.14275,0.48944 0.006,0.0285 0.0156,0.0526 0.0204,0.0816 0.63119,4.09095 -4.17534,14.27567 -7.34161,18.35403 -3.21855,4.14569 -10.40139,12.23751 -7.34161,18.39482 3.05977,6.15731 14.21196,5.32954 19.45527,5.09834 5.15817,-0.22743 16.53985,2.02131 19.43488,4.99637 0.14389,0.18148 0.30387,0.34952 0.44866,0.53023 0.016,0.0251 0.025,0.0557 0.0408,0.0816 2.15492,3.53529 1.61648,14.80396 0.24472,19.78156 -1.39442,5.0598 -4.70306,15.74589 0.61181,20.10787 5.31487,4.36199 14.81356,-0.81604 19.57763,-3.01822 4.66502,-2.15641 15.62692,-4.5401 19.51645,-3.03861 0.018,0.007 0.0229,0.0133 0.0408,0.0204 0.22762,0.12743 0.46494,0.26127 0.69338,0.38747 0.0175,0.01 0.0232,0.0107 0.0408,0.0204 3.40014,2.43415 7.43164,13.25272 8.05538,18.35403 0.63698,5.20962 1.67952,16.33843 8.25932,18.33364 6.57979,1.99521 13.37507,-6.41392 16.92649,-10.27826 3.47566,-3.78187 13.04721,-10.22608 17.2324,-10.23747 0.0219,1.1e-4 0.0396,0 0.0612,0 0.2529,0.0293 0.50162,0.0538 0.75456,0.0816 0.007,6.5e-4 0.0141,-0.001 0.0204,0 4.02739,0.99535 11.59761,9.36877 14.153,13.8471 2.60112,4.55851 7.35462,14.27638 14.21418,13.80631 6.85957,-0.47009 10.35713,-11.07772 12.15444,-16.0088 1.76814,-4.85099 8.19396,-14.55854 12.05248,-16.09036 0.0609,-0.0174 0.12259,-0.0233 0.18354,-0.0408 0.0609,-0.0203 0.12416,-0.0448 0.18355,-0.0612 3.80287,-1.02354 14.56159,3.97928 18.76189,7.26004 4.13625,3.23072 12.71488,10.37206 18.7823,7.13768 6.06739,-3.23439 4.91892,-13.98667 4.71087,-19.23095 -0.20438,-5.15205 1.78114,-16.25359 4.67008,-19.23095 0.006,-0.004 0.0152,-0.0158 0.0204,-0.0204 0.1998,-0.15756 0.39238,-0.3103 0.59141,-0.46905 0.0113,-0.007 0.0287,-0.0332 0.0408,-0.0408 3.53393,-2.2202 15.10712,-1.79771 20.06707,-0.42826 5.0591,1.39682 15.27758,4.93259 19.80196,-0.24472 4.52437,-5.17732 -0.49339,-15.16806 -2.71232,-19.92433 -2.1728,-4.65741 -4.4907,-15.9772 -2.89585,-19.84274 0.007,-0.0179 0.0333,-0.0232 0.0408,-0.0408 0.12701,-0.22804 0.24152,-0.46468 0.36708,-0.69338 0.0113,-0.0153 0.0292,-0.0253 0.0408,-0.0408 2.50391,-3.33369 13.07138,-7.1282 18.17049,-7.76988 5.20734,-0.65529 15.99297,-1.27535 18.19089,-7.79026 2.19789,-6.5149 -6.27287,-13.82186 -10.13551,-17.37515 -3.8655,-3.5559 -10.41891,-13.10301 -10.23747,-17.13043 0.0221,-0.18925 0.0398,-0.38167 0.0612,-0.57102 0.8799,-4.05686 9.37178,-12.00139 13.86749,-14.54047 4.56995,-2.58098 14.45173,-7.77871 13.78592,-14.62205 -0.66579,-6.84334 -11.04224,-9.89401 -15.96801,-11.70579 -4.84576,-1.78237 -14.55947,-8.2348 -16.09037,-12.09327 -0.0221,-0.0551 -0.0223,-0.10899 -0.0408,-0.16314 -0.0157,-0.0546 -0.025,-0.10869 -0.0408,-0.16315 -0.74507,-4.08365 4.07338,-14.68353 7.23965,-18.7619 3.21855,-4.14567 10.40137,-12.25794 7.34161,-18.41521 -3.05978,-6.15732 -14.19156,-5.32955 -19.43488,-5.09835 -5.15816,0.22743 -16.58065,-2.0009 -19.47567,-4.97598 -0.11841,-0.1493 -0.22771,-0.29985 -0.34669,-0.44865 -2.287,-3.32005 -1.78291,-14.90159 -0.38747,-19.96511 1.39442,-5.05979 4.70306,-15.74587 -0.6118,-20.10786 -5.31488,-4.362 -14.7932,0.81604 -19.55724,3.01822 -4.68669,2.16642 -15.73634,4.54258 -19.57764,2.99782 -0.01,-0.004 -0.0306,0.005 -0.0408,0 -0.21444,-0.11995 -0.43745,-0.22782 -0.65259,-0.34668 -0.0158,-0.0113 -0.0249,-0.0295 -0.0408,-0.0408 -3.40014,-2.43415 -7.43164,-13.25272 -8.05538,-18.35403 -0.63698,-5.20961 -1.67953,-16.33842 -8.25931,-18.33364 -6.57981,-1.99522 -13.37507,6.41392 -16.9265,10.27826 -3.48181,3.78859 -13.07933,10.26937 -17.25279,10.25786 -0.0144,-1.4e-4 -0.0266,0 -0.0408,0 -0.25288,-0.0293 -0.50166,-0.0741 -0.75455,-0.10197 -0.007,-6.5e-4 -0.0141,0.0216 -0.0204,0.0204 -4.02738,-0.99536 -11.59762,-9.36878 -14.15299,-13.8471 -2.60113,-4.55852 -7.33422,-14.29678 -14.19379,-13.82671 z m 12.97018,33.8326 c 10.623,-0.0344 21.34013,1.23614 31.91563,3.87474 45.12214,11.25805 80.81464,45.73865 93.62595,90.4446 12.8113,44.70595 0.78271,92.82784 -31.52814,126.27574 -32.31082,33.4479 -79.99121,47.10962 -125.11332,35.85154 -45.12215,-11.25805 -80.79426,-45.71823 -93.60557,-90.4242 -12.81131,-44.70594 -0.80308,-92.84825 31.50776,-126.29613 16.15541,-16.72395 36.17391,-28.47872 57.77441,-34.66873 11.47526,-3.28845 23.38389,-5.01862 35.42328,-5.05756 z m 0.0408,8.11656 c -0.66425,0.002 -1.3351,0.007 -1.99855,0.0204 -31.84539,0.6234 -62.69248,13.72395 -85.40743,37.23829 -30.28663,31.35241 -41.55871,76.4987 -29.54999,118.4039 12.00869,41.90519 45.49814,74.24287 87.79345,84.79563 42.29531,10.55276 87.01606,-2.25583 117.30266,-33.60827 30.28662,-31.35243 41.55871,-76.51909 29.54999,-118.4243 -12.0087,-41.90518 -45.47776,-74.24286 -87.77306,-84.79563 -9.91296,-2.4733 -19.95328,-3.66202 -29.91707,-3.63002 z m 1.8354,11.60383 c 8.42267,0.11057 16.89015,1.1932 25.26739,3.28333 38.29591,9.55491 68.57939,38.79756 79.45256,76.74025 10.87319,37.94272 0.68706,78.77937 -26.7357,107.16716 -27.42275,28.38779 -67.89235,39.98181 -106.18827,30.4269 -38.29593,-9.5549 -68.55902,-38.79756 -79.43218,-76.74024 -10.87319,-37.94271 -0.68707,-78.77939 26.73571,-107.16716 20.56705,-21.29085 48.47013,-33.12923 77.29087,-33.68984 1.20086,-0.0234 2.40638,-0.0362 3.60962,-0.0204 z m 38.27836,44.07007 -7.6883,2.20249 c -4.85937,1.39263 -7.80404,3.69354 -8.83033,6.87256 -1.02628,3.17919 -0.55105,8.20712 1.42754,15.11149 l 1.14202,3.9971 -8.70796,2.50838 3.32411,11.52226 8.68758,-2.48799 13.15372,45.88508 9.36056,-2.67154 -13.15372,-45.88508 11.01242,-3.16097 -3.32412,-11.54264 -10.99203,3.16097 -1.42754,-5.03716 c -0.59405,-2.23387 -0.76495,-3.81118 -0.50983,-4.77205 0.27643,-0.96684 1.10172,-1.65655 2.50838,-2.05973 l 7.32122,-2.10052 -3.30372,-11.54265 z m -39.3796,11.29793 -9.34016,2.67153 8.74875,30.50848 c -2.06184,-2.8489 -4.09212,-4.84265 -6.07722,-5.97526 -1.97359,-1.17277 -3.91433,-1.48771 -5.8325,-0.93809 -4.24129,1.21549 -6.77336,4.74956 -7.58634,10.60455 -0.79164,5.84899 0.21605,13.62282 2.99783,23.33001 2.7426,9.57054 5.98042,16.67433 9.74803,21.29068 3.7676,4.61638 7.71564,6.33219 11.80776,5.15952 2.15259,-0.61686 3.77679,-1.99265 4.87402,-4.11946 1.1185,-2.13289 1.70221,-5.00343 1.75383,-8.606 l 2.42681,8.52443 9.34016,-2.67153 -22.86097,-79.77886 z m 52.55371,6.01604 3.67081,12.82743 29.59078,7.32122 -21.24989,21.80051 3.65041,12.76625 27.6942,-30.97753 -3.46688,-12.09326 -39.88943,-11.64462 z m -94.64562,29.04016 c -0.75586,0.0163 -1.51679,0.12682 -2.28406,0.34669 -2.15262,0.61694 -3.79628,1.98661 -4.9148,4.11946 -1.11852,2.13297 -1.68276,5.0096 -1.71304,8.606 l -2.4676,-8.6264 -9.34016,2.67154 22.71821,79.26902 9.34016,-2.67153 -8.58561,-29.93747 c 2.07162,2.88316 4.10363,4.9044 6.07723,6.07723 1.98508,1.13255 3.9347,1.42661 5.85289,0.87691 4.24127,-1.21541 6.75386,-4.7556 7.54555,-10.60455 0.81293,-5.85502 -0.17529,-13.62274 -2.95704,-23.33001 -2.74263,-9.57046 -6.00083,-16.67425 -9.76842,-21.29068 -3.0612,-3.75074 -6.22792,-5.57704 -9.50331,-5.50621 z m 36.93239,2.81429 c 1.6525,0.0449 3.33216,1.22565 5.01677,3.50765 2.07334,2.80873 3.89901,6.96396 5.48582,12.50114 1.58677,5.53725 2.2492,10.0607 1.97815,13.5412 -0.2711,3.48052 -1.42176,5.49701 -3.44648,6.07722 -2.02475,0.58024 -4.06598,-0.52972 -6.11801,-3.34451 -2.05205,-2.81476 -3.87864,-6.98428 -5.46542,-12.52153 -1.5868,-5.53718 -2.24832,-10.04635 -1.99855,-13.5208 0.24976,-3.47436 1.38095,-5.49695 3.40569,-6.07723 0.37964,-0.10878 0.76068,-0.1735 1.14203,-0.16314 z m -66.05412,3.60962 -27.6738,31.01832 3.46687,12.09326 39.88943,11.60383 -3.65041,-12.76625 -29.59078,-7.23964 21.22949,-21.88209 -3.6708,-12.82743 z m 28.57111,6.91335 c 1.64925,0.0458 3.30868,1.2207 4.97598,3.50766 2.05202,2.81484 3.85822,6.98434 5.44503,12.52153 1.58677,5.53726 2.26868,10.04642 2.01894,13.52081 -0.24979,3.47443 -1.40136,5.49701 -3.42608,6.07722 -2.02475,0.58024 -4.06506,-0.53582 -6.13841,-3.34451 -2.07337,-2.80866 -3.89903,-6.96388 -5.48581,-12.50114 -1.5868,-5.53719 -2.24924,-10.06063 -1.97816,-13.5412 0.27107,-3.48046 1.42173,-5.49694 3.44648,-6.07722 0.37964,-0.10878 0.76143,-0.17372 1.14203,-0.16315 z"
       style="font-size:medium;font-style:normal;font-variant:normal;font-weight:normal;font-stretch:normal;text-indent:0;text-align:start;text-decoration:none;line-height:normal;letter-spacing:normal;word-spacing:normal;text-transform:none;direction:ltr;block-progression:tb;writing-mode:lr-tb;text-anchor:start;baseline-shift:baseline;color:#000000;fill:url(#linearGradient3860);fill-opacity:1;stroke:none;stroke-width:17.75944328;marker:none;visibility:visible;display:inline;overflow:visible;enable-background:accumulate;font-family:Sans;-inkscape-font-specification:Sans" />
  </g>
</svg>
