<?xml version="1.0" encoding="UTF-8" standalone="no"?>
<!-- Created with Inkscape (http://www.inkscape.org/) -->
<svg xmlns:inkscape="http://www.inkscape.org/namespaces/inkscape" xmlns:rdf="http://www.w3.org/1999/02/22-rdf-syntax-ns#" xmlns="http://www.w3.org/2000/svg" sodipodi:docname="pdf2htmlEX.svg" xmlns:sodipodi="http://sodipodi.sourceforge.net/DTD/sodipodi-0.dtd" height="335.89" width="335.84" version="1.1" xmlns:cc="http://creativecommons.org/ns#" xmlns:xlink="http://www.w3.org/1999/xlink" inkscape:version="0.48.4 r9939" xmlns:dc="http://purl.org/dc/elements/1.1/">
<title>pdf2htmlEX logo</title>
<sodipodi:namedview bordercolor="#666666" inkscape:pageshadow="2" inkscape:window-y="23" fit-margin-left="0" pagecolor="#ffffff" inkscape:window-height="1177" inkscape:window-maximized="0" inkscape:zoom="0.85575991" inkscape:window-x="0" showgrid="false" borderopacity="1.0" inkscape:current-layer="layer1" inkscape:cx="273.10032" inkscape:cy="167.588" fit-margin-top="0" fit-margin-right="0" fit-margin-bottom="0" inkscape:window-width="1845" inkscape:pageopacity="0.0" inkscape:document-units="px"/>
<defs>
<linearGradient id="linearGradient3826" y2="856.05" gradientUnits="userSpaceOnUse" x2="216.18" gradientTransform="matrix(0.65258781,0,0,0.65258781,-48.394269,62.938515)" y1="445.88" x1="563.24" inkscape:collect="always">
<stop stop-color="#ff007e" offset="0"/>
<stop stop-color="#ff870d" offset="1"/>
</linearGradient>
<filter id="filter3852" inkscape:collect="always" color-interpolation-filters="sRGB">
<feGaussianBlur stdDeviation="2.513027" inkscape:collect="always"/>
</filter>
</defs>
<metadata>
<rdf:RDF>
<cc:Work rdf:about="">
<dc:format>image/svg+xml</dc:format>
<dc:type rdf:resource="http://purl.org/dc/dcmitype/StillImage"/>
<dc:title>pdf2htmlEX logo</dc:title>
<cc:license rdf:resource="http://creativecommons.org/licenses/by/3.0/"/>
<dc:date>2013-09-27</dc:date>
<dc:creator>
<cc:Agent>
<dc:title>Lu Wang &lt;coolwanglu@gmail.com&gt;</dc:title>
</cc:Agent>
</dc:creator>
</cc:Work>
<cc:License rdf:about="http://creativecommons.org/licenses/by/3.0/">
<cc:permits rdf:resource="http://creativecommons.org/ns#Reproduction"/>
<cc:permits rdf:resource="http://creativecommons.org/ns#Distribution"/>
<cc:requires rdf:resource="http://creativecommons.org/ns#Notice"/>
<cc:requires rdf:resource="http://creativecommons.org/ns#Attribution"/>
<cc:permits rdf:resource="http://creativecommons.org/ns#DerivativeWorks"/>
</cc:License>
</rdf:RDF>
</metadata>
<g inkscape:label="Layer 1" inkscape:groupmode="layer" transform="translate(-42.060576,-320.81794)">
<path style="baseline-shift:baseline;block-progression:tb;color:#000000;direction:ltr;text-indent:0;text-align:start;enable-background:accumulate;text-transform:none;" d="m372.34,398.16c-10.511,0.72034-15.84,17.006-18.594,24.562-2.6831,7.3614-12.413,21.968-18.344,24.531-0.14688,0.0417-0.29075,0.0829-0.4375,0.125-0.25155,0.0721-0.4987,0.14574-0.75,0.21875-0.0438,0.009-0.0803,0.0552-0.125,0.0625-6.2693,0.97101-21.89-6.3798-28.125-11.25-5.942-4.6412-17.871-14.581-27-11.719-0.60863,0.19073-1.2314,0.44021-1.8125,0.75-9.2975,4.9562-7.5688,21.464-7.25,29.5,0.31318,7.8948-2.7294,24.906-7.1562,29.469-0.006,0.006-0.0253-0.007-0.0312,0-0.3062,0.24155-0.60124,0.50662-0.90625,0.75-0.0268,0.0216-0.067,0.0411-0.0937,0.0625-5.4491,3.3819-23.132,2.751-30.719,0.65625-7.7524-2.1405-23.38-7.5585-30.312,0.375-6.933,7.9335,0.72478,23.243,4.125,30.531,3.3295,7.1368,6.8814,24.452,4.4375,30.375-0.0108,0.0274-0.0509,0.0666-0.0625,0.0937-0.18316,0.32912-0.38116,0.63876-0.5625,0.96875-0.009,0.013,0.009,0.0182,0,0.0312-3.7391,5.1254-20.056,11.012-27.906,12-7.9796,1.0041-24.507,1.9856-27.875,11.969-3.368,9.9832,9.6123,21.18,15.531,26.625,5.8228,5.3565,15.682,19.562,15.75,25.906,0.00054,0.0467,0,0.1105,0,0.15625-0.0415,0.35239-0.0853,0.70988-0.125,1.0625-1.3483,6.2166-14.361,18.359-21.25,22.25-7.0028,3.955-22.145,11.92-21.125,22.406,1.0202,10.486,16.889,15.192,24.438,17.969,7.4255,2.7312,22.31,12.619,24.656,18.531,0.004,0.0108-0.005,0.0216,0,0.0312,0.0216,0.073,0.0416,0.14574,0.0625,0.21875,0.0717,0.2506,0.14618,0.49979,0.21875,0.75,0.009,0.0436,0.0239,0.0805,0.0312,0.125,0.96721,6.2688-6.3981,21.875-11.25,28.125-4.932,6.3527-15.939,18.752-11.25,28.188,4.6887,9.4352,21.778,8.1668,29.812,7.8125,7.9042-0.3485,25.345,3.0974,29.781,7.6562,0.22049,0.27808,0.46564,0.53559,0.6875,0.8125,0.0246,0.0384,0.0383,0.0853,0.0625,0.125,3.3021,5.4173,2.477,22.685,0.375,30.312-2.1368,7.7534-7.2068,24.128,0.9375,30.812,8.1443,6.6842,22.7-1.2505,30-4.625,7.1485-3.3044,23.946-6.9571,29.906-4.6562,0.0276,0.0108,0.0351,0.0204,0.0625,0.0312,0.3488,0.19527,0.71245,0.40036,1.0625,0.59375,0.0268,0.0151,0.0355,0.0163,0.0625,0.0312,5.2102,3.73,11.388,20.308,12.344,28.125,0.97608,7.983,2.5736,25.036,12.656,28.094,10.083,3.0574,20.495-9.8284,25.938-15.75,5.326-5.7952,19.993-15.67,26.406-15.688,0.0335,0.00017,0.0607,0,0.0937,0,0.38754,0.0449,0.76866,0.0824,1.1562,0.125,0.0108,0.001,0.0215-0.002,0.0312,0,6.1714,1.5252,17.772,14.356,21.688,21.219,3.9859,6.9853,11.27,21.877,21.781,21.156,10.511-0.72034,15.871-16.975,18.625-24.531,2.7094-7.4335,12.556-22.309,18.469-24.656,0.0933-0.0266,0.18785-0.0357,0.28125-0.0625,0.0933-0.0311,0.19025-0.0687,0.28125-0.0937,5.8274-1.5684,22.314,6.0977,28.75,11.125,6.3382,4.9506,19.484,15.894,28.781,10.938,9.2974-4.9562,7.5376-21.433,7.2188-29.469-0.31318-7.8948,2.7294-24.906,7.1562-29.469,0.009-0.006,0.0232-0.0243,0.0312-0.0312,0.30616-0.24144,0.60127-0.47549,0.90625-0.71875,0.0173-0.0108,0.0439-0.0508,0.0625-0.0625,5.4153-3.4021,23.15-2.7547,30.75-0.65625,7.7524,2.1404,23.411,7.5585,30.344-0.375s-0.75605-23.243-4.1562-30.531c-3.3295-7.1368-6.8814-24.483-4.4375-30.406,0.0108-0.0274,0.0511-0.0355,0.0625-0.0625,0.19462-0.34944,0.37009-0.71206,0.5625-1.0625,0.0173-0.0235,0.0448-0.0387,0.0625-0.0625,3.8369-5.1084,20.03-10.923,27.844-11.906,7.9795-1.0041,24.507-1.9543,27.875-11.938,3.368-9.9832-9.6123-21.18-15.531-26.625-5.9234-5.4489-15.966-20.079-15.688-26.25,0.0339-0.28999,0.061-0.58485,0.0937-0.875,1.3483-6.2166,14.361-18.39,21.25-22.281,7.0028-3.955,22.145-11.92,21.125-22.406-1.0202-10.486-16.921-15.161-24.469-17.938-7.4254-2.7312-22.31-12.619-24.656-18.531-0.0339-0.0845-0.0342-0.16702-0.0625-0.25-0.024-0.0836-0.0383-0.16655-0.0625-0.25-1.1417-6.2576,6.2419-22.5,11.094-28.75,4.932-6.3527,15.939-18.784,11.25-28.219-4.6887-9.4352-21.747-8.1668-29.781-7.8125-7.9042,0.34849-25.408-3.0661-29.844-7.625-0.18144-0.22878-0.34893-0.45949-0.53125-0.6875-3.5045-5.0875-2.7321-22.835-0.59375-30.594,2.1368-7.7534,7.2068-24.128-0.9375-30.812-8.1443-6.6842-22.669,1.2505-29.969,4.625-7.1817,3.3197-24.114,6.9609-30,4.5938-0.0151-0.006-0.0469,0.007-0.0625,0-0.3286-0.18381-0.67032-0.3491-1-0.53125-0.0242-0.0173-0.0381-0.0452-0.0625-0.0625-5.2102-3.73-11.388-20.308-12.344-28.125-0.97609-7.983-2.5736-25.036-12.656-28.094-10.083-3.0574-20.495,9.8284-25.938,15.75-5.3354,5.8055-20.042,15.736-26.438,15.719-0.022-0.00022-0.0407,0-0.0625,0-0.38751-0.0449-0.76873-0.11351-1.1562-0.15625-0.0108-0.001-0.0215,0.0331-0.0312,0.0312-6.1714-1.5252-17.772-14.356-21.688-21.219-3.9859-6.9853-11.239-21.908-21.75-21.188zm19.88,51.84c16.278-0.0527,32.701,1.8942,48.906,5.9375,69.143,17.251,123.84,70.088,143.47,138.59,19.632,68.506,1.1994,142.25-48.312,193.5-49.52,51.26-122.58,72.19-191.73,54.94-69.14-17.25-123.8-70.06-143.44-138.56-19.63-68.51-1.23-142.28,48.29-193.53,24.756-25.627,55.431-43.64,88.531-53.125,17.584-5.0391,35.833-7.6903,54.281-7.75zm0.0625,12.438c-1.0179,0.003-2.0459,0.0113-3.0625,0.0312-48.799,0.95528-96.068,21.03-130.88,57.062-46.41,48.043-63.683,117.22-45.281,181.44,18.402,64.214,69.72,113.77,134.53,129.94,64.812,16.171,133.34-3.4568,179.75-51.5,46.41-48.05,63.69-117.26,45.28-181.47-18.4-64.22-69.68-113.77-134.5-129.94-15.19-3.79-30.576-5.6116-45.844-5.5625zm2.8125,17.781c12.907,0.16943,25.882,1.8284,38.719,5.0312,58.683,14.642,105.09,59.452,121.75,117.59,16.662,58.142,1.0528,120.72-40.969,164.22-42.02,43.5-104.03,61.27-162.71,46.63-58.69-14.64-105.06-59.45-121.72-117.6-16.67-58.14-1.06-120.71,40.96-164.21,31.516-32.625,74.274-50.766,118.44-51.625,1.8402-0.0358,3.6874-0.0555,5.5312-0.0312zm58.66,67.53l-11.781,3.375c-7.4463,2.134-11.959,5.6598-13.531,10.531-1.5726,4.8717-0.84441,12.576,2.1875,23.156l1.75,6.125-13.344,3.8438,5.0938,17.656,13.312-3.8125,20.156,70.312,14.344-4.0938-20.156-70.312,16.875-4.8438-5.1-17.7-16.844,4.8438-2.1875-7.7188c-0.91031-3.4231-1.1722-5.8401-0.78125-7.3125,0.42359-1.4815,1.6882-2.5384,3.8438-3.1562l11.22-3.21-5.06-17.69zm-60.344,17.312-14.312,4.0938,13.406,46.75c-3.1595-4.3656-6.2706-7.4207-9.3125-9.1562-3.0243-1.7971-5.9982-2.2797-8.9375-1.4375-6.4992,1.8626-10.379,7.278-11.625,16.25-1.2131,8.9628,0.33106,20.875,4.5938,35.75,4.2027,14.666,9.1642,25.551,14.938,32.625,5.7733,7.074,11.823,9.7032,18.094,7.9062,3.2986-0.94526,5.7874-3.0535,7.4688-6.3125,1.714-3.2684,2.6084-7.6671,2.6875-13.188l3.7188,13.062,14.312-4.0938-35.031-122.25zm80.531,9.2188,5.625,19.656,45.344,11.219-32.562,33.406,5.5938,19.562,42.438-47.469-5.3125-18.531-61.125-17.844zm-145.03,44.5c-1.1582,0.025-2.3243,0.19434-3.5,0.53125-3.2986,0.94538-5.8173,3.0442-7.5312,6.3125-1.714,3.2685-2.5786,7.6765-2.625,13.188l-3.7812-13.219-14.312,4.0938,34.812,121.47,14.312-4.0938-13.156-45.875c3.1745,4.418,6.2882,7.5153,9.3125,9.3125,3.0419,1.7355,6.0294,2.1861,8.9688,1.3438,6.4992-1.8624,10.349-7.2873,11.562-16.25,1.2457-8.972-0.26861-20.875-4.5312-35.75-4.2027-14.665-9.1954-25.551-14.969-32.625-4.6909-5.7475-9.5434-8.546-14.562-8.4375zm56.594,4.3125c2.5322,0.0688,5.1061,1.8781,7.6875,5.375,3.1771,4.304,5.9747,10.671,8.4062,19.156,2.4315,8.4851,3.4466,15.417,3.0312,20.75-0.41542,5.3334-2.1786,8.4234-5.2812,9.3125-3.1026,0.88913-6.2306-0.81172-9.375-5.125-3.1445-4.3132-5.9435-10.702-8.375-19.188-2.4316-8.485-3.4452-15.395-3.0625-20.719,0.38272-5.324,2.1161-8.4233,5.2188-9.3125,0.58174-0.1667,1.1656-0.26587,1.75-0.25zm-101.22,5.5312-42.406,47.531,5.3125,18.531,61.125,17.781-5.5938-19.562-45.344-11.094,32.531-33.531-5.625-19.656zm43.781,10.594c2.5272,0.0702,5.0701,1.8705,7.625,5.375,3.1444,4.3133,5.9122,10.703,8.3438,19.188,2.4315,8.4851,3.4764,15.395,3.0938,20.719-0.38277,5.3241-2.1474,8.4234-5.25,9.3125-3.1026,0.88914-6.2291-0.82107-9.4062-5.125-3.1772-4.3039-5.9747-10.671-8.4062-19.156-2.4316-8.485-3.4466-15.417-3.0312-20.75,0.41538-5.3333,2.1786-8.4233,5.2812-9.3125,0.58174-0.16669,1.1668-0.2662,1.75-0.25z" fill-opacity="0.49803922" inkscape:connector-curvature="0" transform="matrix(0.65258781,0,0,0.65258781,-46.394269,64.938515)" filter="url(#filter3852)" fill="#000"/>
<path style="baseline-shift:baseline;block-progression:tb;color:#000000;direction:ltr;text-indent:0;text-align:start;enable-background:accumulate;text-transform:none;" inkscape:connector-curvature="0" fill="url(#linearGradient3826)" d="m193.29,321.47c-6.8596,0.47009-10.337,11.098-12.134,16.029-1.751,4.8039-8.1008,14.336-11.971,16.009-0.0958,0.0272-0.18974,0.0541-0.28551,0.0816-0.16416,0.047-0.32544,0.0951-0.48944,0.14275-0.0286,0.006-0.0524,0.036-0.0816,0.0408-4.0913,0.63367-14.285-4.1634-18.354-7.3416-3.8777-3.0288-11.662-9.5156-17.62-7.6475-0.39719,0.12446-0.80361,0.28727-1.1828,0.48944-6.0674,3.2344-4.9393,14.007-4.7313,19.251,0.20438,5.152-1.7812,16.254-4.6701,19.231-0.004,0.004-0.0165-0.005-0.0204,0-0.19982,0.15764-0.39236,0.33062-0.5914,0.48944-0.0175,0.0141-0.0437,0.0268-0.0612,0.0408-3.556,2.207-15.096,1.7953-20.047,0.42826-5.0591-1.3968-15.257-4.9326-19.782,0.24472-4.5244,5.1773,0.47298,15.168,2.6919,19.924,2.1728,4.6574,4.4907,15.957,2.8959,19.822-0.007,0.0179-0.0332,0.0434-0.0408,0.0612-0.11953,0.21478-0.24874,0.41685-0.36708,0.63219-0.006,0.008,0.006,0.0119,0,0.0204-2.4401,3.3448-13.089,7.1864-18.211,7.831-5.2074,0.65529-15.993,1.2958-18.191,7.8107-2.1979,6.5149,6.2729,13.822,10.136,17.375,3.7999,3.4956,10.234,12.766,10.278,16.906,0.00035,0.0305,0,0.0721,0,0.10197-0.0271,0.22997-0.0557,0.46326-0.0816,0.69338-0.8799,4.0568-9.3718,11.981-13.867,14.52-4.57,2.581-14.452,7.7787-13.786,14.622,0.66579,6.8433,11.022,9.9144,15.948,11.726,4.8458,1.7824,14.559,8.2348,16.09,12.093,0.003,0.007-0.003,0.0141,0,0.0204,0.0141,0.0476,0.0272,0.0951,0.0408,0.14275,0.0468,0.16354,0.0954,0.32616,0.14275,0.48944,0.006,0.0285,0.0156,0.0526,0.0204,0.0816,0.63119,4.091-4.1753,14.276-7.3416,18.354-3.2186,4.1457-10.401,12.238-7.3416,18.395,3.0598,6.1573,14.212,5.3295,19.455,5.0983,5.1582-0.22743,16.54,2.0213,19.435,4.9964,0.14389,0.18148,0.30387,0.34952,0.44866,0.53023,0.016,0.0251,0.025,0.0557,0.0408,0.0816,2.1549,3.5353,1.6165,14.804,0.24472,19.782-1.3944,5.0598-4.7031,15.746,0.61181,20.108s14.814-0.81604,19.578-3.0182c4.665-2.1564,15.627-4.5401,19.516-3.0386,0.018,0.007,0.0229,0.0133,0.0408,0.0204,0.22762,0.12743,0.46494,0.26127,0.69338,0.38747,0.0175,0.01,0.0232,0.0107,0.0408,0.0204,3.4001,2.4342,7.4316,13.253,8.0554,18.354,0.63698,5.2096,1.6795,16.338,8.2593,18.334,6.5798,1.9952,13.375-6.4139,16.926-10.278,3.4757-3.7819,13.047-10.226,17.232-10.237,0.0219,0.00011,0.0396,0,0.0612,0,0.2529,0.0293,0.50162,0.0538,0.75456,0.0816,0.007,0.00065,0.0141-0.001,0.0204,0,4.0274,0.99535,11.598,9.3688,14.153,13.847,2.6011,4.5585,7.3546,14.276,14.214,13.806,6.8596-0.47009,10.357-11.078,12.154-16.009,1.7681-4.851,8.194-14.559,12.052-16.09,0.0609-0.0174,0.12259-0.0233,0.18354-0.0408,0.0609-0.0203,0.12416-0.0448,0.18355-0.0612,3.8029-1.0235,14.562,3.9793,18.762,7.26,4.1362,3.2307,12.715,10.372,18.782,7.1377,6.0674-3.2344,4.9189-13.987,4.7109-19.231-0.20438-5.152,1.7811-16.254,4.6701-19.231,0.006-0.004,0.0152-0.0158,0.0204-0.0204,0.1998-0.15756,0.39238-0.3103,0.59141-0.46905,0.0113-0.007,0.0287-0.0332,0.0408-0.0408,3.5339-2.2202,15.107-1.7977,20.067-0.42826,5.0591,1.3968,15.278,4.9326,19.802-0.24472,4.5244-5.1773-0.49339-15.168-2.7123-19.924-2.1728-4.6574-4.4907-15.977-2.8958-19.843,0.007-0.0179,0.0333-0.0232,0.0408-0.0408,0.12701-0.22804,0.24152-0.46468,0.36708-0.69338,0.0113-0.0153,0.0292-0.0253,0.0408-0.0408,2.5039-3.3337,13.071-7.1282,18.17-7.7699,5.2073-0.65529,15.993-1.2754,18.191-7.7903,2.1979-6.5149-6.2729-13.822-10.136-17.375-3.8655-3.5559-10.419-13.103-10.237-17.13,0.0221-0.18925,0.0398-0.38167,0.0612-0.57102,0.8799-4.0569,9.3718-12.001,13.867-14.54,4.57-2.581,14.452-7.7787,13.786-14.622-0.66579-6.8433-11.042-9.894-15.968-11.706-4.8458-1.7824-14.559-8.2348-16.09-12.093-0.0221-0.0551-0.0223-0.10899-0.0408-0.16314-0.0157-0.0546-0.025-0.10869-0.0408-0.16315-0.74507-4.0836,4.0734-14.684,7.2396-18.762,3.2186-4.1457,10.401-12.258,7.3416-18.415-3.0598-6.1573-14.192-5.3296-19.435-5.0984-5.1582,0.22743-16.581-2.0009-19.476-4.976-0.11841-0.1493-0.22771-0.29985-0.34669-0.44865-2.287-3.32-1.7829-14.902-0.38747-19.965,1.3944-5.0598,4.7031-15.746-0.6118-20.108s-14.793,0.81604-19.557,3.0182c-4.6867,2.1664-15.736,4.5426-19.578,2.9978-0.01-0.004-0.0306,0.005-0.0408,0-0.21444-0.11995-0.43745-0.22782-0.65259-0.34668-0.0158-0.0113-0.0249-0.0295-0.0408-0.0408-3.4001-2.4342-7.4316-13.253-8.0554-18.354-0.63698-5.2096-1.6795-16.338-8.2593-18.334-6.5798-1.9952-13.375,6.4139-16.926,10.278-3.4818,3.7886-13.079,10.269-17.253,10.258-0.0144-0.00014-0.0266,0-0.0408,0-0.25288-0.0293-0.50166-0.0741-0.75455-0.10197-0.007-0.00065-0.0141,0.0216-0.0204,0.0204-4.0274-0.99536-11.598-9.3688-14.153-13.847-2.6011-4.5585-7.3342-14.297-14.194-13.827zm12.97,33.833c10.623-0.0344,21.34,1.2361,31.916,3.8747,45.122,11.258,80.815,45.739,93.626,90.445s0.78271,92.828-31.528,126.28c-32.311,33.448-79.991,47.11-125.11,35.852-45.122-11.258-80.794-45.718-93.606-90.424-12.811-44.706-0.80308-92.848,31.508-126.3,16.155-16.724,36.174-28.479,57.774-34.669,11.475-3.2884,23.384-5.0186,35.423-5.0576zm0.0408,8.1166c-0.66425,0.002-1.3351,0.007-1.9986,0.0204-31.845,0.6234-62.692,13.724-85.407,37.238-30.287,31.352-41.559,76.499-29.55,118.4,12.009,41.905,45.498,74.243,87.793,84.796s87.016-2.2558,117.3-33.608c30.287-31.352,41.559-76.519,29.55-118.42-12.009-41.905-45.478-74.243-87.773-84.796-9.913-2.4733-19.953-3.662-29.917-3.63zm1.8354,11.604c8.4227,0.11057,16.89,1.1932,25.267,3.2833,38.296,9.5549,68.579,38.798,79.453,76.74,10.873,37.943,0.68706,78.779-26.736,107.17-27.423,28.388-67.892,39.982-106.19,30.427-38.296-9.5549-68.559-38.798-79.432-76.74-10.873-37.943-0.68707-78.779,26.736-107.17,20.567-21.291,48.47-33.129,77.291-33.69,1.2009-0.0234,2.4064-0.0362,3.6096-0.0204zm38.278,44.07-7.6883,2.2025c-4.8594,1.3926-7.804,3.6935-8.8303,6.8726-1.0263,3.1792-0.55105,8.2071,1.4275,15.111l1.142,3.9971-8.708,2.5084,3.3241,11.522,8.6876-2.488,13.154,45.885,9.3606-2.6715-13.154-45.885,11.012-3.161-3.3241-11.543-10.992,3.161-1.4275-5.0372c-0.59405-2.2339-0.76495-3.8112-0.50983-4.772,0.27643-0.96684,1.1017-1.6566,2.5084-2.0597l7.3212-2.1005-3.3037-11.543zm-39.38,11.298-9.3402,2.6715,8.7488,30.508c-2.0618-2.8489-4.0921-4.8426-6.0772-5.9753-1.9736-1.1728-3.9143-1.4877-5.8325-0.93809-4.2413,1.2155-6.7734,4.7496-7.5863,10.605-0.79164,5.849,0.21605,13.623,2.9978,23.33,2.7426,9.5705,5.9804,16.674,9.748,21.291,3.7676,4.6164,7.7156,6.3322,11.808,5.1595,2.1526-0.61686,3.7768-1.9926,4.874-4.1195,1.1185-2.1329,1.7022-5.0034,1.7538-8.606l2.4268,8.5244,9.3402-2.6715-22.861-79.779zm52.554,6.016,3.6708,12.827,29.591,7.3212-21.25,21.801,3.6504,12.766,27.694-30.978-3.4669-12.093-39.889-11.645zm-94.646,29.04c-0.75586,0.0163-1.5168,0.12682-2.2841,0.34669-2.1526,0.61694-3.7963,1.9866-4.9148,4.1195-1.1185,2.133-1.6828,5.0096-1.713,8.606l-2.4676-8.6264-9.3402,2.6715,22.718,79.269,9.3402-2.6715-8.5856-29.937c2.0716,2.8832,4.1036,4.9044,6.0772,6.0772,1.9851,1.1326,3.9347,1.4266,5.8529,0.87691,4.2413-1.2154,6.7539-4.7556,7.5456-10.605,0.81293-5.855-0.17529-13.623-2.957-23.33-2.7426-9.5705-6.0008-16.674-9.7684-21.291-3.0612-3.7507-6.2279-5.577-9.5033-5.5062zm36.932,2.8143c1.6525,0.0449,3.3322,1.2256,5.0168,3.5076,2.0733,2.8087,3.899,6.964,5.4858,12.501,1.5868,5.5372,2.2492,10.061,1.9782,13.541-0.2711,3.4805-1.4218,5.497-3.4465,6.0772-2.0248,0.58024-4.066-0.52972-6.118-3.3445s-3.8786-6.9843-5.4654-12.522c-1.5868-5.5372-2.2483-10.046-1.9986-13.521,0.24976-3.4744,1.381-5.497,3.4057-6.0772,0.37964-0.10878,0.76068-0.1735,1.142-0.16314zm-66.054,3.6096-27.674,31.018,3.4669,12.093,39.889,11.604-3.6504-12.766-29.591-7.2396,21.229-21.882-3.6708-12.827zm28.571,6.9134c1.6492,0.0458,3.3087,1.2207,4.976,3.5077,2.052,2.8148,3.8582,6.9843,5.445,12.522,1.5868,5.5373,2.2687,10.046,2.0189,13.521-0.24979,3.4744-1.4014,5.497-3.4261,6.0772-2.0248,0.58024-4.0651-0.53582-6.1384-3.3445-2.0734-2.8087-3.899-6.9639-5.4858-12.501-1.5868-5.5372-2.2492-10.061-1.9782-13.541,0.27107-3.4805,1.4217-5.4969,3.4465-6.0772,0.37964-0.10878,0.76143-0.17372,1.142-0.16315z"/>
</g>
</svg>
