<?xml version="1.0" encoding="UTF-8" standalone="no"?>
<!-- Created with Inkscape (http://www.inkscape.org/) -->
<svg xmlns:inkscape="http://www.inkscape.org/namespaces/inkscape" xmlns:rdf="http://www.w3.org/1999/02/22-rdf-syntax-ns#" xmlns="http://www.w3.org/2000/svg" inkscape:version="0.48.4 r9939" height="335.89" width="335.84" version="1.1" xmlns:cc="http://creativecommons.org/ns#" xmlns:dc="http://purl.org/dc/elements/1.1/" sodipodi:docname="pdf2htmlEX-plain.svg" xmlns:sodipodi="http://sodipodi.sourceforge.net/DTD/sodipodi-0.dtd">
 <title>pdf2htmlEX logo shadow</title>
 <sodipodi:namedview bordercolor="#666666" inkscape:pageshadow="2" inkscape:window-y="29" fit-margin-left="0" pagecolor="#ffffff" inkscape:zoom="1.2102273" inkscape:window-maximized="0" inkscape:window-x="0" showgrid="false" borderopacity="1.0" inkscape:current-layer="g20" inkscape:cx="156.83326" inkscape:cy="170.05669" inkscape:pageopacity="0.0" fit-margin-right="0" fit-margin-bottom="0" inkscape:window-height="778" fit-margin-top="0" inkscape:window-width="1117" inkscape:document-units="px"/>
 <defs>
  <filter id="filter3852" inkscape:collect="always" color-interpolation-filters="sRGB">
   <feGaussianBlur stdDeviation="2.513027" inkscape:collect="always"/>
  </filter>
 </defs>
 <metadata>
  <rdf:RDF>
   <cc:Work rdf:about="">
    <dc:format>image/svg+xml</dc:format>
    <dc:type rdf:resource="http://purl.org/dc/dcmitype/StillImage"/>
    <dc:title>pdf2htmlEX logo shadow</dc:title>
    <cc:license rdf:resource="http://creativecommons.org/licenses/by/3.0/"/>
    <dc:date>2013-09-27</dc:date>
    <dc:creator>
     <cc:Agent>
      <dc:title>Lu Wang &lt;coolwanglu@gmail.com&gt;</dc:title>
     </cc:Agent>
    </dc:creator>
   </cc:Work>
   <cc:License rdf:about="http://creativecommons.org/licenses/by/3.0/">
    <cc:permits rdf:resource="http://creativecommons.org/ns#Reproduction"/>
    <cc:permits rdf:resource="http://creativecommons.org/ns#Distribution"/>
    <cc:requires rdf:resource="http://creativecommons.org/ns#Notice"/>
    <cc:requires rdf:resource="http://creativecommons.org/ns#Attribution"/>
    <cc:permits rdf:resource="http://creativecommons.org/ns#DerivativeWorks"/>
   </cc:License>
  </rdf:RDF>
 </metadata>
 <g inkscape:label="Layer 1" transform="translate(-42.058014,-320.81929)" inkscape:groupmode="layer">
  <path style="direction:ltr;enable-background:accumulate;baseline-shift:baseline;block-progression:tb;text-indent:0;color:#000000;text-transform:none;text-align:start;" d="m372.34,398.16c-10.511,0.72034-15.84,17.006-18.594,24.562-2.6831,7.3614-12.413,21.968-18.344,24.531-0.14688,0.0417-0.29075,0.0829-0.4375,0.125-0.25155,0.0721-0.4987,0.14574-0.75,0.21875-0.0438,0.009-0.0803,0.0552-0.125,0.0625-6.2693,0.97101-21.89-6.3798-28.125-11.25-5.942-4.6412-17.871-14.581-27-11.719-0.60863,0.19073-1.2314,0.44021-1.8125,0.75-9.2975,4.9562-7.5688,21.464-7.25,29.5,0.31318,7.8948-2.7294,24.906-7.1562,29.469-0.006,0.006-0.0253-0.007-0.0312,0-0.3062,0.24155-0.60124,0.50662-0.90625,0.75-0.0268,0.0216-0.067,0.0411-0.0937,0.0625-5.4491,3.3819-23.132,2.751-30.719,0.65625-7.7524-2.1405-23.38-7.5585-30.312,0.375-6.933,7.9335,0.72478,23.243,4.125,30.531,3.3295,7.1368,6.8814,24.452,4.4375,30.375-0.0108,0.0274-0.0509,0.0666-0.0625,0.0937-0.18316,0.32912-0.38116,0.63876-0.5625,0.96875-0.009,0.013,0.009,0.0182,0,0.0312-3.7391,5.1254-20.056,11.012-27.906,12-7.9796,1.0041-24.507,1.9856-27.875,11.969-3.368,9.9832,9.6123,21.18,15.531,26.625,5.8228,5.3565,15.682,19.562,15.75,25.906,0.00054,0.0467,0,0.1105,0,0.15625-0.0415,0.35239-0.0853,0.70988-0.125,1.0625-1.3483,6.2166-14.361,18.359-21.25,22.25-7.0028,3.955-22.145,11.92-21.125,22.406,1.0202,10.486,16.889,15.192,24.438,17.969,7.4255,2.7312,22.31,12.619,24.656,18.531,0.004,0.0108-0.005,0.0216,0,0.0312,0.0216,0.073,0.0416,0.14574,0.0625,0.21875,0.0717,0.2506,0.14618,0.49979,0.21875,0.75,0.009,0.0436,0.0239,0.0805,0.0312,0.125,0.96721,6.2688-6.3981,21.875-11.25,28.125-4.932,6.3527-15.939,18.752-11.25,28.188,4.6887,9.4352,21.778,8.1668,29.812,7.8125,7.9042-0.3485,25.345,3.0974,29.781,7.6562,0.22049,0.27808,0.46564,0.53559,0.6875,0.8125,0.0246,0.0384,0.0383,0.0853,0.0625,0.125,3.3021,5.4173,2.477,22.685,0.375,30.312-2.1368,7.7534-7.2068,24.128,0.9375,30.812,8.1443,6.6842,22.7-1.2505,30-4.625,7.1485-3.3044,23.946-6.9571,29.906-4.6562,0.0276,0.0108,0.0351,0.0204,0.0625,0.0312,0.3488,0.19527,0.71245,0.40036,1.0625,0.59375,0.0268,0.0151,0.0355,0.0163,0.0625,0.0312,5.2102,3.73,11.388,20.308,12.344,28.125,0.97608,7.983,2.5736,25.036,12.656,28.094,10.083,3.0574,20.495-9.8284,25.938-15.75,5.326-5.7952,19.993-15.67,26.406-15.688,0.0335,0.00017,0.0607,0,0.0937,0,0.38754,0.0449,0.76866,0.0824,1.1562,0.125,0.0108,0.001,0.0215-0.002,0.0312,0,6.1714,1.5252,17.772,14.356,21.688,21.219,3.9859,6.9853,11.27,21.877,21.781,21.156,10.511-0.72034,15.871-16.975,18.625-24.531,2.7094-7.4335,12.556-22.309,18.469-24.656,0.0933-0.0266,0.18785-0.0357,0.28125-0.0625,0.0933-0.0311,0.19025-0.0687,0.28125-0.0937,5.8274-1.5684,22.314,6.0977,28.75,11.125,6.3382,4.9506,19.484,15.894,28.781,10.938,9.2974-4.9562,7.5376-21.433,7.2188-29.469-0.31318-7.8948,2.7294-24.906,7.1562-29.469,0.009-0.006,0.0232-0.0243,0.0312-0.0312,0.30616-0.24144,0.60127-0.47549,0.90625-0.71875,0.0173-0.0108,0.0439-0.0508,0.0625-0.0625,5.4153-3.4021,23.15-2.7547,30.75-0.65625,7.7524,2.1404,23.411,7.5585,30.344-0.375s-0.75605-23.243-4.1562-30.531c-3.3295-7.1368-6.8814-24.483-4.4375-30.406,0.0108-0.0274,0.0511-0.0355,0.0625-0.0625,0.19462-0.34944,0.37009-0.71206,0.5625-1.0625,0.0173-0.0235,0.0448-0.0387,0.0625-0.0625,3.8369-5.1084,20.03-10.923,27.844-11.906,7.9795-1.0041,24.507-1.9543,27.875-11.938,3.368-9.9832-9.6123-21.18-15.531-26.625-5.9234-5.4489-15.966-20.079-15.688-26.25,0.0339-0.28999,0.061-0.58485,0.0937-0.875,1.3483-6.2166,14.361-18.39,21.25-22.281,7.0028-3.955,22.145-11.92,21.125-22.406-1.0202-10.486-16.921-15.161-24.469-17.938-7.4254-2.7312-22.31-12.619-24.656-18.531-0.0339-0.0845-0.0342-0.16702-0.0625-0.25-0.024-0.0836-0.0383-0.16655-0.0625-0.25-1.1417-6.2576,6.2419-22.5,11.094-28.75,4.932-6.3527,15.939-18.784,11.25-28.219-4.6887-9.4352-21.747-8.1668-29.781-7.8125-7.9042,0.34849-25.408-3.0661-29.844-7.625-0.18144-0.22878-0.34893-0.45949-0.53125-0.6875-3.5045-5.0875-2.7321-22.835-0.59375-30.594,2.1368-7.7534,7.2068-24.128-0.9375-30.812-8.1443-6.6842-22.669,1.2505-29.969,4.625-7.1817,3.3197-24.114,6.9609-30,4.5938-0.0151-0.006-0.0469,0.007-0.0625,0-0.3286-0.18381-0.67032-0.3491-1-0.53125-0.0242-0.0173-0.0381-0.0452-0.0625-0.0625-5.2102-3.73-11.388-20.308-12.344-28.125-0.97609-7.983-2.5736-25.036-12.656-28.094-10.083-3.0574-20.495,9.8284-25.938,15.75-5.3354,5.8055-20.042,15.736-26.438,15.719-0.022-0.00022-0.0407,0-0.0625,0-0.38751-0.0449-0.76873-0.11351-1.1562-0.15625-0.0108-0.001-0.0215,0.0331-0.0312,0.0312-6.1714-1.5252-17.772-14.356-21.688-21.219-3.9859-6.9853-11.239-21.908-21.75-21.188zm19.88,51.84c16.278-0.0527,32.701,1.8942,48.906,5.9375,69.143,17.251,123.84,70.088,143.47,138.59,19.632,68.506,1.1994,142.25-48.312,193.5-49.52,51.26-122.58,72.19-191.73,54.94-69.14-17.25-123.8-70.06-143.44-138.56-19.63-68.51-1.23-142.28,48.29-193.53,24.756-25.627,55.431-43.64,88.531-53.125,17.584-5.0391,35.833-7.6903,54.281-7.75zm0.0625,12.438c-1.0179,0.003-2.0459,0.0113-3.0625,0.0312-48.799,0.95528-96.068,21.03-130.88,57.062-46.41,48.043-63.683,117.22-45.281,181.44,18.402,64.214,69.72,113.77,134.53,129.94,64.812,16.171,133.34-3.4568,179.75-51.5,46.41-48.05,63.69-117.26,45.28-181.47-18.4-64.22-69.68-113.77-134.5-129.94-15.19-3.79-30.576-5.6116-45.844-5.5625zm2.8125,17.781c12.907,0.16943,25.882,1.8284,38.719,5.0312,58.683,14.642,105.09,59.452,121.75,117.59,16.662,58.142,1.0528,120.72-40.969,164.22-42.02,43.5-104.03,61.27-162.71,46.63-58.69-14.64-105.06-59.45-121.72-117.6-16.67-58.14-1.06-120.71,40.96-164.21,31.516-32.625,74.274-50.766,118.44-51.625,1.8402-0.0358,3.6874-0.0555,5.5312-0.0312zm58.66,67.53-11.781,3.375c-7.4463,2.134-11.959,5.6598-13.531,10.531-1.5726,4.8717-0.84441,12.576,2.1875,23.156l1.75,6.125-13.344,3.8438,5.0938,17.656,13.312-3.8125,20.156,70.312,14.344-4.0938-20.156-70.312,16.875-4.8438-5.1-17.7-16.844,4.8438-2.1875-7.7188c-0.91031-3.4231-1.1722-5.8401-0.78125-7.3125,0.42359-1.4815,1.6882-2.5384,3.8438-3.1562l11.22-3.21-5.06-17.69zm-60.344,17.312-14.312,4.0938,13.406,46.75c-3.1595-4.3656-6.2706-7.4207-9.3125-9.1562-3.0243-1.7971-5.9982-2.2797-8.9375-1.4375-6.4992,1.8626-10.379,7.278-11.625,16.25-1.2131,8.9628,0.33106,20.875,4.5938,35.75,4.2027,14.666,9.1642,25.551,14.938,32.625,5.7733,7.074,11.823,9.7032,18.094,7.9062,3.2986-0.94526,5.7874-3.0535,7.4688-6.3125,1.714-3.2684,2.6084-7.6671,2.6875-13.188l3.7188,13.062,14.312-4.0938-35.031-122.25zm80.531,9.2188,5.625,19.656,45.344,11.219-32.562,33.406,5.5938,19.562,42.438-47.469-5.3125-18.531-61.125-17.844zm-145.03,44.5c-1.1582,0.025-2.3243,0.19434-3.5,0.53125-3.2986,0.94538-5.8173,3.0442-7.5312,6.3125-1.714,3.2685-2.5786,7.6765-2.625,13.188l-3.7812-13.219-14.312,4.0938,34.812,121.47,14.312-4.0938-13.156-45.875c3.1745,4.418,6.2882,7.5153,9.3125,9.3125,3.0419,1.7355,6.0294,2.1861,8.9688,1.3438,6.4992-1.8624,10.349-7.2873,11.562-16.25,1.2457-8.972-0.26861-20.875-4.5312-35.75-4.2027-14.665-9.1954-25.551-14.969-32.625-4.6909-5.7475-9.5434-8.546-14.562-8.4375zm56.594,4.3125c2.5322,0.0688,5.1061,1.8781,7.6875,5.375,3.1771,4.304,5.9747,10.671,8.4062,19.156,2.4315,8.4851,3.4466,15.417,3.0312,20.75-0.41542,5.3334-2.1786,8.4234-5.2812,9.3125-3.1026,0.88913-6.2306-0.81172-9.375-5.125-3.1445-4.3132-5.9435-10.702-8.375-19.188-2.4316-8.485-3.4452-15.395-3.0625-20.719,0.38272-5.324,2.1161-8.4233,5.2188-9.3125,0.58174-0.1667,1.1656-0.26587,1.75-0.25zm-101.22,5.5312-42.406,47.531,5.3125,18.531,61.125,17.781-5.5938-19.562-45.344-11.094,32.531-33.531-5.625-19.656zm43.781,10.594c2.5272,0.0702,5.0701,1.8705,7.625,5.375,3.1444,4.3133,5.9122,10.703,8.3438,19.188,2.4315,8.4851,3.4764,15.395,3.0938,20.719-0.38277,5.3241-2.1474,8.4234-5.25,9.3125-3.1026,0.88914-6.2291-0.82107-9.4062-5.125-3.1772-4.3039-5.9747-10.671-8.4062-19.156-2.4316-8.485-3.4466-15.417-3.0312-20.75,0.41538-5.3333,2.1786-8.4233,5.2812-9.3125,0.58174-0.16669,1.1668-0.2662,1.75-0.25z" fill-opacity="0.49803922" transform="matrix(0.65258781,0,0,0.65258781,-46.394269,64.938515)" inkscape:connector-curvature="0" filter="url(#filter3852)" fill="#000"/>
 </g>
</svg>
