<?xml version="1.0" encoding="UTF-8" standalone="no"?>
<!-- Created with Inkscape (http://www.inkscape.org/) -->
<svg xmlns:inkscape="http://www.inkscape.org/namespaces/inkscape" xmlns:rdf="http://www.w3.org/1999/02/22-rdf-syntax-ns#" xmlns="http://www.w3.org/2000/svg" sodipodi:docname="pdf2htmlEX-plain.svg" height="328.02" width="327.97" version="1.1" xmlns:cc="http://creativecommons.org/ns#" xmlns:dc="http://purl.org/dc/elements/1.1/" inkscape:version="0.48.4 r9939" xmlns:sodipodi="http://sodipodi.sourceforge.net/DTD/sodipodi-0.dtd">
 <title>pdf2htmlEX logo plain</title>
 <sodipodi:namedview bordercolor="#666666" inkscape:pageshadow="2" inkscape:window-y="29" fit-margin-left="0" pagecolor="#ffffff" inkscape:window-maximized="0" inkscape:zoom="0.85575991" inkscape:window-x="0" showgrid="false" borderopacity="1.0" inkscape:current-layer="g17" inkscape:cx="67.386497" inkscape:cy="160.35274" fit-margin-top="0" fit-margin-right="0" fit-margin-bottom="0" inkscape:window-height="778" inkscape:pageopacity="0.0" inkscape:window-width="1117" inkscape:document-units="px"/>
 <defs>
  <linearGradient id="linearGradient3826" y2="856.05" gradientUnits="userSpaceOnUse" x2="216.18" gradientTransform="matrix(0.65258781,0,0,0.65258781,-48.394269,62.938515)" y1="445.88" x1="563.24" inkscape:collect="always">
   <stop stop-color="#ff007e" offset="0"/>
   <stop stop-color="#ff870d" offset="1"/>
  </linearGradient>
 </defs>
 <metadata>
  <rdf:RDF>
   <cc:Work rdf:about="">
    <dc:format>image/svg+xml</dc:format>
    <dc:type rdf:resource="http://purl.org/dc/dcmitype/StillImage"/>
    <dc:title>pdf2htmlEX logo plain</dc:title>
    <cc:license rdf:resource="http://creativecommons.org/licenses/by/3.0/"/>
    <dc:date>2013-09-27</dc:date>
    <dc:creator>
     <cc:Agent>
      <dc:title>Lu Wang &lt;coolwanglu@gmail.com&gt;</dc:title>
     </cc:Agent>
    </dc:creator>
   </cc:Work>
   <cc:License rdf:about="http://creativecommons.org/licenses/by/3.0/">
    <cc:permits rdf:resource="http://creativecommons.org/ns#Reproduction"/>
    <cc:permits rdf:resource="http://creativecommons.org/ns#Distribution"/>
    <cc:requires rdf:resource="http://creativecommons.org/ns#Notice"/>
    <cc:requires rdf:resource="http://creativecommons.org/ns#Attribution"/>
    <cc:permits rdf:resource="http://creativecommons.org/ns#DerivativeWorks"/>
   </cc:License>
  </rdf:RDF>
 </metadata>
 <g inkscape:label="Layer 1" transform="translate(-42.693514,-321.4538)" inkscape:groupmode="layer">
  <path d="m193.29,321.47c-6.8596,0.47009-10.337,11.098-12.134,16.029-1.751,4.8039-8.1008,14.336-11.971,16.009-0.0958,0.0272-0.18974,0.0541-0.28551,0.0816-0.16416,0.047-0.32544,0.0951-0.48944,0.14275-0.0286,0.006-0.0524,0.036-0.0816,0.0408-4.0913,0.63367-14.285-4.1634-18.354-7.3416-3.8777-3.0288-11.662-9.5156-17.62-7.6475-0.39719,0.12446-0.80361,0.28727-1.1828,0.48944-6.0674,3.2344-4.9393,14.007-4.7313,19.251,0.20438,5.152-1.7812,16.254-4.6701,19.231-0.004,0.004-0.0165-0.005-0.0204,0-0.19982,0.15764-0.39236,0.33062-0.5914,0.48944-0.0175,0.0141-0.0437,0.0268-0.0612,0.0408-3.556,2.207-15.096,1.7953-20.047,0.42826-5.0591-1.3968-15.257-4.9326-19.782,0.24472-4.5244,5.1773,0.47298,15.168,2.6919,19.924,2.1728,4.6574,4.4907,15.957,2.8959,19.822-0.007,0.0179-0.0332,0.0434-0.0408,0.0612-0.11953,0.21478-0.24874,0.41685-0.36708,0.63219-0.006,0.008,0.006,0.0119,0,0.0204-2.4401,3.3448-13.089,7.1864-18.211,7.831-5.2074,0.65529-15.993,1.2958-18.191,7.8107-2.1979,6.5149,6.2729,13.822,10.136,17.375,3.7999,3.4956,10.234,12.766,10.278,16.906,0.00035,0.0305,0,0.0721,0,0.10197-0.0271,0.22997-0.0557,0.46326-0.0816,0.69338-0.8799,4.0568-9.3718,11.981-13.867,14.52-4.57,2.581-14.452,7.7787-13.786,14.622,0.66579,6.8433,11.022,9.9144,15.948,11.726,4.8458,1.7824,14.559,8.2348,16.09,12.093,0.003,0.007-0.003,0.0141,0,0.0204,0.0141,0.0476,0.0272,0.0951,0.0408,0.14275,0.0468,0.16354,0.0954,0.32616,0.14275,0.48944,0.006,0.0285,0.0156,0.0526,0.0204,0.0816,0.63119,4.091-4.1753,14.276-7.3416,18.354-3.2186,4.1457-10.401,12.238-7.3416,18.395,3.0598,6.1573,14.212,5.3295,19.455,5.0983,5.1582-0.22743,16.54,2.0213,19.435,4.9964,0.14389,0.18148,0.30387,0.34952,0.44866,0.53023,0.016,0.0251,0.025,0.0557,0.0408,0.0816,2.1549,3.5353,1.6165,14.804,0.24472,19.782-1.3944,5.0598-4.7031,15.746,0.61181,20.108s14.814-0.81604,19.578-3.0182c4.665-2.1564,15.627-4.5401,19.516-3.0386,0.018,0.007,0.0229,0.0133,0.0408,0.0204,0.22762,0.12743,0.46494,0.26127,0.69338,0.38747,0.0175,0.01,0.0232,0.0107,0.0408,0.0204,3.4001,2.4342,7.4316,13.253,8.0554,18.354,0.63698,5.2096,1.6795,16.338,8.2593,18.334,6.5798,1.9952,13.375-6.4139,16.926-10.278,3.4757-3.7819,13.047-10.226,17.232-10.237,0.0219,0.00011,0.0396,0,0.0612,0,0.2529,0.0293,0.50162,0.0538,0.75456,0.0816,0.007,0.00065,0.0141-0.001,0.0204,0,4.0274,0.99535,11.598,9.3688,14.153,13.847,2.6011,4.5585,7.3546,14.276,14.214,13.806,6.8596-0.47009,10.357-11.078,12.154-16.009,1.7681-4.851,8.194-14.559,12.052-16.09,0.0609-0.0174,0.12259-0.0233,0.18354-0.0408,0.0609-0.0203,0.12416-0.0448,0.18355-0.0612,3.8029-1.0235,14.562,3.9793,18.762,7.26,4.1362,3.2307,12.715,10.372,18.782,7.1377,6.0674-3.2344,4.9189-13.987,4.7109-19.231-0.20438-5.152,1.7811-16.254,4.6701-19.231,0.006-0.004,0.0152-0.0158,0.0204-0.0204,0.1998-0.15756,0.39238-0.3103,0.59141-0.46905,0.0113-0.007,0.0287-0.0332,0.0408-0.0408,3.5339-2.2202,15.107-1.7977,20.067-0.42826,5.0591,1.3968,15.278,4.9326,19.802-0.24472,4.5244-5.1773-0.49339-15.168-2.7123-19.924-2.1728-4.6574-4.4907-15.977-2.8958-19.843,0.007-0.0179,0.0333-0.0232,0.0408-0.0408,0.12701-0.22804,0.24152-0.46468,0.36708-0.69338,0.0113-0.0153,0.0292-0.0253,0.0408-0.0408,2.5039-3.3337,13.071-7.1282,18.17-7.7699,5.2073-0.65529,15.993-1.2754,18.191-7.7903,2.1979-6.5149-6.2729-13.822-10.136-17.375-3.8655-3.5559-10.419-13.103-10.237-17.13,0.0221-0.18925,0.0398-0.38167,0.0612-0.57102,0.8799-4.0569,9.3718-12.001,13.867-14.54,4.57-2.581,14.452-7.7787,13.786-14.622-0.66579-6.8433-11.042-9.894-15.968-11.706-4.8458-1.7824-14.559-8.2348-16.09-12.093-0.0221-0.0551-0.0223-0.10899-0.0408-0.16314-0.0157-0.0546-0.025-0.10869-0.0408-0.16315-0.74507-4.0836,4.0734-14.684,7.2396-18.762,3.2186-4.1457,10.401-12.258,7.3416-18.415-3.0598-6.1573-14.192-5.3296-19.435-5.0984-5.1582,0.22743-16.581-2.0009-19.476-4.976-0.11841-0.1493-0.22771-0.29985-0.34669-0.44865-2.287-3.32-1.7829-14.902-0.38747-19.965,1.3944-5.0598,4.7031-15.746-0.6118-20.108s-14.793,0.81604-19.557,3.0182c-4.6867,2.1664-15.736,4.5426-19.578,2.9978-0.01-0.004-0.0306,0.005-0.0408,0-0.21444-0.11995-0.43745-0.22782-0.65259-0.34668-0.0158-0.0113-0.0249-0.0295-0.0408-0.0408-3.4001-2.4342-7.4316-13.253-8.0554-18.354-0.63698-5.2096-1.6795-16.338-8.2593-18.334-6.5798-1.9952-13.375,6.4139-16.926,10.278-3.4818,3.7886-13.079,10.269-17.253,10.258-0.0144-0.00014-0.0266,0-0.0408,0-0.25288-0.0293-0.50166-0.0741-0.75455-0.10197-0.007-0.00065-0.0141,0.0216-0.0204,0.0204-4.0274-0.99536-11.598-9.3688-14.153-13.847-2.6011-4.5585-7.3342-14.297-14.194-13.827zm12.97,33.833c10.623-0.0344,21.34,1.2361,31.916,3.8747,45.122,11.258,80.815,45.739,93.626,90.445s0.78271,92.828-31.528,126.28c-32.311,33.448-79.991,47.11-125.11,35.852-45.122-11.258-80.794-45.718-93.606-90.424-12.811-44.706-0.80308-92.848,31.508-126.3,16.155-16.724,36.174-28.479,57.774-34.669,11.475-3.2884,23.384-5.0186,35.423-5.0576zm0.0408,8.1166c-0.66425,0.002-1.3351,0.007-1.9986,0.0204-31.845,0.6234-62.692,13.724-85.407,37.238-30.287,31.352-41.559,76.499-29.55,118.4,12.009,41.905,45.498,74.243,87.793,84.796s87.016-2.2558,117.3-33.608c30.287-31.352,41.559-76.519,29.55-118.42-12.009-41.905-45.478-74.243-87.773-84.796-9.913-2.4733-19.953-3.662-29.917-3.63zm1.8354,11.604c8.4227,0.11057,16.89,1.1932,25.267,3.2833,38.296,9.5549,68.579,38.798,79.453,76.74,10.873,37.943,0.68706,78.779-26.736,107.17-27.423,28.388-67.892,39.982-106.19,30.427-38.296-9.5549-68.559-38.798-79.432-76.74-10.873-37.943-0.68707-78.779,26.736-107.17,20.567-21.291,48.47-33.129,77.291-33.69,1.2009-0.0234,2.4064-0.0362,3.6096-0.0204zm38.278,44.07-7.6883,2.2025c-4.8594,1.3926-7.804,3.6935-8.8303,6.8726-1.0263,3.1792-0.55105,8.2071,1.4275,15.111l1.142,3.9971-8.708,2.5084,3.3241,11.522,8.6876-2.488,13.154,45.885,9.3606-2.6715-13.154-45.885,11.012-3.161-3.3241-11.543-10.992,3.161-1.4275-5.0372c-0.59405-2.2339-0.76495-3.8112-0.50983-4.772,0.27643-0.96684,1.1017-1.6566,2.5084-2.0597l7.3212-2.1005-3.3037-11.543zm-39.38,11.298-9.3402,2.6715,8.7488,30.508c-2.0618-2.8489-4.0921-4.8426-6.0772-5.9753-1.9736-1.1728-3.9143-1.4877-5.8325-0.93809-4.2413,1.2155-6.7734,4.7496-7.5863,10.605-0.79164,5.849,0.21605,13.623,2.9978,23.33,2.7426,9.5705,5.9804,16.674,9.748,21.291,3.7676,4.6164,7.7156,6.3322,11.808,5.1595,2.1526-0.61686,3.7768-1.9926,4.874-4.1195,1.1185-2.1329,1.7022-5.0034,1.7538-8.606l2.4268,8.5244,9.3402-2.6715-22.861-79.779zm52.554,6.016,3.6708,12.827,29.591,7.3212-21.25,21.801,3.6504,12.766,27.694-30.978-3.4669-12.093-39.889-11.645zm-94.646,29.04c-0.75586,0.0163-1.5168,0.12682-2.2841,0.34669-2.1526,0.61694-3.7963,1.9866-4.9148,4.1195-1.1185,2.133-1.6828,5.0096-1.713,8.606l-2.4676-8.6264-9.3402,2.6715,22.718,79.269,9.3402-2.6715-8.5856-29.937c2.0716,2.8832,4.1036,4.9044,6.0772,6.0772,1.9851,1.1326,3.9347,1.4266,5.8529,0.87691,4.2413-1.2154,6.7539-4.7556,7.5456-10.605,0.81293-5.855-0.17529-13.623-2.957-23.33-2.7426-9.5705-6.0008-16.674-9.7684-21.291-3.0612-3.7507-6.2279-5.577-9.5033-5.5062zm36.932,2.8143c1.6525,0.0449,3.3322,1.2256,5.0168,3.5076,2.0733,2.8087,3.899,6.964,5.4858,12.501,1.5868,5.5372,2.2492,10.061,1.9782,13.541-0.2711,3.4805-1.4218,5.497-3.4465,6.0772-2.0248,0.58024-4.066-0.52972-6.118-3.3445s-3.8786-6.9843-5.4654-12.522c-1.5868-5.5372-2.2483-10.046-1.9986-13.521,0.24976-3.4744,1.381-5.497,3.4057-6.0772,0.37964-0.10878,0.76068-0.1735,1.142-0.16314zm-66.054,3.6096-27.674,31.018,3.4669,12.093,39.889,11.604-3.6504-12.766-29.591-7.2396,21.229-21.882-3.6708-12.827zm28.571,6.9134c1.6492,0.0458,3.3087,1.2207,4.976,3.5077,2.052,2.8148,3.8582,6.9843,5.445,12.522,1.5868,5.5373,2.2687,10.046,2.0189,13.521-0.24979,3.4744-1.4014,5.497-3.4261,6.0772-2.0248,0.58024-4.0651-0.53582-6.1384-3.3445-2.0734-2.8087-3.899-6.9639-5.4858-12.501-1.5868-5.5372-2.2492-10.061-1.9782-13.541,0.27107-3.4805,1.4217-5.4969,3.4465-6.0772,0.37964-0.10878,0.76143-0.17372,1.142-0.16315z" style="direction:ltr;baseline-shift:baseline;block-progression:tb;text-indent:0;color:#000000;enable-background:accumulate;text-transform:none;text-align:start;" inkscape:connector-curvature="0" fill="url(#linearGradient3826)"/>
 </g>
</svg>
