<?xml version="1.0" encoding="UTF-8" standalone="no"?>
<!-- Created with Inkscape (http://www.inkscape.org/) -->

<svg
   xmlns:dc="http://purl.org/dc/elements/1.1/"
   xmlns:cc="http://creativecommons.org/ns#"
   xmlns:rdf="http://www.w3.org/1999/02/22-rdf-syntax-ns#"
   xmlns:svg="http://www.w3.org/2000/svg"
   xmlns="http://www.w3.org/2000/svg"
   xmlns:xlink="http://www.w3.org/1999/xlink"
   xmlns:sodipodi="http://sodipodi.sourceforge.net/DTD/sodipodi-0.dtd"
   xmlns:inkscape="http://www.inkscape.org/namespaces/inkscape"
   width="517.78876"
   height="517.86438"
   id="svg2"
   version="1.1"
   inkscape:version="0.48.4 r9939"
   sodipodi:docname="pdf2htmlEX.svg">
  <sodipodi:namedview
     id="base"
     pagecolor="#ffffff"
     bordercolor="#666666"
     borderopacity="1.0"
     inkscape:pageopacity="0.0"
     inkscape:pageshadow="2"
     inkscape:zoom="0.85575991"
     inkscape:cx="85.857066"
     inkscape:cy="256.19918"
     inkscape:document-units="px"
     inkscape:current-layer="layer1"
     showgrid="false"
     inkscape:window-width="1920"
     inkscape:window-height="1057"
     inkscape:window-x="0"
     inkscape:window-y="1223"
     inkscape:window-maximized="0"
     fit-margin-top="0"
     fit-margin-left="0"
     fit-margin-right="0"
     fit-margin-bottom="0" />
  <defs
     id="defs4">
    <linearGradient
       id="linearGradient5065">
      <stop
         style="stop-color:#ff007c;stop-opacity:1;"
         offset="0"
         id="stop5067" />
      <stop
         style="stop-color:#ff870d;stop-opacity:1;"
         offset="1"
         id="stop5069" />
    </linearGradient>
    <linearGradient
       inkscape:collect="always"
       xlink:href="#linearGradient5065"
       id="linearGradient5071"
       x1="531.69116"
       y1="411.99567"
       x2="218.51924"
       y2="839.68573"
       gradientUnits="userSpaceOnUse" />
  </defs>
  <metadata
     id="metadata7">
    <rdf:RDF>
      <cc:Work
         rdf:about="">
        <dc:format>image/svg+xml</dc:format>
        <dc:type
           rdf:resource="http://purl.org/dc/dcmitype/StillImage" />
        <dc:title></dc:title>
      </cc:Work>
    </rdf:RDF>
  </metadata>
  <g
     inkscape:label="Layer 1"
     inkscape:groupmode="layer"
     id="layer1"
     transform="translate(-97.511872,-366.91159)">
    <path
       style="font-size:medium;font-style:normal;font-variant:normal;font-weight:normal;font-stretch:normal;text-indent:0;text-align:start;text-decoration:none;line-height:normal;letter-spacing:normal;word-spacing:normal;text-transform:none;direction:ltr;block-progression:tb;writing-mode:lr-tb;text-anchor:start;baseline-shift:baseline;color:#000000;fill:url(#linearGradient5071);fill-opacity:1;stroke:none;stroke-width:16.02945137;marker:none;visibility:visible;display:inline;overflow:visible;enable-background:accumulate;font-family:Sans;-inkscape-font-specification:Sans"
       d="m 335.28125,366.9375 c -10.82975,0.74216 -16.34994,17.49618 -19.1875,25.28125 -2.76441,7.58435 -12.79618,22.6718 -18.90625,25.3125 -0.15133,0.0429 -0.2863,0.0816 -0.4375,0.125 -0.25917,0.0743 -0.52235,0.14353 -0.78125,0.21875 -0.0452,0.009 -0.0789,0.055 -0.125,0.0625 -6.45922,1.00043 -22.54462,-6.57601 -28.96875,-11.59375 -6.12204,-4.78179 -18.43825,-15.01174 -27.84375,-12.0625 -0.61751,0.19535 -1.22261,0.46677 -1.8125,0.78125 -9.5791,5.10637 -7.82847,22.09544 -7.5,30.375 0.32267,8.13395 -2.81404,25.67443 -7.375,30.375 -0.007,0.007 -0.0249,-0.007 -0.0312,0 -0.31548,0.24887 -0.62324,0.49923 -0.9375,0.75 -0.0276,0.0222 -0.0661,0.0404 -0.0937,0.0625 -5.61415,3.48437 -23.80822,2.84571 -31.625,0.6875 -7.9872,-2.2053 -24.10702,-7.79883 -31.25,0.375 -7.14298,8.17382 0.74678,23.95964 4.25,31.46875 3.43035,7.353 7.0804,25.20966 4.5625,31.3125 -0.0111,0.0283 -0.0192,0.0657 -0.0312,0.0937 -0.18872,0.33909 -0.40693,0.66002 -0.59375,1 -0.009,0.0134 -0.0217,0.0178 -0.0312,0.0312 -3.85239,5.2807 -20.63102,11.32597 -28.71875,12.34375 -8.22125,1.03457 -25.24874,2.05816 -28.71875,12.34375 -3.46999,10.28558 9.90175,21.82767 16,27.4375 5.99922,5.51875 16.14838,20.15128 16.21875,26.6875 5.5e-4,0.0481 0,0.10903 0,0.15625 -0.0427,0.36306 -0.084,0.73045 -0.125,1.09375 -1.38916,6.40487 -14.80851,18.92889 -21.90625,22.9375 -7.21493,4.07477 -22.801163,12.28964 -21.75,23.09375 1.05114,10.80412 17.41081,15.63958 25.1875,18.5 7.65041,2.81395 22.98932,12.97083 25.40625,19.0625 0.004,0.0111 -0.005,0.0212 0,0.0312 0.0223,0.0752 0.0409,0.17478 0.0625,0.25 0.0739,0.2582 0.14398,0.4922 0.21875,0.75 0.009,0.045 0.0238,0.11038 0.0312,0.15625 0.99651,6.45871 -6.62616,22.52991 -11.625,28.96875 -5.08138,6.54511 -16.39321,19.31024 -11.5625,29.03125 4.83069,9.72102 22.40948,8.42751 30.6875,8.0625 8.14361,-0.35905 26.14814,3.17802 30.71875,7.875 0.22717,0.28651 0.45892,0.55845 0.6875,0.84375 0.0254,0.0396 0.0688,0.0841 0.0937,0.125 3.40213,5.58144 2.54071,23.39147 0.375,31.25 -2.20149,7.98829 -7.42223,24.86341 0.96875,31.75 8.39101,6.88661 23.35361,-1.3045 30.875,-4.78125 7.36504,-3.4045 24.67179,-7.18301 30.8125,-4.8125 0.0285,0.0111 0.0656,0.0513 0.0937,0.0625 0.35937,0.20118 0.7331,0.3945 1.09375,0.59375 0.0276,0.0156 0.0347,0.0159 0.0625,0.0312 5.36807,3.843 11.734,20.94617 12.71875,29 1.00565,8.22483 2.67447,25.78751 13.0625,28.9375 10.38802,3.14999 21.08058,-10.1178 26.6875,-16.21875 5.48728,-5.97073 20.61125,-16.16952 27.21875,-16.1875 0.0345,1.7e-4 0.0597,0 0.0937,0 0.39929,0.0463 0.78817,0.11241 1.1875,0.15625 0.0111,10e-4 0.0213,-0.0334 0.0312,-0.0312 6.35836,1.57145 18.30936,14.77347 22.34375,21.84375 4.10659,7.19688 11.60779,22.55464 22.4375,21.8125 10.82975,-0.74216 16.34993,-17.49619 19.1875,-25.28125 2.79149,-7.65864 12.97074,-22.95659 19.0625,-25.375 0.0961,-0.0274 0.18502,-0.0661 0.28125,-0.0937 0.0961,-0.032 0.18749,-0.0367 0.28125,-0.0625 6.00389,-1.61594 22.9624,6.25791 29.59375,11.4375 6.53021,5.10059 20.1084,16.38762 29.6875,11.28125 9.57908,-5.10638 7.76598,-22.09544 7.4375,-30.375 -0.32266,-8.13394 2.81401,-25.64316 7.375,-30.34375 0.009,-0.007 0.0229,-0.0243 0.0312,-0.0312 0.31543,-0.24876 0.62329,-0.49937 0.9375,-0.75 0.0178,-0.0111 0.0434,-0.0505 0.0625,-0.0625 5.5793,-3.5052 23.82559,-2.84955 31.65625,-0.6875 7.98721,2.20528 24.10702,7.79882 31.25,-0.375 7.14298,-8.17383 -0.74681,-23.95966 -4.25,-31.46875 -3.43038,-7.35302 -7.0804,-25.20966 -4.5625,-31.3125 0.0111,-0.0283 0.0195,-0.0347 0.0312,-0.0625 0.20051,-0.36003 0.39551,-0.73269 0.59375,-1.09375 0.0178,-0.0242 0.0442,-0.0693 0.0625,-0.0937 3.95313,-5.26315 20.63714,-11.20568 28.6875,-12.21875 8.22123,-1.03456 25.24874,-2.05816 28.71875,-12.34375 3.46999,-10.28559 -9.90174,-21.79639 -16,-27.40625 -6.10277,-5.61397 -16.4427,-20.70409 -16.15625,-27.0625 0.0349,-0.29876 0.0599,-0.57605 0.0937,-0.875 1.38916,-6.40487 14.80851,-18.96011 21.90625,-22.96875 7.21493,-4.07479 22.80117,-12.28963 21.75,-23.09375 -1.05114,-10.80411 -17.44205,-15.6396 -25.21875,-18.5 -7.65039,-2.81398 -22.98931,-12.97083 -25.40625,-19.0625 -0.0349,-0.087 -0.0333,-0.1645 -0.0625,-0.25 -0.0247,-0.0861 -0.0376,-0.19528 -0.0625,-0.28125 -1.1763,-6.44718 6.43868,-23.18617 11.4375,-29.625 5.08138,-6.5451 16.42443,-19.3415 11.59375,-29.0625 -4.83071,-9.72104 -22.40946,-8.39626 -30.6875,-8.03125 -8.14359,0.35905 -26.1794,-3.17802 -30.75,-7.875 -0.18693,-0.23572 -0.37465,-0.48383 -0.5625,-0.71875 -3.61066,-5.24161 -2.79684,-23.50584 -0.59375,-31.5 2.20147,-7.9883 7.42224,-24.86339 -0.96875,-31.75 -8.39101,-6.88662 -23.35362,1.30449 -30.875,4.78125 -7.39924,3.42029 -24.84169,7.15759 -30.90625,4.71875 -0.0156,-0.007 -0.0465,0.007 -0.0625,0 -0.33855,-0.18938 -0.69158,-0.37483 -1.03125,-0.5625 -0.0249,-0.0178 -0.0374,-0.0134 -0.0625,-0.0312 -5.36806,-3.84297 -11.73399,-20.9149 -12.71875,-28.96875 -1.00565,-8.22481 -2.67448,-25.81874 -13.0625,-28.96875 -10.38805,-3.15 -21.08058,10.11783 -26.6875,16.21875 -5.49701,5.98135 -20.66103,16.23691 -27.25,16.21875 -0.0227,-2.3e-4 -0.04,-0.0312 -0.0625,-0.0312 -0.39924,-0.0463 -0.78824,-0.0809 -1.1875,-0.125 -0.0111,-10e-4 -0.0213,0.002 -0.0312,0 -6.35834,-1.57145 -18.30937,-14.77348 -22.34375,-21.84375 -4.1066,-7.19689 -11.57652,-22.58589 -22.40625,-21.84375 z M 355.75,420.375 c 16.77135,-0.0542 33.67864,1.95922 50.375,6.125 71.23784,17.77396 127.58629,72.16922 147.8125,142.75 20.22619,70.58076 1.26165,146.5682 -49.75,199.375 -51.01161,52.8068 -126.29345,74.39901 -197.53125,56.625 -71.23784,-17.77396 -127.58629,-72.20047 -147.8125,-142.78125 -20.22621,-70.58076 -1.26163,-146.5682 49.75,-199.375 25.50581,-26.4034 57.11634,-45.0086 91.21875,-54.78125 18.11688,-5.19173 36.92997,-7.87603 55.9375,-7.9375 z m 0,3.875 c -1.09756,0.003 -2.18519,0.01 -3.28125,0.0312 -52.61105,1.02941 -103.56555,22.65111 -141.09375,61.5 -50.03765,51.79849 -68.65253,126.39188 -48.8125,195.625 19.83999,69.23312 75.15362,122.65913 145.03125,140.09375 69.87761,17.43457 143.77487,-3.764 193.8125,-55.5625 50.03762,-51.79851 68.65251,-126.39189 48.8125,-195.625 -19.84003,-69.23312 -75.12239,-122.6279 -145,-140.0625 -16.37757,-4.08623 -33.00535,-6.05219 -49.46875,-6 z m 3.09375,16 c 14.15452,0.18903 28.39303,2.01933 42.46875,5.53125 64.34611,16.05448 115.23051,65.18486 133.5,128.9375 18.26947,63.75263 1.13916,132.3956 -44.9375,180.09375 -46.07665,47.69814 -114.06014,67.17945 -178.40625,51.125 C 247.12262,789.883 196.2382,740.75264 177.96875,677 c -18.26949,-63.75264 -1.13917,-132.39562 44.9375,-180.09375 34.55748,-35.77362 81.44731,-55.68243 129.875,-56.625 2.01782,-0.0393 4.04043,-0.0582 6.0625,-0.0312 z m 60.3125,80.8125 -12.15625,3.5 c -7.67186,2.19866 -12.34848,5.79352 -13.96875,10.8125 -1.62027,5.01924 -0.8425,13.00579 2.28125,23.90625 l 1.8125,6.3125 -13.75,3.90625 5.21875,18.21875 13.75,-3.9375 20.75,72.46875 14.78125,-4.25 -20.75,-72.4375 17.34375,-4.96875 -5.21875,-18.21875 -17.34375,4.96875 -2.28125,-7.9375 c -0.93788,-3.52679 -1.21528,-6.04549 -0.8125,-7.5625 0.43642,-1.52643 1.77919,-2.61347 4,-3.25 l 11.5625,-3.3125 -5.21875,-18.21875 z m -62.1875,17.84375 -14.75,4.21875 13.8125,48.15625 c -3.25521,-4.49779 -6.45971,-7.64936 -9.59375,-9.4375 -3.11586,-1.85154 -6.19038,-2.33648 -9.21875,-1.46875 -6.69605,1.91898 -10.68525,7.50628 -11.96875,16.75 -1.24983,9.23425 0.32695,21.51824 4.71875,36.84375 4.32998,15.10974 9.48927,26.30555 15.4375,33.59375 5.94821,7.28823 12.1332,10.00762 18.59375,8.15625 3.39847,-0.97391 5.95521,-3.14224 7.6875,-6.5 1.76586,-3.36738 2.69975,-7.90609 2.78125,-13.59375 l 3.84375,13.4375 14.75,-4.21875 -36.09375,-125.9375 z m 82.96875,9.5 5.78125,20.25 46.75,11.5625 -33.5625,34.40625 5.78125,20.15625 43.71875,-48.875 -5.46875,-19.125 -63,-18.375 z M 290.5,594.25 c -1.19334,0.0258 -2.3824,0.18414 -3.59375,0.53125 -3.39851,0.97401 -5.9841,3.16395 -7.75,6.53125 -1.76589,3.36749 -2.67095,7.8846 -2.71875,13.5625 l -3.90625,-13.59375 -14.71875,4.21875 35.84375,125.15625 14.75,-4.25 -13.5625,-47.25 c 3.27063,4.55185 6.47785,7.7421 9.59375,9.59375 3.13401,1.78805 6.22159,2.24283 9.25,1.375 6.69601,-1.91888 10.65636,-7.48457 11.90625,-16.71875 1.28345,-9.24379 -0.26448,-21.51814 -4.65625,-36.84375 -4.33001,-15.10963 -9.45807,-26.33668 -15.40625,-33.625 -4.83295,-5.9216 -9.86013,-8.79933 -15.03125,-8.6875 z m 57.71875,4.46875 c 2.80542,-0.2163 5.63578,1.62007 8.5,5.5 3.27335,4.43435 6.18229,11.00802 8.6875,19.75 2.50517,8.74209 3.55294,15.88009 3.125,21.375 -0.42799,5.495 -2.24091,8.67772 -5.4375,9.59375 -3.19663,0.91606 -6.41654,-0.8373 -9.65625,-5.28125 -3.23972,-4.44388 -6.11981,-11.03917 -8.625,-19.78125 -2.50519,-8.74199 -3.55057,-15.85837 -3.15625,-21.34375 0.39432,-5.48525 2.17838,-8.67762 5.375,-9.59375 0.39957,-0.1145 0.78673,-0.18785 1.1875,-0.21875 z m -103.6875,5.6875 -43.6875,48.9375 5.46875,19.125 62.96875,18.28125 -5.75,-20.15625 -46.6875,-11.40625 33.5,-34.5625 -5.8125,-20.21875 z M 289.625,615.3125 c 2.60381,0.0723 5.24271,1.92064 7.875,5.53125 3.2397,4.44399 6.08853,11.03927 8.59375,19.78125 2.50516,8.74211 3.58179,15.85847 3.1875,21.34375 -0.39435,5.48536 -2.20967,8.67774 -5.40625,9.59375 -3.19664,0.91608 -6.41415,-0.84694 -9.6875,-5.28125 -3.27339,-4.43424 -6.18231,-11.0079 -8.6875,-19.75 -2.5052,-8.74198 -3.52172,-15.87997 -3.09375,-21.375 0.42796,-5.49488 2.24089,-8.67763 5.4375,-9.59375 0.59936,-0.17174 1.18037,-0.26669 1.78125,-0.25 z"
       id="path2991-0"
       inkscape:connector-curvature="0" />
  </g>
</svg>
