<?xml version="1.0" encoding="UTF-8" standalone="no"?>
<!-- Created with Inkscape (http://www.inkscape.org/) -->
<svg id="svg2" xmlns:rdf="http://www.w3.org/1999/02/22-rdf-syntax-ns#" xmlns="http://www.w3.org/2000/svg" height="530.29" width="530.22" version="1.1" xmlns:cc="http://creativecommons.org/ns#" xmlns:xlink="http://www.w3.org/1999/xlink" xmlns:dc="http://purl.org/dc/elements/1.1/">
 <defs id="defs4">
  <linearGradient id="linearGradient5071" y2="839.69" gradientUnits="userSpaceOnUse" x2="218.52" gradientTransform="translate(-2,-2)" y1="412" x1="531.69">
   <stop id="stop5067" stop-color="#F0A" offset="0"/>
   <stop id="stop5069" stop-color="#ff870d" offset="1"/>
  </linearGradient>
  <filter id="filter3930" color-interpolation-filters="sRGB">
   <feGaussianBlur id="feGaussianBlur3932" stdDeviation="2.5891312"/>
  </filter>
 </defs>
 <metadata id="metadata7">
  <rdf:RDF>
   <cc:Work rdf:about="">
    <dc:format>image/svg+xml</dc:format>
    <dc:type rdf:resource="http://purl.org/dc/dcmitype/StillImage"/>
    <dc:title/>
   </cc:Work>
  </rdf:RDF>
 </metadata>
 <g id="layer1" transform="translate(-91.297957,-360.69767)">
  <path id="path2991-0-5" style="baseline-shift:baseline;block-progression:tb;color:#000000;direction:ltr;text-indent:0;text-align:start;enable-background:accumulate;text-transform:none;" d="m335.28,366.94c-10.83,0.74216-16.35,17.496-19.188,25.281-2.7644,7.5844-12.796,22.672-18.906,25.312-0.15133,0.0429-0.2863,0.0816-0.4375,0.125-0.25917,0.0743-0.52235,0.14353-0.78125,0.21875-0.0452,0.009-0.0789,0.055-0.125,0.0625-6.4592,1.0004-22.545-6.576-28.969-11.594-6.122-4.7818-18.438-15.012-27.844-12.062-0.61751,0.19535-1.2226,0.46677-1.8125,0.78125-9.5791,5.1064-7.8285,22.095-7.5,30.375,0.32267,8.134-2.814,25.674-7.375,30.375-0.007,0.007-0.0249-0.007-0.0312,0-0.31548,0.24887-0.62324,0.49923-0.9375,0.75-0.0276,0.0222-0.0661,0.0404-0.0937,0.0625-5.6142,3.4844-23.808,2.8457-31.625,0.6875-7.9872-2.2053-24.107-7.7988-31.25,0.375s0.74678,23.96,4.25,31.469c3.4304,7.353,7.0804,25.21,4.5625,31.312-0.0111,0.0283-0.0192,0.0657-0.0312,0.0937-0.18872,0.33909-0.40693,0.66002-0.59375,1-0.009,0.0134-0.0217,0.0178-0.0312,0.0312-3.8524,5.2807-20.631,11.326-28.719,12.344-8.2212,1.0346-25.249,2.0582-28.719,12.344s9.9018,21.828,16,27.438c5.9992,5.5188,16.148,20.151,16.219,26.688,0.00055,0.0481,0,0.10903,0,0.15625-0.0427,0.36306-0.084,0.73045-0.125,1.0938-1.3892,6.4049-14.809,18.929-21.906,22.938-7.2149,4.0748-22.801,12.29-21.75,23.094,1.0511,10.804,17.411,15.64,25.188,18.5,7.6504,2.814,22.989,12.971,25.406,19.062,0.004,0.0111-0.005,0.0212,0,0.0312,0.0223,0.0752,0.0409,0.17478,0.0625,0.25,0.0739,0.2582,0.14398,0.4922,0.21875,0.75,0.009,0.045,0.0238,0.11038,0.0312,0.15625,0.99651,6.4587-6.6262,22.53-11.625,28.969-5.0814,6.5451-16.393,19.31-11.562,29.031,4.8307,9.721,22.409,8.4275,30.688,8.0625,8.1436-0.35905,26.148,3.178,30.719,7.875,0.22717,0.28651,0.45892,0.55845,0.6875,0.84375,0.0254,0.0396,0.0688,0.0841,0.0937,0.125,3.4021,5.5814,2.5407,23.391,0.375,31.25-2.2015,7.9883-7.4222,24.863,0.96875,31.75,8.391,6.8866,23.354-1.3045,30.875-4.7812,7.365-3.4045,24.672-7.183,30.812-4.8125,0.0285,0.0111,0.0656,0.0513,0.0937,0.0625,0.35937,0.20118,0.7331,0.3945,1.0938,0.59375,0.0276,0.0156,0.0347,0.0159,0.0625,0.0312,5.3681,3.843,11.734,20.946,12.719,29,1.0056,8.2248,2.6745,25.788,13.062,28.938s21.081-10.118,26.688-16.219c5.4873-5.9707,20.611-16.17,27.219-16.188,0.0345,0.00017,0.0597,0,0.0937,0,0.39929,0.0463,0.78817,0.11241,1.1875,0.15625,0.0111,0.001,0.0213-0.0334,0.0312-0.0312,6.3584,1.5714,18.309,14.773,22.344,21.844,4.1066,7.1969,11.608,22.555,22.438,21.812,10.83-0.74216,16.35-17.496,19.188-25.281,2.7915-7.6586,12.971-22.957,19.062-25.375,0.0961-0.0274,0.18502-0.0661,0.28125-0.0937,0.0961-0.032,0.18749-0.0367,0.28125-0.0625,6.0039-1.6159,22.962,6.2579,29.594,11.438,6.5302,5.1006,20.108,16.388,29.688,11.281,9.5791-5.1064,7.766-22.095,7.4375-30.375-0.32266-8.1339,2.814-25.643,7.375-30.344,0.009-0.007,0.0229-0.0243,0.0312-0.0312,0.31543-0.24876,0.62329-0.49937,0.9375-0.75,0.0178-0.0111,0.0434-0.0505,0.0625-0.0625,5.5793-3.5052,23.826-2.8496,31.656-0.6875,7.9872,2.2053,24.107,7.7988,31.25-0.375s-0.74681-23.96-4.25-31.469c-3.4304-7.353-7.0804-25.21-4.5625-31.312,0.0111-0.0283,0.0195-0.0347,0.0312-0.0625,0.20051-0.36003,0.39551-0.73269,0.59375-1.0938,0.0178-0.0242,0.0442-0.0693,0.0625-0.0937,3.9531-5.2632,20.637-11.206,28.688-12.219,8.2212-1.0346,25.249-2.0582,28.719-12.344s-9.9017-21.796-16-27.406c-6.1028-5.614-16.443-20.704-16.156-27.062,0.0349-0.29876,0.0599-0.57605,0.0937-0.875,1.3892-6.4049,14.809-18.96,21.906-22.969,7.2149-4.0748,22.801-12.29,21.75-23.094-1.0511-10.804-17.442-15.64-25.219-18.5-7.6504-2.814-22.989-12.971-25.406-19.062-0.0349-0.087-0.0333-0.1645-0.0625-0.25-0.0247-0.0861-0.0376-0.19528-0.0625-0.28125-1.1763-6.4472,6.4387-23.186,11.438-29.625,5.0814-6.5451,16.424-19.342,11.594-29.062-4.8307-9.721-22.409-8.3963-30.688-8.0312-8.1436,0.35905-26.179-3.178-30.75-7.875-0.18693-0.23572-0.37465-0.48383-0.5625-0.71875-3.6107-5.2416-2.7968-23.506-0.59375-31.5,2.2015-7.9883,7.4222-24.863-0.96875-31.75-8.391-6.8866-23.354,1.3045-30.875,4.7812-7.3992,3.4203-24.842,7.1576-30.906,4.7188-0.0156-0.007-0.0465,0.007-0.0625,0-0.33855-0.18938-0.69158-0.37483-1.0312-0.5625-0.0249-0.0178-0.0374-0.0134-0.0625-0.0312-5.3681-3.843-11.734-20.915-12.719-28.969-1.0056-8.2248-2.6745-25.819-13.062-28.969s-21.081,10.118-26.688,16.219c-5.497,5.9814-20.661,16.237-27.25,16.219-0.0227-0.00023-0.04-0.0312-0.0625-0.0312-0.39924-0.0463-0.78824-0.0809-1.1875-0.125-0.0111-0.001-0.0213,0.002-0.0312,0-6.3583-1.5714-18.309-14.773-22.344-21.844-4.1066-7.1969-11.577-22.586-22.406-21.844zm20.469,53.438c16.771-0.0542,33.679,1.9592,50.375,6.125,71.238,17.774,127.59,72.169,147.81,142.75,20.226,70.581,1.2616,146.57-49.75,199.38-51.012,52.807-126.29,74.399-197.53,56.625-71.238-17.774-127.59-72.2-147.81-142.78-20.226-70.581-1.2616-146.57,49.75-199.38,25.506-26.403,57.116-45.009,91.219-54.781,18.117-5.1917,36.93-7.876,55.938-7.9375zm0,3.875c-1.0976,0.003-2.1852,0.01-3.2812,0.0312-52.611,1.0294-103.57,22.651-141.09,61.5-50.038,51.798-68.653,126.39-48.812,195.62,19.84,69.233,75.154,122.66,145.03,140.09,69.878,17.435,143.77-3.764,193.81-55.562,50.038-51.799,68.653-126.39,48.812-195.62-19.84-69.233-75.122-122.63-145-140.06-16.378-4.0862-33.005-6.0522-49.469-6zm3.0938,16c14.155,0.18903,28.393,2.0193,42.469,5.5312,64.346,16.054,115.23,65.185,133.5,128.94,18.269,63.753,1.1392,132.4-44.938,180.09-46.077,47.698-114.06,67.179-178.41,51.125-64.346-16.054-115.23-65.185-133.5-128.94-18.269-63.753-1.1392-132.4,44.938-180.09,34.557-35.774,81.447-55.682,129.88-56.625,2.0178-0.0393,4.0404-0.0582,6.0625-0.0312zm60.312,80.812-12.156,3.5c-7.6719,2.1987-12.348,5.7935-13.969,10.812-1.6203,5.0192-0.8425,13.006,2.2812,23.906l1.8125,6.3125-13.75,3.9062,5.2188,18.219,13.75-3.9375,20.75,72.469,14.781-4.25-20.75-72.438,17.344-4.9688-5.2188-18.219-17.344,4.9688-2.2812-7.9375c-0.93788-3.5268-1.2153-6.0455-0.8125-7.5625,0.43642-1.5264,1.7792-2.6135,4-3.25l11.562-3.3125-5.2188-18.219zm-62.188,17.844-14.75,4.2188,13.812,48.156c-3.2552-4.4978-6.4597-7.6494-9.5938-9.4375-3.1159-1.8515-6.1904-2.3365-9.2188-1.4688-6.696,1.919-10.685,7.5063-11.969,16.75-1.2498,9.2342,0.32695,21.518,4.7188,36.844,4.33,15.11,9.4893,26.306,15.438,33.594,5.9482,7.2882,12.133,10.008,18.594,8.1562,3.3985-0.97391,5.9552-3.1422,7.6875-6.5,1.7659-3.3674,2.6998-7.9061,2.7812-13.594l3.8438,13.438,14.75-4.2188-36.094-125.94zm82.969,9.5,5.7812,20.25,46.75,11.562-33.562,34.406,5.7812,20.156,43.719-48.875-5.4688-19.125-63-18.375zm-149.43,45.84c-1.1933,0.0258-2.3824,0.18414-3.5938,0.53125-3.3985,0.97401-5.9841,3.164-7.75,6.5312-1.7659,3.3675-2.671,7.8846-2.7188,13.562l-3.9062-13.594-14.719,4.2188,35.844,125.16,14.75-4.25-13.562-47.25c3.2706,4.5518,6.4778,7.7421,9.5938,9.5938,3.134,1.788,6.2216,2.2428,9.25,1.375,6.696-1.9189,10.656-7.4846,11.906-16.719,1.2834-9.2438-0.26448-21.518-4.6562-36.844-4.33-15.11-9.4581-26.337-15.406-33.625-4.833-5.9216-9.8601-8.7993-15.031-8.6875zm57.719,4.4688c2.8054-0.2163,5.6358,1.6201,8.5,5.5,3.2734,4.4344,6.1823,11.008,8.6875,19.75,2.5052,8.7421,3.5529,15.88,3.125,21.375-0.42799,5.495-2.2409,8.6777-5.4375,9.5938-3.1966,0.91606-6.4165-0.8373-9.6562-5.2812s-6.1198-11.039-8.625-19.781-3.5506-15.858-3.1562-21.344c0.39432-5.4852,2.1784-8.6776,5.375-9.5938,0.39957-0.1145,0.78673-0.18785,1.1875-0.21875zm-103.69,5.6875-43.688,48.938,5.4688,19.125,62.969,18.281-5.75-20.156-46.688-11.406,33.5-34.562-5.8125-20.219zm45.094,10.906c2.6038,0.0723,5.2427,1.9206,7.875,5.5312,3.2397,4.444,6.0885,11.039,8.5938,19.781,2.5052,8.7421,3.5818,15.858,3.1875,21.344-0.39435,5.4854-2.2097,8.6777-5.4062,9.5938-3.1966,0.91608-6.4142-0.84694-9.6875-5.2812-3.2734-4.4342-6.1823-11.008-8.6875-19.75s-3.5217-15.88-3.0938-21.375c0.42796-5.4949,2.2409-8.6776,5.4375-9.5938,0.59936-0.17174,1.1804-0.26669,1.7812-0.25z" fill-opacity="0.50196078" filter="url(#filter3930)" fill="#000"/>
  <path id="path2991-0" style="baseline-shift:baseline;block-progression:tb;color:#000000;direction:ltr;text-indent:0;text-align:start;enable-background:accumulate;text-transform:none;" fill="url(#linearGradient5071)" d="m333.28,364.94c-10.83,0.74216-16.35,17.496-19.188,25.281-2.7644,7.5844-12.796,22.672-18.906,25.312-0.15133,0.0429-0.2863,0.0816-0.4375,0.125-0.25917,0.0743-0.52235,0.14353-0.78125,0.21875-0.0452,0.009-0.0789,0.055-0.125,0.0625-6.4592,1.0004-22.545-6.576-28.969-11.594-6.122-4.7818-18.438-15.012-27.844-12.062-0.61751,0.19535-1.2226,0.46677-1.8125,0.78125-9.5791,5.1064-7.8285,22.095-7.5,30.375,0.32267,8.134-2.814,25.674-7.375,30.375-0.007,0.007-0.0249-0.007-0.0312,0-0.31548,0.24887-0.62324,0.49923-0.9375,0.75-0.0276,0.0222-0.0661,0.0404-0.0937,0.0625-5.6142,3.4844-23.808,2.8457-31.625,0.6875-7.9872-2.2053-24.107-7.7988-31.25,0.375s0.74678,23.96,4.25,31.469c3.4304,7.353,7.0804,25.21,4.5625,31.312-0.0111,0.0283-0.0192,0.0657-0.0312,0.0937-0.18872,0.33909-0.40693,0.66002-0.59375,1-0.009,0.0134-0.0217,0.0178-0.0312,0.0312-3.8524,5.2807-20.631,11.326-28.719,12.344-8.2212,1.0346-25.249,2.0582-28.719,12.344s9.9018,21.828,16,27.438c5.9992,5.5188,16.148,20.151,16.219,26.688,0.00055,0.0481,0,0.10903,0,0.15625-0.0427,0.36306-0.084,0.73045-0.125,1.0938-1.3892,6.4049-14.809,18.929-21.906,22.938-7.2149,4.0748-22.801,12.29-21.75,23.094,1.0511,10.804,17.411,15.64,25.188,18.5,7.6504,2.814,22.989,12.971,25.406,19.062,0.004,0.0111-0.005,0.0212,0,0.0312,0.0223,0.0752,0.0409,0.17478,0.0625,0.25,0.0739,0.2582,0.14398,0.4922,0.21875,0.75,0.009,0.045,0.0238,0.11038,0.0312,0.15625,0.99651,6.4587-6.6262,22.53-11.625,28.969-5.0814,6.5451-16.393,19.31-11.562,29.031,4.8307,9.721,22.409,8.4275,30.688,8.0625,8.1436-0.35905,26.148,3.178,30.719,7.875,0.22717,0.28651,0.45892,0.55845,0.6875,0.84375,0.0254,0.0396,0.0688,0.0841,0.0937,0.125,3.4021,5.5814,2.5407,23.391,0.375,31.25-2.2015,7.9883-7.4222,24.863,0.96875,31.75,8.391,6.8866,23.354-1.3045,30.875-4.7812,7.365-3.4045,24.672-7.183,30.812-4.8125,0.0285,0.0111,0.0656,0.0513,0.0937,0.0625,0.35937,0.20118,0.7331,0.3945,1.0938,0.59375,0.0276,0.0156,0.0347,0.0159,0.0625,0.0312,5.3681,3.843,11.734,20.946,12.719,29,1.0056,8.2248,2.6745,25.788,13.062,28.938s21.081-10.118,26.688-16.219c5.4873-5.9707,20.611-16.17,27.219-16.188,0.0345,0.00017,0.0597,0,0.0937,0,0.39929,0.0463,0.78817,0.11241,1.1875,0.15625,0.0111,0.001,0.0213-0.0334,0.0312-0.0312,6.3584,1.5714,18.309,14.773,22.344,21.844,4.1066,7.1969,11.608,22.555,22.438,21.812,10.83-0.74216,16.35-17.496,19.188-25.281,2.7915-7.6586,12.971-22.957,19.062-25.375,0.0961-0.0274,0.18502-0.0661,0.28125-0.0937,0.0961-0.032,0.18749-0.0367,0.28125-0.0625,6.0039-1.6159,22.962,6.2579,29.594,11.438,6.5302,5.1006,20.108,16.388,29.688,11.281,9.5791-5.1064,7.766-22.095,7.4375-30.375-0.32266-8.1339,2.814-25.643,7.375-30.344,0.009-0.007,0.0229-0.0243,0.0312-0.0312,0.31543-0.24876,0.62329-0.49937,0.9375-0.75,0.0178-0.0111,0.0434-0.0505,0.0625-0.0625,5.5793-3.5052,23.826-2.8496,31.656-0.6875,7.9872,2.2053,24.107,7.7988,31.25-0.375s-0.74681-23.96-4.25-31.469c-3.4304-7.353-7.0804-25.21-4.5625-31.312,0.0111-0.0283,0.0195-0.0347,0.0312-0.0625,0.20051-0.36003,0.39551-0.73269,0.59375-1.0938,0.0178-0.0242,0.0442-0.0693,0.0625-0.0937,3.9531-5.2632,20.637-11.206,28.688-12.219,8.2212-1.0346,25.249-2.0582,28.719-12.344s-9.9017-21.796-16-27.406c-6.1028-5.614-16.443-20.704-16.156-27.062,0.0349-0.29876,0.0599-0.57605,0.0937-0.875,1.3892-6.4049,14.809-18.96,21.906-22.969,7.2149-4.0748,22.801-12.29,21.75-23.094-1.0511-10.804-17.442-15.64-25.219-18.5-7.6504-2.814-22.989-12.971-25.406-19.062-0.0349-0.087-0.0333-0.1645-0.0625-0.25-0.0247-0.0861-0.0376-0.19528-0.0625-0.28125-1.1763-6.4472,6.4387-23.186,11.438-29.625,5.0814-6.5451,16.424-19.342,11.594-29.062-4.8307-9.721-22.409-8.3963-30.688-8.0312-8.1436,0.35905-26.179-3.178-30.75-7.875-0.18693-0.23572-0.37465-0.48383-0.5625-0.71875-3.6107-5.2416-2.7968-23.506-0.59375-31.5,2.2015-7.9883,7.4222-24.863-0.96875-31.75-8.391-6.8866-23.354,1.3045-30.875,4.7812-7.3992,3.4203-24.842,7.1576-30.906,4.7188-0.0156-0.007-0.0465,0.007-0.0625,0-0.33855-0.18938-0.69158-0.37483-1.0312-0.5625-0.0249-0.0178-0.0374-0.0134-0.0625-0.0312-5.3681-3.843-11.734-20.915-12.719-28.969-1.0056-8.2248-2.6745-25.819-13.062-28.969s-21.081,10.118-26.688,16.219c-5.497,5.9814-20.661,16.237-27.25,16.219-0.0227-0.00023-0.04-0.0312-0.0625-0.0312-0.39924-0.0463-0.78824-0.0809-1.1875-0.125-0.0111-0.001-0.0213,0.002-0.0312,0-6.3583-1.5714-18.309-14.773-22.344-21.844-4.1066-7.1969-11.577-22.586-22.406-21.844zm20.47,53.44c16.771-0.0542,33.679,1.9592,50.375,6.125,71.238,17.774,127.59,72.169,147.81,142.75,20.226,70.581,1.2616,146.57-49.75,199.38-51.012,52.807-126.29,74.399-197.53,56.625-71.238-17.774-127.59-72.2-147.81-142.78-20.226-70.581-1.2616-146.57,49.75-199.38,25.506-26.403,57.116-45.009,91.219-54.781,18.117-5.1917,36.93-7.876,55.938-7.9375zm0,3.875c-1.0976,0.003-2.1852,0.01-3.2812,0.0312-52.611,1.0294-103.57,22.651-141.09,61.5-50.038,51.798-68.653,126.39-48.812,195.62,19.84,69.233,75.154,122.66,145.03,140.09,69.878,17.435,143.77-3.764,193.81-55.562,50.038-51.799,68.653-126.39,48.812-195.62-19.84-69.233-75.122-122.63-145-140.06-16.378-4.0862-33.005-6.0522-49.469-6zm3.0938,16c14.155,0.18903,28.393,2.0193,42.469,5.5312,64.346,16.054,115.23,65.185,133.5,128.94,18.269,63.753,1.1392,132.4-44.938,180.09-46.077,47.698-114.06,67.179-178.41,51.125-64.34-16.06-115.22-65.19-133.49-128.94-18.269-63.753-1.1392-132.4,44.938-180.09,34.557-35.774,81.447-55.682,129.88-56.625,2.0178-0.0393,4.0404-0.0582,6.0625-0.0312zm60.312,80.812-12.156,3.5c-7.6719,2.1987-12.348,5.7935-13.969,10.812-1.6203,5.0192-0.8425,13.006,2.2812,23.906l1.8125,6.3125-13.75,3.9062,5.2188,18.219,13.75-3.9375,20.75,72.469,14.781-4.25-20.75-72.438,17.344-4.9688-5.2188-18.219-17.344,4.9688-2.2812-7.9375c-0.93788-3.5268-1.2153-6.0455-0.8125-7.5625,0.43642-1.5264,1.7792-2.6135,4-3.25l11.562-3.3125-5.2188-18.219zm-62.188,17.844-14.75,4.2188,13.812,48.156c-3.2552-4.4978-6.4597-7.6494-9.5938-9.4375-3.1159-1.8515-6.1904-2.3365-9.2188-1.4688-6.696,1.919-10.685,7.5063-11.969,16.75-1.2498,9.2342,0.32695,21.518,4.7188,36.844,4.33,15.11,9.4893,26.306,15.438,33.594,5.9482,7.2882,12.133,10.008,18.594,8.1562,3.3985-0.97391,5.9552-3.1422,7.6875-6.5,1.7659-3.3674,2.6998-7.9061,2.7812-13.594l3.8438,13.438,14.75-4.2188-36.094-125.94zm82.969,9.5,5.7812,20.25,46.75,11.562-33.562,34.406,5.7812,20.156,43.719-48.875-5.4688-19.125-63-18.375zm-149.43,45.84c-1.1933,0.0258-2.3824,0.18414-3.5938,0.53125-3.3985,0.97401-5.9841,3.164-7.75,6.5312-1.7659,3.3675-2.671,7.8846-2.7188,13.562l-3.9062-13.594-14.719,4.2188,35.844,125.16,14.75-4.25-13.562-47.25c3.2706,4.5518,6.4778,7.7421,9.5938,9.5938,3.134,1.788,6.2216,2.2428,9.25,1.375,6.696-1.9189,10.656-7.4846,11.906-16.719,1.2834-9.2438-0.26448-21.518-4.6562-36.844-4.33-15.11-9.4581-26.337-15.406-33.625-4.833-5.9216-9.8601-8.7993-15.031-8.6875zm57.719,4.4688c2.8054-0.2163,5.6358,1.6201,8.5,5.5,3.2734,4.4344,6.1823,11.008,8.6875,19.75,2.5052,8.7421,3.5529,15.88,3.125,21.375-0.42799,5.495-2.2409,8.6777-5.4375,9.5938-3.1966,0.91606-6.4165-0.8373-9.6562-5.2812s-6.1198-11.039-8.625-19.781-3.5506-15.858-3.1562-21.344c0.39432-5.4852,2.1784-8.6776,5.375-9.5938,0.39957-0.1145,0.78673-0.18785,1.1875-0.21875zm-103.69,5.6875-43.688,48.938,5.4688,19.125,62.969,18.281-5.75-20.156-46.688-11.406,33.5-34.562-5.8125-20.219zm45.09,10.9c2.6038,0.0723,5.2427,1.9206,7.875,5.5312,3.2397,4.444,6.0885,11.039,8.5938,19.781,2.5052,8.7421,3.5818,15.858,3.1875,21.344-0.39435,5.4854-2.2097,8.6777-5.4062,9.5938-3.1966,0.91608-6.4142-0.84694-9.6875-5.2812-3.2734-4.4342-6.1823-11.008-8.6875-19.75s-3.5217-15.88-3.0938-21.375c0.42796-5.4949,2.2409-8.6776,5.4375-9.5938,0.59936-0.17174,1.1804-0.26669,1.7812-0.25z"/>
  <path id="path2996" d="m104,197.57c0,10.003-8.1093,18.113-18.113,18.113-10.003,0-18.113-8.1093-18.113-18.113,0-10.003,8.1093-18.113,18.113-18.113,10.003,0,18.113,8.1093,18.113,18.113z" fill="none"/>
 </g>
</svg>
